<?xml version="1.0" encoding="utf-8" standalone="no"?>
<!DOCTYPE svg PUBLIC "-//W3C//DTD SVG 1.1//EN"
  "http://www.w3.org/Graphics/SVG/1.1/DTD/svg11.dtd">
<svg xmlns:xlink="http://www.w3.org/1999/xlink" width="814.608213pt" height="317.866367pt" viewBox="0 0 814.608213 317.866367" xmlns="http://www.w3.org/2000/svg" version="1.1">
 <metadata>
  <rdf:RDF xmlns:dc="http://purl.org/dc/elements/1.1/" xmlns:cc="http://creativecommons.org/ns#" xmlns:rdf="http://www.w3.org/1999/02/22-rdf-syntax-ns#">
   <cc:Work>
    <dc:type rdf:resource="http://purl.org/dc/dcmitype/StillImage"/>
    <dc:date>2026-03-03T21:57:08.380271</dc:date>
    <dc:format>image/svg+xml</dc:format>
    <dc:creator>
     <cc:Agent>
      <dc:title>Matplotlib v3.6.3, https://matplotlib.org/</dc:title>
     </cc:Agent>
    </dc:creator>
   </cc:Work>
  </rdf:RDF>
 </metadata>
 <defs>
  <style type="text/css">*{stroke-linejoin: round; stroke-linecap: butt}</style>
 </defs>
 <g id="figure_1">
  <g id="patch_1">
   <path d="M 0 317.866367 
L 814.608213 317.866367 
L 814.608213 0 
L 0 0 
z
" style="fill: #f6fbfa"/>
  </g>
  <g id="axes_1">
   <g id="patch_2">
    <path d="M 53.39125 272.567617 
L 420.168101 272.567617 
L 420.168101 26.877187 
L 53.39125 26.877187 
z
" style="fill: #f6fbfa"/>
   </g>
   <g id="PolyCollection_1">
    <defs>
     <path id="md6893f09a2" d="M 53.39125 -45.29875 
L 53.39125 -45.320681 
L 54.002545 -45.32303 
L 54.61384 -45.325616 
L 55.225134 -45.32846 
L 55.836429 -45.331586 
L 56.447724 -45.335021 
L 57.059019 -45.338793 
L 57.670313 -45.342932 
L 58.281608 -45.34747 
L 58.892903 -45.352445 
L 59.504198 -45.357894 
L 60.115492 -45.363859 
L 60.726787 -45.370385 
L 61.338082 -45.377521 
L 61.949377 -45.385318 
L 62.560671 -45.393833 
L 63.171966 -45.403126 
L 63.783261 -45.413263 
L 64.394556 -45.424313 
L 65.00585 -45.436352 
L 65.617145 -45.449459 
L 66.22844 -45.463721 
L 66.839735 -45.47923 
L 67.451029 -45.496086 
L 68.062324 -45.514394 
L 68.673619 -45.534266 
L 69.284914 -45.555824 
L 69.896208 -45.579196 
L 70.507503 -45.60452 
L 71.118798 -45.631942 
L 71.730093 -45.661617 
L 72.341387 -45.693711 
L 72.952682 -45.728399 
L 73.563977 -45.76587 
L 74.175272 -45.806321 
L 74.786566 -45.849962 
L 75.397861 -45.897016 
L 76.009156 -45.947719 
L 76.620451 -46.00232 
L 77.231745 -46.061082 
L 77.84304 -46.124284 
L 78.454335 -46.19222 
L 79.06563 -46.265198 
L 79.676924 -46.343544 
L 80.288219 -46.427602 
L 80.899514 -46.517731 
L 81.510809 -46.61431 
L 82.122103 -46.717736 
L 82.733398 -46.828426 
L 83.344693 -46.946816 
L 83.955988 -47.073362 
L 84.567282 -47.208543 
L 85.178577 -47.352856 
L 85.789872 -47.506822 
L 86.401167 -47.670983 
L 87.012461 -47.845904 
L 87.623756 -48.032174 
L 88.235051 -48.230403 
L 88.846346 -48.441226 
L 89.45764 -48.6653 
L 90.068935 -48.903308 
L 90.68023 -49.155956 
L 91.291525 -49.423973 
L 91.902819 -49.708112 
L 92.514114 -50.009151 
L 93.125409 -50.327892 
L 93.736704 -50.665158 
L 94.347998 -51.021796 
L 94.959293 -51.398677 
L 95.570588 -51.796692 
L 96.181883 -52.216754 
L 96.793177 -52.659797 
L 97.404472 -53.126775 
L 98.015767 -53.618659 
L 98.627062 -54.13644 
L 99.238356 -54.681125 
L 99.849651 -55.253734 
L 100.460946 -55.855304 
L 101.072241 -56.486882 
L 101.683535 -57.149526 
L 102.29483 -57.844303 
L 102.906125 -58.572286 
L 103.51742 -59.334553 
L 104.128714 -60.132184 
L 104.740009 -60.966258 
L 105.351304 -61.837853 
L 105.962599 -62.748042 
L 106.573893 -63.697887 
L 107.185188 -64.688441 
L 107.796483 -65.720744 
L 108.407778 -66.795817 
L 109.019072 -67.91466 
L 109.630367 -69.078251 
L 110.241662 -70.287539 
L 110.852957 -71.543442 
L 111.464251 -72.846845 
L 112.075546 -74.198591 
L 112.686841 -75.599484 
L 113.298136 -77.05028 
L 113.90943 -78.551684 
L 114.520725 -80.104347 
L 115.13202 -81.708862 
L 115.743315 -83.365758 
L 116.354609 -85.075499 
L 116.965904 -86.838476 
L 117.577199 -88.655008 
L 118.188494 -90.525331 
L 118.799788 -92.449601 
L 119.411083 -94.427886 
L 120.022378 -96.460162 
L 120.633673 -98.546312 
L 121.244967 -100.686121 
L 121.856262 -102.87927 
L 122.467557 -105.125338 
L 123.078852 -107.423792 
L 123.690146 -109.77399 
L 124.301441 -112.175177 
L 124.912736 -114.626478 
L 125.524031 -117.126902 
L 126.135325 -119.675335 
L 126.74662 -122.270541 
L 127.357915 -124.911161 
L 127.96921 -127.595707 
L 128.580504 -130.322567 
L 129.191799 -133.090003 
L 129.803094 -135.896147 
L 130.414389 -138.739006 
L 131.025683 -141.616459 
L 131.636978 -144.526262 
L 132.248273 -147.466044 
L 132.859568 -150.433312 
L 133.470862 -153.425454 
L 134.082157 -156.439739 
L 134.693452 -159.473321 
L 135.304747 -162.523243 
L 135.916041 -165.586438 
L 136.527336 -168.659739 
L 137.138631 -171.739877 
L 137.749926 -174.823489 
L 138.36122 -177.907123 
L 138.972515 -180.987247 
L 139.58381 -184.060247 
L 140.195105 -187.122443 
L 140.806399 -190.170089 
L 141.417694 -193.199384 
L 142.028989 -196.206478 
L 142.640284 -199.187477 
L 143.251578 -202.138459 
L 143.862873 -205.055475 
L 144.474168 -207.934558 
L 145.085463 -210.771737 
L 145.696757 -213.563041 
L 146.308052 -216.30451 
L 146.919347 -218.992204 
L 147.530642 -221.622214 
L 148.141936 -224.190668 
L 148.753231 -226.693743 
L 149.364526 -229.127674 
L 149.975821 -231.488763 
L 150.587115 -233.773388 
L 151.19841 -235.978014 
L 151.809705 -238.099201 
L 152.421 -240.133611 
L 153.032294 -242.078021 
L 153.643589 -243.929328 
L 154.254884 -245.68456 
L 154.866179 -247.340881 
L 155.477474 -248.895602 
L 156.088768 -250.346185 
L 156.700063 -251.690254 
L 157.311358 -252.925598 
L 157.922653 -254.050178 
L 158.533947 -255.062134 
L 159.145242 -255.959789 
L 159.756537 -256.741655 
L 160.367832 -257.406437 
L 160.979126 -257.953033 
L 161.590421 -258.380544 
L 162.201716 -258.688271 
L 162.813011 -258.87572 
L 163.424305 -258.942601 
L 164.0356 -258.888834 
L 164.646895 -258.714541 
L 165.25819 -258.420053 
L 165.869484 -258.005908 
L 166.480779 -257.472845 
L 167.092074 -256.821809 
L 167.703369 -256.053941 
L 168.314663 -255.170582 
L 168.925958 -254.173264 
L 169.537253 -253.063707 
L 170.148548 -251.843818 
L 170.759842 -250.515681 
L 171.371137 -249.081555 
L 171.982432 -247.543863 
L 172.593727 -245.905191 
L 173.205021 -244.168281 
L 173.816316 -242.336017 
L 174.427611 -240.411424 
L 175.038906 -238.39766 
L 175.6502 -236.298002 
L 176.261495 -234.115844 
L 176.87279 -231.854683 
L 177.484085 -229.518116 
L 178.095379 -227.109825 
L 178.706674 -224.63357 
L 179.317969 -222.093182 
L 179.929264 -219.492549 
L 180.540558 -216.835613 
L 181.151853 -214.126353 
L 181.763148 -211.368782 
L 182.374443 -208.566934 
L 182.985737 -205.724858 
L 183.597032 -202.846603 
L 184.208327 -199.936218 
L 184.819622 -196.997735 
L 185.430916 -194.035164 
L 186.042211 -191.052487 
L 186.653506 -188.053645 
L 187.264801 -185.042533 
L 187.876095 -182.022994 
L 188.48739 -178.998808 
L 189.098685 -175.973689 
L 189.70998 -172.951276 
L 190.321274 -169.935128 
L 190.932569 -166.928718 
L 191.543864 -163.935428 
L 192.155159 -160.958542 
L 192.766453 -158.001246 
L 193.377748 -155.066619 
L 193.989043 -152.157632 
L 194.600338 -149.277143 
L 195.211632 -146.427897 
L 195.822927 -143.61252 
L 196.434222 -140.833519 
L 197.045517 -138.09328 
L 197.656811 -135.394064 
L 198.268106 -132.738011 
L 198.879401 -130.127138 
L 199.490696 -127.563333 
L 200.10199 -125.048364 
L 200.713285 -122.583874 
L 201.32458 -120.171383 
L 201.935875 -117.812289 
L 202.547169 -115.50787 
L 203.158464 -113.259285 
L 203.769759 -111.067578 
L 204.381054 -108.933677 
L 204.992348 -106.858399 
L 205.603643 -104.84245 
L 206.214938 -102.886433 
L 206.826233 -100.990844 
L 207.437527 -99.156082 
L 208.048822 -97.382448 
L 208.660117 -95.670148 
L 209.271412 -94.019303 
L 209.882706 -92.429944 
L 210.494001 -90.902021 
L 211.105296 -89.435405 
L 211.716591 -88.029896 
L 212.327885 -86.685219 
L 212.93918 -85.401034 
L 213.550475 -84.176938 
L 214.16177 -83.012471 
L 214.773064 -81.907116 
L 215.384359 -80.860304 
L 215.995654 -79.87142 
L 216.606949 -78.939804 
L 217.218243 -78.064758 
L 217.829538 -77.245545 
L 218.440833 -76.481395 
L 219.052128 -75.771509 
L 219.663422 -75.11506 
L 220.274717 -74.511199 
L 220.886012 -73.959054 
L 221.497307 -73.457737 
L 222.108601 -73.006344 
L 222.719896 -72.603958 
L 223.331191 -72.249653 
L 223.942486 -71.942495 
L 224.55378 -71.681543 
L 225.165075 -71.465855 
L 225.77637 -71.294483 
L 226.387665 -71.166483 
L 226.998959 -71.080911 
L 227.610254 -71.036825 
L 228.221549 -71.03329 
L 228.832844 -71.069374 
L 229.444138 -71.144153 
L 230.055433 -71.256711 
L 230.666728 -71.406138 
L 231.278023 -71.591536 
L 231.889317 -71.812016 
L 232.500612 -72.066697 
L 233.111907 -72.354712 
L 233.723202 -72.675203 
L 234.334496 -73.027322 
L 234.945791 -73.410234 
L 235.557086 -73.823115 
L 236.168381 -74.26515 
L 236.779675 -74.735538 
L 237.39097 -75.233487 
L 238.002265 -75.758215 
L 238.61356 -76.308952 
L 239.224854 -76.884934 
L 239.836149 -77.485412 
L 240.447444 -78.10964 
L 241.058739 -78.756885 
L 241.670033 -79.426419 
L 242.281328 -80.117523 
L 242.892623 -80.829483 
L 243.503918 -81.561592 
L 244.115212 -82.31315 
L 244.726507 -83.08346 
L 245.337802 -83.87183 
L 245.949097 -84.677571 
L 246.560391 -85.499998 
L 247.171686 -86.338429 
L 247.782981 -87.192182 
L 248.394276 -88.060579 
L 249.00557 -88.942941 
L 249.616865 -89.83859 
L 250.22816 -90.746848 
L 250.839455 -91.667035 
L 251.450749 -92.598472 
L 252.062044 -93.540478 
L 252.673339 -94.492368 
L 253.284634 -95.453457 
L 253.895928 -96.423057 
L 254.507223 -97.400478 
L 255.118518 -98.385025 
L 255.729813 -99.376001 
L 256.341108 -100.372706 
L 256.952402 -101.374436 
L 257.563697 -102.380483 
L 258.174992 -103.390135 
L 258.786287 -104.402679 
L 259.397581 -105.417396 
L 260.008876 -106.433563 
L 260.620171 -107.450457 
L 261.231466 -108.467348 
L 261.84276 -109.483506 
L 262.454055 -110.498196 
L 263.06535 -111.510682 
L 263.676645 -112.520226 
L 264.287939 -113.526088 
L 264.899234 -114.527526 
L 265.510529 -115.523798 
L 266.121824 -116.51416 
L 266.733118 -117.49787 
L 267.344413 -118.474187 
L 267.955708 -119.442367 
L 268.567003 -120.401673 
L 269.178297 -121.351367 
L 269.789592 -122.290714 
L 270.400887 -123.218985 
L 271.012182 -124.135451 
L 271.623476 -125.039393 
L 272.234771 -125.930093 
L 272.846066 -126.806842 
L 273.457361 -127.668938 
L 274.068655 -128.515685 
L 274.67995 -129.346397 
L 275.291245 -130.160398 
L 275.90254 -130.957019 
L 276.513834 -131.735605 
L 277.125129 -132.49551 
L 277.736424 -133.236103 
L 278.347719 -133.956765 
L 278.959013 -134.656889 
L 279.570308 -135.335884 
L 280.181603 -135.993175 
L 280.792898 -136.628202 
L 281.404192 -137.240422 
L 282.015487 -137.82931 
L 282.626782 -138.394357 
L 283.238077 -138.935076 
L 283.849371 -139.450996 
L 284.460666 -139.941669 
L 285.071961 -140.406666 
L 285.683256 -140.84558 
L 286.29455 -141.258024 
L 286.905845 -141.643636 
L 287.51714 -142.002074 
L 288.128435 -142.333022 
L 288.739729 -142.636186 
L 289.351024 -142.911295 
L 289.962319 -143.158106 
L 290.573614 -143.376397 
L 291.184908 -143.565974 
L 291.796203 -143.726667 
L 292.407498 -143.85833 
L 293.018793 -143.960847 
L 293.630087 -144.034125 
L 294.241382 -144.078097 
L 294.852677 -144.092724 
L 295.463972 -144.077991 
L 296.075266 -144.033911 
L 296.686561 -143.960522 
L 297.297856 -143.857891 
L 297.909151 -143.726106 
L 298.520445 -143.565286 
L 299.13174 -143.375572 
L 299.743035 -143.157133 
L 300.35433 -142.910162 
L 300.965624 -142.634878 
L 301.576919 -142.331523 
L 302.188214 -142.000366 
L 302.799509 -141.641696 
L 303.410803 -141.255828 
L 304.022098 -140.843102 
L 304.633393 -140.403875 
L 305.244688 -139.938532 
L 305.855982 -139.447475 
L 306.467277 -138.931129 
L 307.078572 -138.389938 
L 307.689867 -137.824367 
L 308.301161 -137.2349 
L 308.912456 -136.622037 
L 309.523751 -135.986297 
L 310.135046 -135.328217 
L 310.74634 -134.648348 
L 311.357635 -133.947257 
L 311.96893 -133.225527 
L 312.580225 -132.483751 
L 313.191519 -131.722539 
L 313.802814 -130.942511 
L 314.414109 -130.144297 
L 315.025404 -129.328541 
L 315.636698 -128.495892 
L 316.247993 -127.647011 
L 316.859288 -126.782566 
L 317.470583 -125.90323 
L 318.081877 -125.009686 
L 318.693172 -124.102617 
L 319.304467 -123.182715 
L 319.915762 -122.250673 
L 320.527056 -121.307187 
L 321.138351 -120.352954 
L 321.749646 -119.388674 
L 322.360941 -118.415044 
L 322.972235 -117.432762 
L 323.58353 -116.442526 
L 324.194825 -115.445028 
L 324.80612 -114.440959 
L 325.417414 -113.431006 
L 326.028709 -112.415851 
L 326.640004 -111.396169 
L 327.251299 -110.372633 
L 327.862593 -109.345904 
L 328.473888 -108.31664 
L 329.085183 -107.285486 
L 329.696478 -106.253083 
L 330.307772 -105.22006 
L 330.919067 -104.187036 
L 331.530362 -103.15462 
L 332.141657 -102.123409 
L 332.752951 -101.09399 
L 333.364246 -100.066937 
L 333.975541 -99.04281 
L 334.586836 -98.022159 
L 335.19813 -97.005518 
L 335.809425 -95.993408 
L 336.42072 -94.986337 
L 337.032015 -93.984797 
L 337.643309 -92.989266 
L 338.254604 -92.000207 
L 338.865899 -91.018067 
L 339.477194 -90.043279 
L 340.088488 -89.076259 
L 340.699783 -88.117408 
L 341.311078 -87.16711 
L 341.922373 -86.225735 
L 342.533667 -85.293635 
L 343.144962 -84.371147 
L 343.756257 -83.458591 
L 344.367552 -82.556271 
L 344.978846 -81.664476 
L 345.590141 -80.783476 
L 346.201436 -79.913528 
L 346.812731 -79.054872 
L 347.424025 -78.207732 
L 348.03532 -77.372316 
L 348.646615 -76.548816 
L 349.25791 -75.737411 
L 349.869204 -74.938261 
L 350.480499 -74.151514 
L 351.091794 -73.377303 
L 351.703089 -72.615744 
L 352.314383 -71.866942 
L 352.925678 -71.130986 
L 353.536973 -70.407951 
L 354.148268 -69.697899 
L 354.759562 -69.00088 
L 355.370857 -68.316929 
L 355.982152 -67.64607 
L 356.593447 -66.988315 
L 357.204742 -66.343662 
L 357.816036 -65.712101 
L 358.427331 -65.093608 
L 359.038626 -64.488149 
L 359.649921 -63.89568 
L 360.261215 -63.316147 
L 360.87251 -62.749485 
L 361.483805 -62.195622 
L 362.0951 -61.654475 
L 362.706394 -61.125953 
L 363.317689 -60.609958 
L 363.928984 -60.106383 
L 364.540279 -59.615114 
L 365.151573 -59.136029 
L 365.762868 -58.669001 
L 366.374163 -58.213897 
L 366.985458 -57.770576 
L 367.596752 -57.338892 
L 368.208047 -56.918695 
L 368.819342 -56.50983 
L 369.430637 -56.112137 
L 370.041931 -55.725451 
L 370.653226 -55.349604 
L 371.264521 -54.984426 
L 371.875816 -54.629742 
L 372.48711 -54.285375 
L 373.098405 -53.951144 
L 373.7097 -53.626867 
L 374.320995 -53.312362 
L 374.932289 -53.007442 
L 375.543584 -52.71192 
L 376.154879 -52.425608 
L 376.766174 -52.148318 
L 377.377468 -51.87986 
L 377.988763 -51.620044 
L 378.600058 -51.368681 
L 379.211353 -51.125581 
L 379.822647 -50.890555 
L 380.433942 -50.663413 
L 381.045237 -50.443969 
L 381.656532 -50.232034 
L 382.267826 -50.027423 
L 382.879121 -49.829951 
L 383.490416 -49.639435 
L 384.101711 -49.455694 
L 384.713005 -49.278547 
L 385.3243 -49.107817 
L 385.935595 -48.943327 
L 386.54689 -48.784904 
L 387.158184 -48.632376 
L 387.769479 -48.485575 
L 388.380774 -48.344332 
L 388.992069 -48.208485 
L 389.603363 -48.07787 
L 390.214658 -47.95233 
L 390.825953 -47.831708 
L 391.437248 -47.71585 
L 392.048542 -47.604606 
L 392.659837 -47.497828 
L 393.271132 -47.395371 
L 393.882427 -47.297094 
L 394.493721 -47.202857 
L 395.105016 -47.112525 
L 395.716311 -47.025965 
L 396.327606 -46.943047 
L 396.9389 -46.863644 
L 397.550195 -46.787633 
L 398.16149 -46.714893 
L 398.772785 -46.645307 
L 399.384079 -46.578759 
L 399.995374 -46.515138 
L 400.606669 -46.454336 
L 401.217964 -46.396247 
L 401.829258 -46.340768 
L 402.440553 -46.2878 
L 403.051848 -46.237245 
L 403.663143 -46.189009 
L 404.274437 -46.143002 
L 404.885732 -46.099134 
L 405.497027 -46.05732 
L 406.108322 -46.017477 
L 406.719616 -45.979524 
L 407.330911 -45.943384 
L 407.942206 -45.908981 
L 408.553501 -45.876242 
L 409.164795 -45.845097 
L 409.77609 -45.815478 
L 410.387385 -45.78732 
L 410.99868 -45.760559 
L 411.609974 -45.735134 
L 412.221269 -45.710986 
L 412.832564 -45.688059 
L 413.443859 -45.666297 
L 414.055153 -45.645649 
L 414.666448 -45.626063 
L 415.277743 -45.607492 
L 415.889038 -45.589888 
L 416.500332 -45.573205 
L 417.111627 -45.557402 
L 417.722922 -45.542437 
L 418.334217 -45.528269 
L 418.945511 -45.51486 
L 419.556806 -45.502174 
L 420.168101 -45.490176 
L 420.168101 -45.29875 
L 420.168101 -45.29875 
L 419.556806 -45.29875 
L 418.945511 -45.29875 
L 418.334217 -45.29875 
L 417.722922 -45.29875 
L 417.111627 -45.29875 
L 416.500332 -45.29875 
L 415.889038 -45.29875 
L 415.277743 -45.29875 
L 414.666448 -45.29875 
L 414.055153 -45.29875 
L 413.443859 -45.29875 
L 412.832564 -45.29875 
L 412.221269 -45.29875 
L 411.609974 -45.29875 
L 410.99868 -45.29875 
L 410.387385 -45.29875 
L 409.77609 -45.29875 
L 409.164795 -45.29875 
L 408.553501 -45.29875 
L 407.942206 -45.29875 
L 407.330911 -45.29875 
L 406.719616 -45.29875 
L 406.108322 -45.29875 
L 405.497027 -45.29875 
L 404.885732 -45.29875 
L 404.274437 -45.29875 
L 403.663143 -45.29875 
L 403.051848 -45.29875 
L 402.440553 -45.29875 
L 401.829258 -45.29875 
L 401.217964 -45.29875 
L 400.606669 -45.29875 
L 399.995374 -45.29875 
L 399.384079 -45.29875 
L 398.772785 -45.29875 
L 398.16149 -45.29875 
L 397.550195 -45.29875 
L 396.9389 -45.29875 
L 396.327606 -45.29875 
L 395.716311 -45.29875 
L 395.105016 -45.29875 
L 394.493721 -45.29875 
L 393.882427 -45.29875 
L 393.271132 -45.29875 
L 392.659837 -45.29875 
L 392.048542 -45.29875 
L 391.437248 -45.29875 
L 390.825953 -45.29875 
L 390.214658 -45.29875 
L 389.603363 -45.29875 
L 388.992069 -45.29875 
L 388.380774 -45.29875 
L 387.769479 -45.29875 
L 387.158184 -45.29875 
L 386.54689 -45.29875 
L 385.935595 -45.29875 
L 385.3243 -45.29875 
L 384.713005 -45.29875 
L 384.101711 -45.29875 
L 383.490416 -45.29875 
L 382.879121 -45.29875 
L 382.267826 -45.29875 
L 381.656532 -45.29875 
L 381.045237 -45.29875 
L 380.433942 -45.29875 
L 379.822647 -45.29875 
L 379.211353 -45.29875 
L 378.600058 -45.29875 
L 377.988763 -45.29875 
L 377.377468 -45.29875 
L 376.766174 -45.29875 
L 376.154879 -45.29875 
L 375.543584 -45.29875 
L 374.932289 -45.29875 
L 374.320995 -45.29875 
L 373.7097 -45.29875 
L 373.098405 -45.29875 
L 372.48711 -45.29875 
L 371.875816 -45.29875 
L 371.264521 -45.29875 
L 370.653226 -45.29875 
L 370.041931 -45.29875 
L 369.430637 -45.29875 
L 368.819342 -45.29875 
L 368.208047 -45.29875 
L 367.596752 -45.29875 
L 366.985458 -45.29875 
L 366.374163 -45.29875 
L 365.762868 -45.29875 
L 365.151573 -45.29875 
L 364.540279 -45.29875 
L 363.928984 -45.29875 
L 363.317689 -45.29875 
L 362.706394 -45.29875 
L 362.0951 -45.29875 
L 361.483805 -45.29875 
L 360.87251 -45.29875 
L 360.261215 -45.29875 
L 359.649921 -45.29875 
L 359.038626 -45.29875 
L 358.427331 -45.29875 
L 357.816036 -45.29875 
L 357.204742 -45.29875 
L 356.593447 -45.29875 
L 355.982152 -45.29875 
L 355.370857 -45.29875 
L 354.759562 -45.29875 
L 354.148268 -45.29875 
L 353.536973 -45.29875 
L 352.925678 -45.29875 
L 352.314383 -45.29875 
L 351.703089 -45.29875 
L 351.091794 -45.29875 
L 350.480499 -45.29875 
L 349.869204 -45.29875 
L 349.25791 -45.29875 
L 348.646615 -45.29875 
L 348.03532 -45.29875 
L 347.424025 -45.29875 
L 346.812731 -45.29875 
L 346.201436 -45.29875 
L 345.590141 -45.29875 
L 344.978846 -45.29875 
L 344.367552 -45.29875 
L 343.756257 -45.29875 
L 343.144962 -45.29875 
L 342.533667 -45.29875 
L 341.922373 -45.29875 
L 341.311078 -45.29875 
L 340.699783 -45.29875 
L 340.088488 -45.29875 
L 339.477194 -45.29875 
L 338.865899 -45.29875 
L 338.254604 -45.29875 
L 337.643309 -45.29875 
L 337.032015 -45.29875 
L 336.42072 -45.29875 
L 335.809425 -45.29875 
L 335.19813 -45.29875 
L 334.586836 -45.29875 
L 333.975541 -45.29875 
L 333.364246 -45.29875 
L 332.752951 -45.29875 
L 332.141657 -45.29875 
L 331.530362 -45.29875 
L 330.919067 -45.29875 
L 330.307772 -45.29875 
L 329.696478 -45.29875 
L 329.085183 -45.29875 
L 328.473888 -45.29875 
L 327.862593 -45.29875 
L 327.251299 -45.29875 
L 326.640004 -45.29875 
L 326.028709 -45.29875 
L 325.417414 -45.29875 
L 324.80612 -45.29875 
L 324.194825 -45.29875 
L 323.58353 -45.29875 
L 322.972235 -45.29875 
L 322.360941 -45.29875 
L 321.749646 -45.29875 
L 321.138351 -45.29875 
L 320.527056 -45.29875 
L 319.915762 -45.29875 
L 319.304467 -45.29875 
L 318.693172 -45.29875 
L 318.081877 -45.29875 
L 317.470583 -45.29875 
L 316.859288 -45.29875 
L 316.247993 -45.29875 
L 315.636698 -45.29875 
L 315.025404 -45.29875 
L 314.414109 -45.29875 
L 313.802814 -45.29875 
L 313.191519 -45.29875 
L 312.580225 -45.29875 
L 311.96893 -45.29875 
L 311.357635 -45.29875 
L 310.74634 -45.29875 
L 310.135046 -45.29875 
L 309.523751 -45.29875 
L 308.912456 -45.29875 
L 308.301161 -45.29875 
L 307.689867 -45.29875 
L 307.078572 -45.29875 
L 306.467277 -45.29875 
L 305.855982 -45.29875 
L 305.244688 -45.29875 
L 304.633393 -45.29875 
L 304.022098 -45.29875 
L 303.410803 -45.29875 
L 302.799509 -45.29875 
L 302.188214 -45.29875 
L 301.576919 -45.29875 
L 300.965624 -45.29875 
L 300.35433 -45.29875 
L 299.743035 -45.29875 
L 299.13174 -45.29875 
L 298.520445 -45.29875 
L 297.909151 -45.29875 
L 297.297856 -45.29875 
L 296.686561 -45.29875 
L 296.075266 -45.29875 
L 295.463972 -45.29875 
L 294.852677 -45.29875 
L 294.241382 -45.29875 
L 293.630087 -45.29875 
L 293.018793 -45.29875 
L 292.407498 -45.29875 
L 291.796203 -45.29875 
L 291.184908 -45.29875 
L 290.573614 -45.29875 
L 289.962319 -45.29875 
L 289.351024 -45.29875 
L 288.739729 -45.29875 
L 288.128435 -45.29875 
L 287.51714 -45.29875 
L 286.905845 -45.29875 
L 286.29455 -45.29875 
L 285.683256 -45.29875 
L 285.071961 -45.29875 
L 284.460666 -45.29875 
L 283.849371 -45.29875 
L 283.238077 -45.29875 
L 282.626782 -45.29875 
L 282.015487 -45.29875 
L 281.404192 -45.29875 
L 280.792898 -45.29875 
L 280.181603 -45.29875 
L 279.570308 -45.29875 
L 278.959013 -45.29875 
L 278.347719 -45.29875 
L 277.736424 -45.29875 
L 277.125129 -45.29875 
L 276.513834 -45.29875 
L 275.90254 -45.29875 
L 275.291245 -45.29875 
L 274.67995 -45.29875 
L 274.068655 -45.29875 
L 273.457361 -45.29875 
L 272.846066 -45.29875 
L 272.234771 -45.29875 
L 271.623476 -45.29875 
L 271.012182 -45.29875 
L 270.400887 -45.29875 
L 269.789592 -45.29875 
L 269.178297 -45.29875 
L 268.567003 -45.29875 
L 267.955708 -45.29875 
L 267.344413 -45.29875 
L 266.733118 -45.29875 
L 266.121824 -45.29875 
L 265.510529 -45.29875 
L 264.899234 -45.29875 
L 264.287939 -45.29875 
L 263.676645 -45.29875 
L 263.06535 -45.29875 
L 262.454055 -45.29875 
L 261.84276 -45.29875 
L 261.231466 -45.29875 
L 260.620171 -45.29875 
L 260.008876 -45.29875 
L 259.397581 -45.29875 
L 258.786287 -45.29875 
L 258.174992 -45.29875 
L 257.563697 -45.29875 
L 256.952402 -45.29875 
L 256.341108 -45.29875 
L 255.729813 -45.29875 
L 255.118518 -45.29875 
L 254.507223 -45.29875 
L 253.895928 -45.29875 
L 253.284634 -45.29875 
L 252.673339 -45.29875 
L 252.062044 -45.29875 
L 251.450749 -45.29875 
L 250.839455 -45.29875 
L 250.22816 -45.29875 
L 249.616865 -45.29875 
L 249.00557 -45.29875 
L 248.394276 -45.29875 
L 247.782981 -45.29875 
L 247.171686 -45.29875 
L 246.560391 -45.29875 
L 245.949097 -45.29875 
L 245.337802 -45.29875 
L 244.726507 -45.29875 
L 244.115212 -45.29875 
L 243.503918 -45.29875 
L 242.892623 -45.29875 
L 242.281328 -45.29875 
L 241.670033 -45.29875 
L 241.058739 -45.29875 
L 240.447444 -45.29875 
L 239.836149 -45.29875 
L 239.224854 -45.29875 
L 238.61356 -45.29875 
L 238.002265 -45.29875 
L 237.39097 -45.29875 
L 236.779675 -45.29875 
L 236.168381 -45.29875 
L 235.557086 -45.29875 
L 234.945791 -45.29875 
L 234.334496 -45.29875 
L 233.723202 -45.29875 
L 233.111907 -45.29875 
L 232.500612 -45.29875 
L 231.889317 -45.29875 
L 231.278023 -45.29875 
L 230.666728 -45.29875 
L 230.055433 -45.29875 
L 229.444138 -45.29875 
L 228.832844 -45.29875 
L 228.221549 -45.29875 
L 227.610254 -45.29875 
L 226.998959 -45.29875 
L 226.387665 -45.29875 
L 225.77637 -45.29875 
L 225.165075 -45.29875 
L 224.55378 -45.29875 
L 223.942486 -45.29875 
L 223.331191 -45.29875 
L 222.719896 -45.29875 
L 222.108601 -45.29875 
L 221.497307 -45.29875 
L 220.886012 -45.29875 
L 220.274717 -45.29875 
L 219.663422 -45.29875 
L 219.052128 -45.29875 
L 218.440833 -45.29875 
L 217.829538 -45.29875 
L 217.218243 -45.29875 
L 216.606949 -45.29875 
L 215.995654 -45.29875 
L 215.384359 -45.29875 
L 214.773064 -45.29875 
L 214.16177 -45.29875 
L 213.550475 -45.29875 
L 212.93918 -45.29875 
L 212.327885 -45.29875 
L 211.716591 -45.29875 
L 211.105296 -45.29875 
L 210.494001 -45.29875 
L 209.882706 -45.29875 
L 209.271412 -45.29875 
L 208.660117 -45.29875 
L 208.048822 -45.29875 
L 207.437527 -45.29875 
L 206.826233 -45.29875 
L 206.214938 -45.29875 
L 205.603643 -45.29875 
L 204.992348 -45.29875 
L 204.381054 -45.29875 
L 203.769759 -45.29875 
L 203.158464 -45.29875 
L 202.547169 -45.29875 
L 201.935875 -45.29875 
L 201.32458 -45.29875 
L 200.713285 -45.29875 
L 200.10199 -45.29875 
L 199.490696 -45.29875 
L 198.879401 -45.29875 
L 198.268106 -45.29875 
L 197.656811 -45.29875 
L 197.045517 -45.29875 
L 196.434222 -45.29875 
L 195.822927 -45.29875 
L 195.211632 -45.29875 
L 194.600338 -45.29875 
L 193.989043 -45.29875 
L 193.377748 -45.29875 
L 192.766453 -45.29875 
L 192.155159 -45.29875 
L 191.543864 -45.29875 
L 190.932569 -45.29875 
L 190.321274 -45.29875 
L 189.70998 -45.29875 
L 189.098685 -45.29875 
L 188.48739 -45.29875 
L 187.876095 -45.29875 
L 187.264801 -45.29875 
L 186.653506 -45.29875 
L 186.042211 -45.29875 
L 185.430916 -45.29875 
L 184.819622 -45.29875 
L 184.208327 -45.29875 
L 183.597032 -45.29875 
L 182.985737 -45.29875 
L 182.374443 -45.29875 
L 181.763148 -45.29875 
L 181.151853 -45.29875 
L 180.540558 -45.29875 
L 179.929264 -45.29875 
L 179.317969 -45.29875 
L 178.706674 -45.29875 
L 178.095379 -45.29875 
L 177.484085 -45.29875 
L 176.87279 -45.29875 
L 176.261495 -45.29875 
L 175.6502 -45.29875 
L 175.038906 -45.29875 
L 174.427611 -45.29875 
L 173.816316 -45.29875 
L 173.205021 -45.29875 
L 172.593727 -45.29875 
L 171.982432 -45.29875 
L 171.371137 -45.29875 
L 170.759842 -45.29875 
L 170.148548 -45.29875 
L 169.537253 -45.29875 
L 168.925958 -45.29875 
L 168.314663 -45.29875 
L 167.703369 -45.29875 
L 167.092074 -45.29875 
L 166.480779 -45.29875 
L 165.869484 -45.29875 
L 165.25819 -45.29875 
L 164.646895 -45.29875 
L 164.0356 -45.29875 
L 163.424305 -45.29875 
L 162.813011 -45.29875 
L 162.201716 -45.29875 
L 161.590421 -45.29875 
L 160.979126 -45.29875 
L 160.367832 -45.29875 
L 159.756537 -45.29875 
L 159.145242 -45.29875 
L 158.533947 -45.29875 
L 157.922653 -45.29875 
L 157.311358 -45.29875 
L 156.700063 -45.29875 
L 156.088768 -45.29875 
L 155.477474 -45.29875 
L 154.866179 -45.29875 
L 154.254884 -45.29875 
L 153.643589 -45.29875 
L 153.032294 -45.29875 
L 152.421 -45.29875 
L 151.809705 -45.29875 
L 151.19841 -45.29875 
L 150.587115 -45.29875 
L 149.975821 -45.29875 
L 149.364526 -45.29875 
L 148.753231 -45.29875 
L 148.141936 -45.29875 
L 147.530642 -45.29875 
L 146.919347 -45.29875 
L 146.308052 -45.29875 
L 145.696757 -45.29875 
L 145.085463 -45.29875 
L 144.474168 -45.29875 
L 143.862873 -45.29875 
L 143.251578 -45.29875 
L 142.640284 -45.29875 
L 142.028989 -45.29875 
L 141.417694 -45.29875 
L 140.806399 -45.29875 
L 140.195105 -45.29875 
L 139.58381 -45.29875 
L 138.972515 -45.29875 
L 138.36122 -45.29875 
L 137.749926 -45.29875 
L 137.138631 -45.29875 
L 136.527336 -45.29875 
L 135.916041 -45.29875 
L 135.304747 -45.29875 
L 134.693452 -45.29875 
L 134.082157 -45.29875 
L 133.470862 -45.29875 
L 132.859568 -45.29875 
L 132.248273 -45.29875 
L 131.636978 -45.29875 
L 131.025683 -45.29875 
L 130.414389 -45.29875 
L 129.803094 -45.29875 
L 129.191799 -45.29875 
L 128.580504 -45.29875 
L 127.96921 -45.29875 
L 127.357915 -45.29875 
L 126.74662 -45.29875 
L 126.135325 -45.29875 
L 125.524031 -45.29875 
L 124.912736 -45.29875 
L 124.301441 -45.29875 
L 123.690146 -45.29875 
L 123.078852 -45.29875 
L 122.467557 -45.29875 
L 121.856262 -45.29875 
L 121.244967 -45.29875 
L 120.633673 -45.29875 
L 120.022378 -45.29875 
L 119.411083 -45.29875 
L 118.799788 -45.29875 
L 118.188494 -45.29875 
L 117.577199 -45.29875 
L 116.965904 -45.29875 
L 116.354609 -45.29875 
L 115.743315 -45.29875 
L 115.13202 -45.29875 
L 114.520725 -45.29875 
L 113.90943 -45.29875 
L 113.298136 -45.29875 
L 112.686841 -45.29875 
L 112.075546 -45.29875 
L 111.464251 -45.29875 
L 110.852957 -45.29875 
L 110.241662 -45.29875 
L 109.630367 -45.29875 
L 109.019072 -45.29875 
L 108.407778 -45.29875 
L 107.796483 -45.29875 
L 107.185188 -45.29875 
L 106.573893 -45.29875 
L 105.962599 -45.29875 
L 105.351304 -45.29875 
L 104.740009 -45.29875 
L 104.128714 -45.29875 
L 103.51742 -45.29875 
L 102.906125 -45.29875 
L 102.29483 -45.29875 
L 101.683535 -45.29875 
L 101.072241 -45.29875 
L 100.460946 -45.29875 
L 99.849651 -45.29875 
L 99.238356 -45.29875 
L 98.627062 -45.29875 
L 98.015767 -45.29875 
L 97.404472 -45.29875 
L 96.793177 -45.29875 
L 96.181883 -45.29875 
L 95.570588 -45.29875 
L 94.959293 -45.29875 
L 94.347998 -45.29875 
L 93.736704 -45.29875 
L 93.125409 -45.29875 
L 92.514114 -45.29875 
L 91.902819 -45.29875 
L 91.291525 -45.29875 
L 90.68023 -45.29875 
L 90.068935 -45.29875 
L 89.45764 -45.29875 
L 88.846346 -45.29875 
L 88.235051 -45.29875 
L 87.623756 -45.29875 
L 87.012461 -45.29875 
L 86.401167 -45.29875 
L 85.789872 -45.29875 
L 85.178577 -45.29875 
L 84.567282 -45.29875 
L 83.955988 -45.29875 
L 83.344693 -45.29875 
L 82.733398 -45.29875 
L 82.122103 -45.29875 
L 81.510809 -45.29875 
L 80.899514 -45.29875 
L 80.288219 -45.29875 
L 79.676924 -45.29875 
L 79.06563 -45.29875 
L 78.454335 -45.29875 
L 77.84304 -45.29875 
L 77.231745 -45.29875 
L 76.620451 -45.29875 
L 76.009156 -45.29875 
L 75.397861 -45.29875 
L 74.786566 -45.29875 
L 74.175272 -45.29875 
L 73.563977 -45.29875 
L 72.952682 -45.29875 
L 72.341387 -45.29875 
L 71.730093 -45.29875 
L 71.118798 -45.29875 
L 70.507503 -45.29875 
L 69.896208 -45.29875 
L 69.284914 -45.29875 
L 68.673619 -45.29875 
L 68.062324 -45.29875 
L 67.451029 -45.29875 
L 66.839735 -45.29875 
L 66.22844 -45.29875 
L 65.617145 -45.29875 
L 65.00585 -45.29875 
L 64.394556 -45.29875 
L 63.783261 -45.29875 
L 63.171966 -45.29875 
L 62.560671 -45.29875 
L 61.949377 -45.29875 
L 61.338082 -45.29875 
L 60.726787 -45.29875 
L 60.115492 -45.29875 
L 59.504198 -45.29875 
L 58.892903 -45.29875 
L 58.281608 -45.29875 
L 57.670313 -45.29875 
L 57.059019 -45.29875 
L 56.447724 -45.29875 
L 55.836429 -45.29875 
L 55.225134 -45.29875 
L 54.61384 -45.29875 
L 54.002545 -45.29875 
L 53.39125 -45.29875 
z
" style="stroke: #58b8a7; stroke-opacity: 0.22"/>
    </defs>
    <g clip-path="url(#pec5f3925a1)">
     <use xlink:href="#md6893f09a2" x="0" y="317.866367" style="fill: #58b8a7; fill-opacity: 0.22; stroke: #58b8a7; stroke-opacity: 0.22"/>
    </g>
   </g>
   <g id="matplotlib.axis_1">
    <g id="xtick_1">
     <g id="line2d_1">
      <defs>
       <path id="m7690c96e8b" d="M 0 0 
L 0 3.5 
" style="stroke: #2f7e79; stroke-width: 0.8"/>
      </defs>
      <g>
       <use xlink:href="#m7690c96e8b" x="53.39125" y="272.567617" style="fill: #2f7e79; stroke: #2f7e79; stroke-width: 0.8"/>
      </g>
     </g>
     <g id="text_1">
      <!-- 0 -->
      <g style="fill: #2f7e79" transform="translate(49.255625 289.445585) scale(0.13 -0.13)">
       <defs>
        <path id="DejaVuSans-30" d="M 2034 4250 
Q 1547 4250 1301 3770 
Q 1056 3291 1056 2328 
Q 1056 1369 1301 889 
Q 1547 409 2034 409 
Q 2525 409 2770 889 
Q 3016 1369 3016 2328 
Q 3016 3291 2770 3770 
Q 2525 4250 2034 4250 
z
M 2034 4750 
Q 2819 4750 3233 4129 
Q 3647 3509 3647 2328 
Q 3647 1150 3233 529 
Q 2819 -91 2034 -91 
Q 1250 -91 836 529 
Q 422 1150 422 2328 
Q 422 3509 836 4129 
Q 1250 4750 2034 4750 
z
" transform="scale(0.015625)"/>
       </defs>
       <use xlink:href="#DejaVuSans-30"/>
      </g>
     </g>
    </g>
    <g id="xtick_2">
     <g id="line2d_2">
      <g>
       <use xlink:href="#m7690c96e8b" x="114.520725" y="272.567617" style="fill: #2f7e79; stroke: #2f7e79; stroke-width: 0.8"/>
      </g>
     </g>
     <g id="text_2">
      <!-- 1 -->
      <g style="fill: #2f7e79" transform="translate(110.3851 289.445585) scale(0.13 -0.13)">
       <defs>
        <path id="DejaVuSans-31" d="M 794 531 
L 1825 531 
L 1825 4091 
L 703 3866 
L 703 4441 
L 1819 4666 
L 2450 4666 
L 2450 531 
L 3481 531 
L 3481 0 
L 794 0 
L 794 531 
z
" transform="scale(0.015625)"/>
       </defs>
       <use xlink:href="#DejaVuSans-31"/>
      </g>
     </g>
    </g>
    <g id="xtick_3">
     <g id="line2d_3">
      <g>
       <use xlink:href="#m7690c96e8b" x="175.6502" y="272.567617" style="fill: #2f7e79; stroke: #2f7e79; stroke-width: 0.8"/>
      </g>
     </g>
     <g id="text_3">
      <!-- 2 -->
      <g style="fill: #2f7e79" transform="translate(171.514575 289.445585) scale(0.13 -0.13)">
       <defs>
        <path id="DejaVuSans-32" d="M 1228 531 
L 3431 531 
L 3431 0 
L 469 0 
L 469 531 
Q 828 903 1448 1529 
Q 2069 2156 2228 2338 
Q 2531 2678 2651 2914 
Q 2772 3150 2772 3378 
Q 2772 3750 2511 3984 
Q 2250 4219 1831 4219 
Q 1534 4219 1204 4116 
Q 875 4013 500 3803 
L 500 4441 
Q 881 4594 1212 4672 
Q 1544 4750 1819 4750 
Q 2544 4750 2975 4387 
Q 3406 4025 3406 3419 
Q 3406 3131 3298 2873 
Q 3191 2616 2906 2266 
Q 2828 2175 2409 1742 
Q 1991 1309 1228 531 
z
" transform="scale(0.015625)"/>
       </defs>
       <use xlink:href="#DejaVuSans-32"/>
      </g>
     </g>
    </g>
    <g id="xtick_4">
     <g id="line2d_4">
      <g>
       <use xlink:href="#m7690c96e8b" x="236.779675" y="272.567617" style="fill: #2f7e79; stroke: #2f7e79; stroke-width: 0.8"/>
      </g>
     </g>
     <g id="text_4">
      <!-- 3 -->
      <g style="fill: #2f7e79" transform="translate(232.64405 289.445585) scale(0.13 -0.13)">
       <defs>
        <path id="DejaVuSans-33" d="M 2597 2516 
Q 3050 2419 3304 2112 
Q 3559 1806 3559 1356 
Q 3559 666 3084 287 
Q 2609 -91 1734 -91 
Q 1441 -91 1130 -33 
Q 819 25 488 141 
L 488 750 
Q 750 597 1062 519 
Q 1375 441 1716 441 
Q 2309 441 2620 675 
Q 2931 909 2931 1356 
Q 2931 1769 2642 2001 
Q 2353 2234 1838 2234 
L 1294 2234 
L 1294 2753 
L 1863 2753 
Q 2328 2753 2575 2939 
Q 2822 3125 2822 3475 
Q 2822 3834 2567 4026 
Q 2313 4219 1838 4219 
Q 1578 4219 1281 4162 
Q 984 4106 628 3988 
L 628 4550 
Q 988 4650 1302 4700 
Q 1616 4750 1894 4750 
Q 2613 4750 3031 4423 
Q 3450 4097 3450 3541 
Q 3450 3153 3228 2886 
Q 3006 2619 2597 2516 
z
" transform="scale(0.015625)"/>
       </defs>
       <use xlink:href="#DejaVuSans-33"/>
      </g>
     </g>
    </g>
    <g id="xtick_5">
     <g id="line2d_5">
      <g>
       <use xlink:href="#m7690c96e8b" x="297.909151" y="272.567617" style="fill: #2f7e79; stroke: #2f7e79; stroke-width: 0.8"/>
      </g>
     </g>
     <g id="text_5">
      <!-- 4 -->
      <g style="fill: #2f7e79" transform="translate(293.773526 289.445585) scale(0.13 -0.13)">
       <defs>
        <path id="DejaVuSans-34" d="M 2419 4116 
L 825 1625 
L 2419 1625 
L 2419 4116 
z
M 2253 4666 
L 3047 4666 
L 3047 1625 
L 3713 1625 
L 3713 1100 
L 3047 1100 
L 3047 0 
L 2419 0 
L 2419 1100 
L 313 1100 
L 313 1709 
L 2253 4666 
z
" transform="scale(0.015625)"/>
       </defs>
       <use xlink:href="#DejaVuSans-34"/>
      </g>
     </g>
    </g>
    <g id="xtick_6">
     <g id="line2d_6">
      <g>
       <use xlink:href="#m7690c96e8b" x="359.038626" y="272.567617" style="fill: #2f7e79; stroke: #2f7e79; stroke-width: 0.8"/>
      </g>
     </g>
     <g id="text_6">
      <!-- 5 -->
      <g style="fill: #2f7e79" transform="translate(354.903001 289.445585) scale(0.13 -0.13)">
       <defs>
        <path id="DejaVuSans-35" d="M 691 4666 
L 3169 4666 
L 3169 4134 
L 1269 4134 
L 1269 2991 
Q 1406 3038 1543 3061 
Q 1681 3084 1819 3084 
Q 2600 3084 3056 2656 
Q 3513 2228 3513 1497 
Q 3513 744 3044 326 
Q 2575 -91 1722 -91 
Q 1428 -91 1123 -41 
Q 819 9 494 109 
L 494 744 
Q 775 591 1075 516 
Q 1375 441 1709 441 
Q 2250 441 2565 725 
Q 2881 1009 2881 1497 
Q 2881 1984 2565 2268 
Q 2250 2553 1709 2553 
Q 1456 2553 1204 2497 
Q 953 2441 691 2322 
L 691 4666 
z
" transform="scale(0.015625)"/>
       </defs>
       <use xlink:href="#DejaVuSans-35"/>
      </g>
     </g>
    </g>
    <g id="xtick_7">
     <g id="line2d_7">
      <g>
       <use xlink:href="#m7690c96e8b" x="420.168101" y="272.567617" style="fill: #2f7e79; stroke: #2f7e79; stroke-width: 0.8"/>
      </g>
     </g>
     <g id="text_7">
      <!-- 6 -->
      <g style="fill: #2f7e79" transform="translate(416.032476 289.445585) scale(0.13 -0.13)">
       <defs>
        <path id="DejaVuSans-36" d="M 2113 2584 
Q 1688 2584 1439 2293 
Q 1191 2003 1191 1497 
Q 1191 994 1439 701 
Q 1688 409 2113 409 
Q 2538 409 2786 701 
Q 3034 994 3034 1497 
Q 3034 2003 2786 2293 
Q 2538 2584 2113 2584 
z
M 3366 4563 
L 3366 3988 
Q 3128 4100 2886 4159 
Q 2644 4219 2406 4219 
Q 1781 4219 1451 3797 
Q 1122 3375 1075 2522 
Q 1259 2794 1537 2939 
Q 1816 3084 2150 3084 
Q 2853 3084 3261 2657 
Q 3669 2231 3669 1497 
Q 3669 778 3244 343 
Q 2819 -91 2113 -91 
Q 1303 -91 875 529 
Q 447 1150 447 2328 
Q 447 3434 972 4092 
Q 1497 4750 2381 4750 
Q 2619 4750 2861 4703 
Q 3103 4656 3366 4563 
z
" transform="scale(0.015625)"/>
       </defs>
       <use xlink:href="#DejaVuSans-36"/>
      </g>
     </g>
    </g>
    <g id="text_8">
     <!-- state x -->
     <g style="fill: #12343b" transform="translate(210.958582 307.546835) scale(0.15 -0.15)">
      <defs>
       <path id="DejaVuSans-73" d="M 2834 3397 
L 2834 2853 
Q 2591 2978 2328 3040 
Q 2066 3103 1784 3103 
Q 1356 3103 1142 2972 
Q 928 2841 928 2578 
Q 928 2378 1081 2264 
Q 1234 2150 1697 2047 
L 1894 2003 
Q 2506 1872 2764 1633 
Q 3022 1394 3022 966 
Q 3022 478 2636 193 
Q 2250 -91 1575 -91 
Q 1294 -91 989 -36 
Q 684 19 347 128 
L 347 722 
Q 666 556 975 473 
Q 1284 391 1588 391 
Q 1994 391 2212 530 
Q 2431 669 2431 922 
Q 2431 1156 2273 1281 
Q 2116 1406 1581 1522 
L 1381 1569 
Q 847 1681 609 1914 
Q 372 2147 372 2553 
Q 372 3047 722 3315 
Q 1072 3584 1716 3584 
Q 2034 3584 2315 3537 
Q 2597 3491 2834 3397 
z
" transform="scale(0.015625)"/>
       <path id="DejaVuSans-74" d="M 1172 4494 
L 1172 3500 
L 2356 3500 
L 2356 3053 
L 1172 3053 
L 1172 1153 
Q 1172 725 1289 603 
Q 1406 481 1766 481 
L 2356 481 
L 2356 0 
L 1766 0 
Q 1100 0 847 248 
Q 594 497 594 1153 
L 594 3053 
L 172 3053 
L 172 3500 
L 594 3500 
L 594 4494 
L 1172 4494 
z
" transform="scale(0.015625)"/>
       <path id="DejaVuSans-61" d="M 2194 1759 
Q 1497 1759 1228 1600 
Q 959 1441 959 1056 
Q 959 750 1161 570 
Q 1363 391 1709 391 
Q 2188 391 2477 730 
Q 2766 1069 2766 1631 
L 2766 1759 
L 2194 1759 
z
M 3341 1997 
L 3341 0 
L 2766 0 
L 2766 531 
Q 2569 213 2275 61 
Q 1981 -91 1556 -91 
Q 1019 -91 701 211 
Q 384 513 384 1019 
Q 384 1609 779 1909 
Q 1175 2209 1959 2209 
L 2766 2209 
L 2766 2266 
Q 2766 2663 2505 2880 
Q 2244 3097 1772 3097 
Q 1472 3097 1187 3025 
Q 903 2953 641 2809 
L 641 3341 
Q 956 3463 1253 3523 
Q 1550 3584 1831 3584 
Q 2591 3584 2966 3190 
Q 3341 2797 3341 1997 
z
" transform="scale(0.015625)"/>
       <path id="DejaVuSans-65" d="M 3597 1894 
L 3597 1613 
L 953 1613 
Q 991 1019 1311 708 
Q 1631 397 2203 397 
Q 2534 397 2845 478 
Q 3156 559 3463 722 
L 3463 178 
Q 3153 47 2828 -22 
Q 2503 -91 2169 -91 
Q 1331 -91 842 396 
Q 353 884 353 1716 
Q 353 2575 817 3079 
Q 1281 3584 2069 3584 
Q 2775 3584 3186 3129 
Q 3597 2675 3597 1894 
z
M 3022 2063 
Q 3016 2534 2758 2815 
Q 2500 3097 2075 3097 
Q 1594 3097 1305 2825 
Q 1016 2553 972 2059 
L 3022 2063 
z
" transform="scale(0.015625)"/>
       <path id="DejaVuSans-20" transform="scale(0.015625)"/>
       <path id="DejaVuSans-78" d="M 3513 3500 
L 2247 1797 
L 3578 0 
L 2900 0 
L 1881 1375 
L 863 0 
L 184 0 
L 1544 1831 
L 300 3500 
L 978 3500 
L 1906 2253 
L 2834 3500 
L 3513 3500 
z
" transform="scale(0.015625)"/>
      </defs>
      <use xlink:href="#DejaVuSans-73"/>
      <use xlink:href="#DejaVuSans-74" x="52.099609"/>
      <use xlink:href="#DejaVuSans-61" x="91.308594"/>
      <use xlink:href="#DejaVuSans-74" x="152.587891"/>
      <use xlink:href="#DejaVuSans-65" x="191.796875"/>
      <use xlink:href="#DejaVuSans-20" x="253.320312"/>
      <use xlink:href="#DejaVuSans-78" x="285.107422"/>
     </g>
    </g>
   </g>
   <g id="matplotlib.axis_2">
    <g id="ytick_1">
     <g id="line2d_8">
      <defs>
       <path id="m6641f5e289" d="M 0 0 
L -3.5 0 
" style="stroke: #2f7e79; stroke-width: 0.8"/>
      </defs>
      <g>
       <use xlink:href="#m6641f5e289" x="53.39125" y="272.567617" style="fill: #2f7e79; stroke: #2f7e79; stroke-width: 0.8"/>
      </g>
     </g>
     <g id="text_9">
      <!-- 0.0 -->
      <g style="fill: #2f7e79" transform="translate(25.717187 277.506601) scale(0.13 -0.13)">
       <defs>
        <path id="DejaVuSans-2e" d="M 684 794 
L 1344 794 
L 1344 0 
L 684 0 
L 684 794 
z
" transform="scale(0.015625)"/>
       </defs>
       <use xlink:href="#DejaVuSans-30"/>
       <use xlink:href="#DejaVuSans-2e" x="63.623047"/>
       <use xlink:href="#DejaVuSans-30" x="95.410156"/>
      </g>
     </g>
    </g>
    <g id="ytick_2">
     <g id="line2d_9">
      <g>
       <use xlink:href="#m6641f5e289" x="53.39125" y="241.34361" style="fill: #2f7e79; stroke: #2f7e79; stroke-width: 0.8"/>
      </g>
     </g>
     <g id="text_10">
      <!-- 0.1 -->
      <g style="fill: #2f7e79" transform="translate(25.717187 246.282594) scale(0.13 -0.13)">
       <use xlink:href="#DejaVuSans-30"/>
       <use xlink:href="#DejaVuSans-2e" x="63.623047"/>
       <use xlink:href="#DejaVuSans-31" x="95.410156"/>
      </g>
     </g>
    </g>
    <g id="ytick_3">
     <g id="line2d_10">
      <g>
       <use xlink:href="#m6641f5e289" x="53.39125" y="210.119603" style="fill: #2f7e79; stroke: #2f7e79; stroke-width: 0.8"/>
      </g>
     </g>
     <g id="text_11">
      <!-- 0.2 -->
      <g style="fill: #2f7e79" transform="translate(25.717187 215.058587) scale(0.13 -0.13)">
       <use xlink:href="#DejaVuSans-30"/>
       <use xlink:href="#DejaVuSans-2e" x="63.623047"/>
       <use xlink:href="#DejaVuSans-32" x="95.410156"/>
      </g>
     </g>
    </g>
    <g id="ytick_4">
     <g id="line2d_11">
      <g>
       <use xlink:href="#m6641f5e289" x="53.39125" y="178.895596" style="fill: #2f7e79; stroke: #2f7e79; stroke-width: 0.8"/>
      </g>
     </g>
     <g id="text_12">
      <!-- 0.3 -->
      <g style="fill: #2f7e79" transform="translate(25.717187 183.83458) scale(0.13 -0.13)">
       <use xlink:href="#DejaVuSans-30"/>
       <use xlink:href="#DejaVuSans-2e" x="63.623047"/>
       <use xlink:href="#DejaVuSans-33" x="95.410156"/>
      </g>
     </g>
    </g>
    <g id="ytick_5">
     <g id="line2d_12">
      <g>
       <use xlink:href="#m6641f5e289" x="53.39125" y="147.671589" style="fill: #2f7e79; stroke: #2f7e79; stroke-width: 0.8"/>
      </g>
     </g>
     <g id="text_13">
      <!-- 0.4 -->
      <g style="fill: #2f7e79" transform="translate(25.717187 152.610573) scale(0.13 -0.13)">
       <use xlink:href="#DejaVuSans-30"/>
       <use xlink:href="#DejaVuSans-2e" x="63.623047"/>
       <use xlink:href="#DejaVuSans-34" x="95.410156"/>
      </g>
     </g>
    </g>
    <g id="ytick_6">
     <g id="line2d_13">
      <g>
       <use xlink:href="#m6641f5e289" x="53.39125" y="116.447582" style="fill: #2f7e79; stroke: #2f7e79; stroke-width: 0.8"/>
      </g>
     </g>
     <g id="text_14">
      <!-- 0.5 -->
      <g style="fill: #2f7e79" transform="translate(25.717187 121.386566) scale(0.13 -0.13)">
       <use xlink:href="#DejaVuSans-30"/>
       <use xlink:href="#DejaVuSans-2e" x="63.623047"/>
       <use xlink:href="#DejaVuSans-35" x="95.410156"/>
      </g>
     </g>
    </g>
    <g id="ytick_7">
     <g id="line2d_14">
      <g>
       <use xlink:href="#m6641f5e289" x="53.39125" y="85.223575" style="fill: #2f7e79; stroke: #2f7e79; stroke-width: 0.8"/>
      </g>
     </g>
     <g id="text_15">
      <!-- 0.6 -->
      <g style="fill: #2f7e79" transform="translate(25.717187 90.162559) scale(0.13 -0.13)">
       <use xlink:href="#DejaVuSans-30"/>
       <use xlink:href="#DejaVuSans-2e" x="63.623047"/>
       <use xlink:href="#DejaVuSans-36" x="95.410156"/>
      </g>
     </g>
    </g>
    <g id="ytick_8">
     <g id="line2d_15">
      <g>
       <use xlink:href="#m6641f5e289" x="53.39125" y="53.999568" style="fill: #2f7e79; stroke: #2f7e79; stroke-width: 0.8"/>
      </g>
     </g>
     <g id="text_16">
      <!-- 0.7 -->
      <g style="fill: #2f7e79" transform="translate(25.717187 58.938552) scale(0.13 -0.13)">
       <defs>
        <path id="DejaVuSans-37" d="M 525 4666 
L 3525 4666 
L 3525 4397 
L 1831 0 
L 1172 0 
L 2766 4134 
L 525 4134 
L 525 4666 
z
" transform="scale(0.015625)"/>
       </defs>
       <use xlink:href="#DejaVuSans-30"/>
       <use xlink:href="#DejaVuSans-2e" x="63.623047"/>
       <use xlink:href="#DejaVuSans-37" x="95.410156"/>
      </g>
     </g>
    </g>
    <g id="text_17">
     <!-- probability -->
     <g style="fill: #12343b" transform="translate(18.597656 189.736074) rotate(-90) scale(0.15 -0.15)">
      <defs>
       <path id="DejaVuSans-70" d="M 1159 525 
L 1159 -1331 
L 581 -1331 
L 581 3500 
L 1159 3500 
L 1159 2969 
Q 1341 3281 1617 3432 
Q 1894 3584 2278 3584 
Q 2916 3584 3314 3078 
Q 3713 2572 3713 1747 
Q 3713 922 3314 415 
Q 2916 -91 2278 -91 
Q 1894 -91 1617 61 
Q 1341 213 1159 525 
z
M 3116 1747 
Q 3116 2381 2855 2742 
Q 2594 3103 2138 3103 
Q 1681 3103 1420 2742 
Q 1159 2381 1159 1747 
Q 1159 1113 1420 752 
Q 1681 391 2138 391 
Q 2594 391 2855 752 
Q 3116 1113 3116 1747 
z
" transform="scale(0.015625)"/>
       <path id="DejaVuSans-72" d="M 2631 2963 
Q 2534 3019 2420 3045 
Q 2306 3072 2169 3072 
Q 1681 3072 1420 2755 
Q 1159 2438 1159 1844 
L 1159 0 
L 581 0 
L 581 3500 
L 1159 3500 
L 1159 2956 
Q 1341 3275 1631 3429 
Q 1922 3584 2338 3584 
Q 2397 3584 2469 3576 
Q 2541 3569 2628 3553 
L 2631 2963 
z
" transform="scale(0.015625)"/>
       <path id="DejaVuSans-6f" d="M 1959 3097 
Q 1497 3097 1228 2736 
Q 959 2375 959 1747 
Q 959 1119 1226 758 
Q 1494 397 1959 397 
Q 2419 397 2687 759 
Q 2956 1122 2956 1747 
Q 2956 2369 2687 2733 
Q 2419 3097 1959 3097 
z
M 1959 3584 
Q 2709 3584 3137 3096 
Q 3566 2609 3566 1747 
Q 3566 888 3137 398 
Q 2709 -91 1959 -91 
Q 1206 -91 779 398 
Q 353 888 353 1747 
Q 353 2609 779 3096 
Q 1206 3584 1959 3584 
z
" transform="scale(0.015625)"/>
       <path id="DejaVuSans-62" d="M 3116 1747 
Q 3116 2381 2855 2742 
Q 2594 3103 2138 3103 
Q 1681 3103 1420 2742 
Q 1159 2381 1159 1747 
Q 1159 1113 1420 752 
Q 1681 391 2138 391 
Q 2594 391 2855 752 
Q 3116 1113 3116 1747 
z
M 1159 2969 
Q 1341 3281 1617 3432 
Q 1894 3584 2278 3584 
Q 2916 3584 3314 3078 
Q 3713 2572 3713 1747 
Q 3713 922 3314 415 
Q 2916 -91 2278 -91 
Q 1894 -91 1617 61 
Q 1341 213 1159 525 
L 1159 0 
L 581 0 
L 581 4863 
L 1159 4863 
L 1159 2969 
z
" transform="scale(0.015625)"/>
       <path id="DejaVuSans-69" d="M 603 3500 
L 1178 3500 
L 1178 0 
L 603 0 
L 603 3500 
z
M 603 4863 
L 1178 4863 
L 1178 4134 
L 603 4134 
L 603 4863 
z
" transform="scale(0.015625)"/>
       <path id="DejaVuSans-6c" d="M 603 4863 
L 1178 4863 
L 1178 0 
L 603 0 
L 603 4863 
z
" transform="scale(0.015625)"/>
       <path id="DejaVuSans-79" d="M 2059 -325 
Q 1816 -950 1584 -1140 
Q 1353 -1331 966 -1331 
L 506 -1331 
L 506 -850 
L 844 -850 
Q 1081 -850 1212 -737 
Q 1344 -625 1503 -206 
L 1606 56 
L 191 3500 
L 800 3500 
L 1894 763 
L 2988 3500 
L 3597 3500 
L 2059 -325 
z
" transform="scale(0.015625)"/>
      </defs>
      <use xlink:href="#DejaVuSans-70"/>
      <use xlink:href="#DejaVuSans-72" x="63.476562"/>
      <use xlink:href="#DejaVuSans-6f" x="102.339844"/>
      <use xlink:href="#DejaVuSans-62" x="163.521484"/>
      <use xlink:href="#DejaVuSans-61" x="226.998047"/>
      <use xlink:href="#DejaVuSans-62" x="288.277344"/>
      <use xlink:href="#DejaVuSans-69" x="351.753906"/>
      <use xlink:href="#DejaVuSans-6c" x="379.537109"/>
      <use xlink:href="#DejaVuSans-69" x="407.320312"/>
      <use xlink:href="#DejaVuSans-74" x="435.103516"/>
      <use xlink:href="#DejaVuSans-79" x="474.3125"/>
     </g>
    </g>
   </g>
   <g id="line2d_16">
    <path d="M 53.39125 272.545685 
L 66.839735 272.387136 
L 73.563977 272.100497 
L 78.454335 271.674147 
L 82.122103 271.148631 
L 85.178577 270.513511 
L 88.235051 269.635964 
L 90.68023 268.710411 
L 93.125409 267.538475 
L 95.570588 266.069675 
L 97.404472 264.739592 
L 99.238356 263.185242 
L 101.072241 261.379484 
L 102.906125 259.29408 
L 104.740009 256.900109 
L 106.573893 254.16848 
L 108.407778 251.07055 
L 110.241662 247.578828 
L 112.075546 243.667775 
L 113.90943 239.314683 
L 115.743315 234.500609 
L 118.188494 227.341036 
L 120.633673 219.320054 
L 123.078852 210.442575 
L 125.524031 200.739465 
L 128.580504 187.543799 
L 131.636978 173.340105 
L 135.916041 152.279928 
L 143.862873 112.810892 
L 146.919347 98.874162 
L 149.364526 88.738692 
L 151.19841 81.888352 
L 153.032294 75.788346 
L 154.866179 70.525486 
L 156.088768 67.520181 
L 157.311358 64.940768 
L 158.533947 62.804233 
L 159.756537 61.124711 
L 160.979126 59.913334 
L 162.201716 59.178096 
L 162.813011 58.990647 
L 163.424305 58.923765 
L 164.0356 58.977533 
L 164.646895 59.151826 
L 165.869484 59.860459 
L 167.092074 61.044558 
L 168.314663 62.695785 
L 169.537253 64.802659 
L 170.759842 67.350685 
L 171.982432 70.322504 
L 173.816316 75.53035 
L 175.6502 81.568365 
L 177.484085 88.34825 
L 179.929264 98.373817 
L 182.985737 112.141509 
L 187.264801 132.823834 
L 194.600338 168.589223 
L 197.656811 182.472303 
L 200.713285 195.282493 
L 203.158464 204.607081 
L 205.603643 213.023916 
L 208.048822 220.483919 
L 209.882706 225.436423 
L 211.716591 229.836471 
L 213.550475 233.689428 
L 215.384359 237.006063 
L 217.218243 239.801608 
L 219.052128 242.094857 
L 220.886012 243.907313 
L 222.108601 244.860023 
L 223.331191 245.616713 
L 224.55378 246.184823 
L 225.77637 246.571884 
L 226.998959 246.785456 
L 228.221549 246.833077 
L 229.444138 246.722213 
L 231.278023 246.27483 
L 233.111907 245.511654 
L 234.945791 244.456133 
L 236.779675 243.130828 
L 238.61356 241.557415 
L 241.058739 239.109482 
L 243.503918 236.304774 
L 245.949097 233.188796 
L 249.00557 228.923425 
L 252.673339 223.373999 
L 257.563697 215.485884 
L 269.178297 196.515 
L 272.846066 191.059524 
L 275.90254 186.909348 
L 278.347719 183.909602 
L 280.792898 181.238165 
L 283.238077 178.931291 
L 285.071961 177.4597 
L 286.905845 176.222731 
L 288.739729 175.230181 
L 290.573614 174.489969 
L 292.407498 174.008036 
L 294.241382 173.788269 
L 296.075266 173.832456 
L 297.909151 174.140261 
L 299.743035 174.709234 
L 301.576919 175.534843 
L 303.410803 176.610538 
L 305.244688 177.927835 
L 307.078572 179.476428 
L 309.523751 181.880069 
L 311.96893 184.64084 
L 314.414109 187.722069 
L 317.470583 191.963136 
L 321.138351 197.513412 
L 325.417414 204.435361 
L 341.922373 231.640631 
L 345.590141 237.082891 
L 349.25791 242.128956 
L 352.314383 245.999424 
L 355.370857 249.549438 
L 358.427331 252.772759 
L 361.483805 255.670745 
L 364.540279 258.251253 
L 367.596752 260.527475 
L 370.653226 262.516762 
L 373.7097 264.239499 
L 376.766174 265.718049 
L 379.822647 266.975812 
L 383.490416 268.226931 
L 387.158184 269.23399 
L 391.437248 270.150517 
L 395.716311 270.840402 
L 400.606669 271.41203 
L 406.719616 271.886842 
L 414.055153 272.220718 
L 420.168101 272.37619 
L 420.168101 272.37619 
" clip-path="url(#pec5f3925a1)" style="fill: none; stroke: #58b8a7; stroke-width: 3; stroke-linecap: square"/>
   </g>
   <g id="patch_3">
    <path d="M 53.39125 272.567617 
L 53.39125 26.877187 
" style="fill: none; stroke: #2f7e79; stroke-width: 0.8; stroke-linejoin: miter; stroke-linecap: square"/>
   </g>
   <g id="patch_4">
    <path d="M 53.39125 272.567617 
L 420.168101 272.567617 
" style="fill: none; stroke: #2f7e79; stroke-width: 0.8; stroke-linejoin: miter; stroke-linecap: square"/>
   </g>
   <g id="text_18">
    <!-- Full distribution view -->
    <g style="fill: #12343b" transform="translate(129.330925 20.877187) scale(0.18 -0.18)">
     <defs>
      <path id="DejaVuSans-Bold-46" d="M 588 4666 
L 3834 4666 
L 3834 3756 
L 1791 3756 
L 1791 2888 
L 3713 2888 
L 3713 1978 
L 1791 1978 
L 1791 0 
L 588 0 
L 588 4666 
z
" transform="scale(0.015625)"/>
      <path id="DejaVuSans-Bold-75" d="M 500 1363 
L 500 3500 
L 1625 3500 
L 1625 3150 
Q 1625 2866 1622 2436 
Q 1619 2006 1619 1863 
Q 1619 1441 1641 1255 
Q 1663 1069 1716 984 
Q 1784 875 1895 815 
Q 2006 756 2150 756 
Q 2500 756 2700 1025 
Q 2900 1294 2900 1772 
L 2900 3500 
L 4019 3500 
L 4019 0 
L 2900 0 
L 2900 506 
Q 2647 200 2364 54 
Q 2081 -91 1741 -91 
Q 1134 -91 817 281 
Q 500 653 500 1363 
z
" transform="scale(0.015625)"/>
      <path id="DejaVuSans-Bold-6c" d="M 538 4863 
L 1656 4863 
L 1656 0 
L 538 0 
L 538 4863 
z
" transform="scale(0.015625)"/>
      <path id="DejaVuSans-Bold-20" transform="scale(0.015625)"/>
      <path id="DejaVuSans-Bold-64" d="M 2919 2988 
L 2919 4863 
L 4044 4863 
L 4044 0 
L 2919 0 
L 2919 506 
Q 2688 197 2409 53 
Q 2131 -91 1766 -91 
Q 1119 -91 703 423 
Q 288 938 288 1747 
Q 288 2556 703 3070 
Q 1119 3584 1766 3584 
Q 2128 3584 2408 3439 
Q 2688 3294 2919 2988 
z
M 2181 722 
Q 2541 722 2730 984 
Q 2919 1247 2919 1747 
Q 2919 2247 2730 2509 
Q 2541 2772 2181 2772 
Q 1825 2772 1636 2509 
Q 1447 2247 1447 1747 
Q 1447 1247 1636 984 
Q 1825 722 2181 722 
z
" transform="scale(0.015625)"/>
      <path id="DejaVuSans-Bold-69" d="M 538 3500 
L 1656 3500 
L 1656 0 
L 538 0 
L 538 3500 
z
M 538 4863 
L 1656 4863 
L 1656 3950 
L 538 3950 
L 538 4863 
z
" transform="scale(0.015625)"/>
      <path id="DejaVuSans-Bold-73" d="M 3272 3391 
L 3272 2541 
Q 2913 2691 2578 2766 
Q 2244 2841 1947 2841 
Q 1628 2841 1473 2761 
Q 1319 2681 1319 2516 
Q 1319 2381 1436 2309 
Q 1553 2238 1856 2203 
L 2053 2175 
Q 2913 2066 3209 1816 
Q 3506 1566 3506 1031 
Q 3506 472 3093 190 
Q 2681 -91 1863 -91 
Q 1516 -91 1145 -36 
Q 775 19 384 128 
L 384 978 
Q 719 816 1070 734 
Q 1422 653 1784 653 
Q 2113 653 2278 743 
Q 2444 834 2444 1013 
Q 2444 1163 2330 1236 
Q 2216 1309 1875 1350 
L 1678 1375 
Q 931 1469 631 1722 
Q 331 1975 331 2491 
Q 331 3047 712 3315 
Q 1094 3584 1881 3584 
Q 2191 3584 2531 3537 
Q 2872 3491 3272 3391 
z
" transform="scale(0.015625)"/>
      <path id="DejaVuSans-Bold-74" d="M 1759 4494 
L 1759 3500 
L 2913 3500 
L 2913 2700 
L 1759 2700 
L 1759 1216 
Q 1759 972 1856 886 
Q 1953 800 2241 800 
L 2816 800 
L 2816 0 
L 1856 0 
Q 1194 0 917 276 
Q 641 553 641 1216 
L 641 2700 
L 84 2700 
L 84 3500 
L 641 3500 
L 641 4494 
L 1759 4494 
z
" transform="scale(0.015625)"/>
      <path id="DejaVuSans-Bold-72" d="M 3138 2547 
Q 2991 2616 2845 2648 
Q 2700 2681 2553 2681 
Q 2122 2681 1889 2404 
Q 1656 2128 1656 1613 
L 1656 0 
L 538 0 
L 538 3500 
L 1656 3500 
L 1656 2925 
Q 1872 3269 2151 3426 
Q 2431 3584 2822 3584 
Q 2878 3584 2943 3579 
Q 3009 3575 3134 3559 
L 3138 2547 
z
" transform="scale(0.015625)"/>
      <path id="DejaVuSans-Bold-62" d="M 2400 722 
Q 2759 722 2948 984 
Q 3138 1247 3138 1747 
Q 3138 2247 2948 2509 
Q 2759 2772 2400 2772 
Q 2041 2772 1848 2508 
Q 1656 2244 1656 1747 
Q 1656 1250 1848 986 
Q 2041 722 2400 722 
z
M 1656 2988 
Q 1888 3294 2169 3439 
Q 2450 3584 2816 3584 
Q 3463 3584 3878 3070 
Q 4294 2556 4294 1747 
Q 4294 938 3878 423 
Q 3463 -91 2816 -91 
Q 2450 -91 2169 54 
Q 1888 200 1656 506 
L 1656 0 
L 538 0 
L 538 4863 
L 1656 4863 
L 1656 2988 
z
" transform="scale(0.015625)"/>
      <path id="DejaVuSans-Bold-6f" d="M 2203 2784 
Q 1831 2784 1636 2517 
Q 1441 2250 1441 1747 
Q 1441 1244 1636 976 
Q 1831 709 2203 709 
Q 2569 709 2762 976 
Q 2956 1244 2956 1747 
Q 2956 2250 2762 2517 
Q 2569 2784 2203 2784 
z
M 2203 3584 
Q 3106 3584 3614 3096 
Q 4122 2609 4122 1747 
Q 4122 884 3614 396 
Q 3106 -91 2203 -91 
Q 1297 -91 786 396 
Q 275 884 275 1747 
Q 275 2609 786 3096 
Q 1297 3584 2203 3584 
z
" transform="scale(0.015625)"/>
      <path id="DejaVuSans-Bold-6e" d="M 4056 2131 
L 4056 0 
L 2931 0 
L 2931 347 
L 2931 1631 
Q 2931 2084 2911 2256 
Q 2891 2428 2841 2509 
Q 2775 2619 2662 2680 
Q 2550 2741 2406 2741 
Q 2056 2741 1856 2470 
Q 1656 2200 1656 1722 
L 1656 0 
L 538 0 
L 538 3500 
L 1656 3500 
L 1656 2988 
Q 1909 3294 2193 3439 
Q 2478 3584 2822 3584 
Q 3428 3584 3742 3212 
Q 4056 2841 4056 2131 
z
" transform="scale(0.015625)"/>
      <path id="DejaVuSans-Bold-76" d="M 97 3500 
L 1216 3500 
L 2088 1081 
L 2956 3500 
L 4078 3500 
L 2700 0 
L 1472 0 
L 97 3500 
z
" transform="scale(0.015625)"/>
      <path id="DejaVuSans-Bold-65" d="M 4031 1759 
L 4031 1441 
L 1416 1441 
Q 1456 1047 1700 850 
Q 1944 653 2381 653 
Q 2734 653 3104 758 
Q 3475 863 3866 1075 
L 3866 213 
Q 3469 63 3072 -14 
Q 2675 -91 2278 -91 
Q 1328 -91 801 392 
Q 275 875 275 1747 
Q 275 2603 792 3093 
Q 1309 3584 2216 3584 
Q 3041 3584 3536 3087 
Q 4031 2591 4031 1759 
z
M 2881 2131 
Q 2881 2450 2695 2645 
Q 2509 2841 2209 2841 
Q 1884 2841 1681 2658 
Q 1478 2475 1428 2131 
L 2881 2131 
z
" transform="scale(0.015625)"/>
      <path id="DejaVuSans-Bold-77" d="M 225 3500 
L 1313 3500 
L 1900 1088 
L 2491 3500 
L 3425 3500 
L 4013 1113 
L 4603 3500 
L 5691 3500 
L 4769 0 
L 3547 0 
L 2956 2406 
L 2369 0 
L 1147 0 
L 225 3500 
z
" transform="scale(0.015625)"/>
     </defs>
     <use xlink:href="#DejaVuSans-Bold-46"/>
     <use xlink:href="#DejaVuSans-Bold-75" x="63.310547"/>
     <use xlink:href="#DejaVuSans-Bold-6c" x="134.501953"/>
     <use xlink:href="#DejaVuSans-Bold-6c" x="168.779297"/>
     <use xlink:href="#DejaVuSans-Bold-20" x="203.056641"/>
     <use xlink:href="#DejaVuSans-Bold-64" x="237.871094"/>
     <use xlink:href="#DejaVuSans-Bold-69" x="309.453125"/>
     <use xlink:href="#DejaVuSans-Bold-73" x="343.730469"/>
     <use xlink:href="#DejaVuSans-Bold-74" x="403.251953"/>
     <use xlink:href="#DejaVuSans-Bold-72" x="451.054688"/>
     <use xlink:href="#DejaVuSans-Bold-69" x="500.371094"/>
     <use xlink:href="#DejaVuSans-Bold-62" x="534.648438"/>
     <use xlink:href="#DejaVuSans-Bold-75" x="606.230469"/>
     <use xlink:href="#DejaVuSans-Bold-74" x="677.421875"/>
     <use xlink:href="#DejaVuSans-Bold-69" x="725.224609"/>
     <use xlink:href="#DejaVuSans-Bold-6f" x="759.501953"/>
     <use xlink:href="#DejaVuSans-Bold-6e" x="828.203125"/>
     <use xlink:href="#DejaVuSans-Bold-20" x="899.394531"/>
     <use xlink:href="#DejaVuSans-Bold-76" x="934.208984"/>
     <use xlink:href="#DejaVuSans-Bold-69" x="999.394531"/>
     <use xlink:href="#DejaVuSans-Bold-65" x="1033.671875"/>
     <use xlink:href="#DejaVuSans-Bold-77" x="1101.494141"/>
    </g>
   </g>
  </g>
  <g id="axes_2">
   <g id="patch_5">
    <path d="M 436.495737 272.567617 
L 803.272588 272.567617 
L 803.272588 26.877187 
L 436.495737 26.877187 
z
" style="fill: #f6fbfa"/>
   </g>
   <g id="matplotlib.axis_3">
    <g id="xtick_8">
     <g id="line2d_17">
      <g>
       <use xlink:href="#m7690c96e8b" x="436.495737" y="272.567617" style="fill: #2f7e79; stroke: #2f7e79; stroke-width: 0.8"/>
      </g>
     </g>
     <g id="text_19">
      <!-- 0 -->
      <g style="fill: #2f7e79" transform="translate(432.360112 289.445585) scale(0.13 -0.13)">
       <use xlink:href="#DejaVuSans-30"/>
      </g>
     </g>
    </g>
    <g id="xtick_9">
     <g id="line2d_18">
      <g>
       <use xlink:href="#m7690c96e8b" x="497.625212" y="272.567617" style="fill: #2f7e79; stroke: #2f7e79; stroke-width: 0.8"/>
      </g>
     </g>
     <g id="text_20">
      <!-- 1 -->
      <g style="fill: #2f7e79" transform="translate(493.489587 289.445585) scale(0.13 -0.13)">
       <use xlink:href="#DejaVuSans-31"/>
      </g>
     </g>
    </g>
    <g id="xtick_10">
     <g id="line2d_19">
      <g>
       <use xlink:href="#m7690c96e8b" x="558.754688" y="272.567617" style="fill: #2f7e79; stroke: #2f7e79; stroke-width: 0.8"/>
      </g>
     </g>
     <g id="text_21">
      <!-- 2 -->
      <g style="fill: #2f7e79" transform="translate(554.619063 289.445585) scale(0.13 -0.13)">
       <use xlink:href="#DejaVuSans-32"/>
      </g>
     </g>
    </g>
    <g id="xtick_11">
     <g id="line2d_20">
      <g>
       <use xlink:href="#m7690c96e8b" x="619.884163" y="272.567617" style="fill: #2f7e79; stroke: #2f7e79; stroke-width: 0.8"/>
      </g>
     </g>
     <g id="text_22">
      <!-- 3 -->
      <g style="fill: #2f7e79" transform="translate(615.748538 289.445585) scale(0.13 -0.13)">
       <use xlink:href="#DejaVuSans-33"/>
      </g>
     </g>
    </g>
    <g id="xtick_12">
     <g id="line2d_21">
      <g>
       <use xlink:href="#m7690c96e8b" x="681.013638" y="272.567617" style="fill: #2f7e79; stroke: #2f7e79; stroke-width: 0.8"/>
      </g>
     </g>
     <g id="text_23">
      <!-- 4 -->
      <g style="fill: #2f7e79" transform="translate(676.878013 289.445585) scale(0.13 -0.13)">
       <use xlink:href="#DejaVuSans-34"/>
      </g>
     </g>
    </g>
    <g id="xtick_13">
     <g id="line2d_22">
      <g>
       <use xlink:href="#m7690c96e8b" x="742.143113" y="272.567617" style="fill: #2f7e79; stroke: #2f7e79; stroke-width: 0.8"/>
      </g>
     </g>
     <g id="text_24">
      <!-- 5 -->
      <g style="fill: #2f7e79" transform="translate(738.007488 289.445585) scale(0.13 -0.13)">
       <use xlink:href="#DejaVuSans-35"/>
      </g>
     </g>
    </g>
    <g id="xtick_14">
     <g id="line2d_23">
      <g>
       <use xlink:href="#m7690c96e8b" x="803.272588" y="272.567617" style="fill: #2f7e79; stroke: #2f7e79; stroke-width: 0.8"/>
      </g>
     </g>
     <g id="text_25">
      <!-- 6 -->
      <g style="fill: #2f7e79" transform="translate(799.136963 289.445585) scale(0.13 -0.13)">
       <use xlink:href="#DejaVuSans-36"/>
      </g>
     </g>
    </g>
    <g id="text_26">
     <!-- state x -->
     <g style="fill: #12343b" transform="translate(594.063069 307.546835) scale(0.15 -0.15)">
      <use xlink:href="#DejaVuSans-73"/>
      <use xlink:href="#DejaVuSans-74" x="52.099609"/>
      <use xlink:href="#DejaVuSans-61" x="91.308594"/>
      <use xlink:href="#DejaVuSans-74" x="152.587891"/>
      <use xlink:href="#DejaVuSans-65" x="191.796875"/>
      <use xlink:href="#DejaVuSans-20" x="253.320312"/>
      <use xlink:href="#DejaVuSans-78" x="285.107422"/>
     </g>
    </g>
   </g>
   <g id="matplotlib.axis_4">
    <g id="ytick_9">
     <g id="line2d_24">
      <g>
       <use xlink:href="#m6641f5e289" x="436.495737" y="272.567617" style="fill: #2f7e79; stroke: #2f7e79; stroke-width: 0.8"/>
      </g>
     </g>
    </g>
    <g id="ytick_10">
     <g id="line2d_25">
      <g>
       <use xlink:href="#m6641f5e289" x="436.495737" y="241.34361" style="fill: #2f7e79; stroke: #2f7e79; stroke-width: 0.8"/>
      </g>
     </g>
    </g>
    <g id="ytick_11">
     <g id="line2d_26">
      <g>
       <use xlink:href="#m6641f5e289" x="436.495737" y="210.119603" style="fill: #2f7e79; stroke: #2f7e79; stroke-width: 0.8"/>
      </g>
     </g>
    </g>
    <g id="ytick_12">
     <g id="line2d_27">
      <g>
       <use xlink:href="#m6641f5e289" x="436.495737" y="178.895596" style="fill: #2f7e79; stroke: #2f7e79; stroke-width: 0.8"/>
      </g>
     </g>
    </g>
    <g id="ytick_13">
     <g id="line2d_28">
      <g>
       <use xlink:href="#m6641f5e289" x="436.495737" y="147.671589" style="fill: #2f7e79; stroke: #2f7e79; stroke-width: 0.8"/>
      </g>
     </g>
    </g>
    <g id="ytick_14">
     <g id="line2d_29">
      <g>
       <use xlink:href="#m6641f5e289" x="436.495737" y="116.447582" style="fill: #2f7e79; stroke: #2f7e79; stroke-width: 0.8"/>
      </g>
     </g>
    </g>
    <g id="ytick_15">
     <g id="line2d_30">
      <g>
       <use xlink:href="#m6641f5e289" x="436.495737" y="85.223575" style="fill: #2f7e79; stroke: #2f7e79; stroke-width: 0.8"/>
      </g>
     </g>
    </g>
    <g id="ytick_16">
     <g id="line2d_31">
      <g>
       <use xlink:href="#m6641f5e289" x="436.495737" y="53.999568" style="fill: #2f7e79; stroke: #2f7e79; stroke-width: 0.8"/>
      </g>
     </g>
    </g>
   </g>
   <g id="line2d_32">
    <path d="M 436.495737 272.545685 
L 449.944222 272.387136 
L 456.668464 272.100497 
L 461.558822 271.674147 
L 465.226591 271.148631 
L 468.283064 270.513511 
L 471.339538 269.635964 
L 473.784717 268.710411 
L 476.229896 267.538475 
L 478.675075 266.069675 
L 480.508959 264.739592 
L 482.342844 263.185242 
L 484.176728 261.379484 
L 486.010612 259.29408 
L 487.844496 256.900109 
L 489.678381 254.16848 
L 491.512265 251.07055 
L 493.346149 247.578828 
L 495.180033 243.667775 
L 497.013918 239.314683 
L 498.847802 234.500609 
L 501.292981 227.341036 
L 503.73816 219.320054 
L 506.183339 210.442575 
L 508.628518 200.739465 
L 511.684992 187.543799 
L 514.741465 173.340105 
L 519.020529 152.279928 
L 526.96736 112.810892 
L 530.023834 98.874162 
L 532.469013 88.738692 
L 534.302898 81.888352 
L 536.136782 75.788346 
L 537.970666 70.525486 
L 539.193256 67.520181 
L 540.415845 64.940768 
L 541.638435 62.804233 
L 542.861024 61.124711 
L 544.083614 59.913334 
L 545.306203 59.178096 
L 545.917498 58.990647 
L 546.528793 58.923765 
L 547.140087 58.977533 
L 547.751382 59.151826 
L 548.973972 59.860459 
L 550.196561 61.044558 
L 551.419151 62.695785 
L 552.64174 64.802659 
L 553.86433 67.350685 
L 555.086919 70.322504 
L 556.920803 75.53035 
L 558.754688 81.568365 
L 560.588572 88.34825 
L 563.033751 98.373817 
L 566.090225 112.141509 
L 570.369288 132.823834 
L 577.704825 168.589223 
L 580.761299 182.472303 
L 583.817772 195.282493 
L 586.262951 204.607081 
L 588.70813 213.023916 
L 591.153309 220.483919 
L 592.987194 225.436423 
L 594.821078 229.836471 
L 596.654962 233.689428 
L 598.488846 237.006063 
L 600.322731 239.801608 
L 602.156615 242.094857 
L 603.990499 243.907313 
L 605.213089 244.860023 
L 606.435678 245.616713 
L 607.658268 246.184823 
L 608.880857 246.571884 
L 610.103447 246.785456 
L 611.326036 246.833077 
L 612.548626 246.722213 
L 614.38251 246.27483 
L 616.216394 245.511654 
L 618.050278 244.456133 
L 619.884163 243.130828 
L 621.718047 241.557415 
L 624.163226 239.109482 
L 626.608405 236.304774 
L 629.053584 233.188796 
L 632.110058 228.923425 
L 635.777826 223.373999 
L 640.668184 215.485884 
L 652.282785 196.515 
L 655.950553 191.059524 
L 659.007027 186.909348 
L 661.452206 183.909602 
L 663.897385 181.238165 
L 666.342564 178.931291 
L 668.176448 177.4597 
L 670.010332 176.222731 
L 671.844217 175.230181 
L 673.678101 174.489969 
L 675.511985 174.008036 
L 677.345869 173.788269 
L 679.179754 173.832456 
L 681.013638 174.140261 
L 682.847522 174.709234 
L 684.681406 175.534843 
L 686.515291 176.610538 
L 688.349175 177.927835 
L 690.183059 179.476428 
L 692.628238 181.880069 
L 695.073417 184.64084 
L 697.518596 187.722069 
L 700.57507 191.963136 
L 704.242838 197.513412 
L 708.521902 204.435361 
L 725.02686 231.640631 
L 728.694628 237.082891 
L 732.362397 242.128956 
L 735.418871 245.999424 
L 738.475345 249.549438 
L 741.531818 252.772759 
L 744.588292 255.670745 
L 747.644766 258.251253 
L 750.70124 260.527475 
L 753.757713 262.516762 
L 756.814187 264.239499 
L 759.870661 265.718049 
L 762.927135 266.975812 
L 766.594903 268.226931 
L 770.262672 269.23399 
L 774.541735 270.150517 
L 778.820798 270.840402 
L 783.711156 271.41203 
L 789.824104 271.886842 
L 797.159641 272.220718 
L 803.272588 272.37619 
L 803.272588 272.37619 
" clip-path="url(#pae67f219a7)" style="fill: none; stroke: #58b8a7; stroke-opacity: 0.25; stroke-width: 2; stroke-linecap: square"/>
   </g>
   <g id="LineCollection_1">
    <path d="M 548.973972 272.567617 
L 548.973972 59.860459 
" clip-path="url(#pae67f219a7)" style="fill: none; stroke-dasharray: 6.66,2.88; stroke-dashoffset: 0; stroke: #e9785d; stroke-width: 1.8"/>
   </g>
   <g id="patch_6">
    <path d="M 436.495737 272.567617 
L 436.495737 26.877187 
" style="fill: none; stroke: #2f7e79; stroke-width: 0.8; stroke-linejoin: miter; stroke-linecap: square"/>
   </g>
   <g id="patch_7">
    <path d="M 436.495737 272.567617 
L 803.272588 272.567617 
" style="fill: none; stroke: #2f7e79; stroke-width: 0.8; stroke-linejoin: miter; stroke-linecap: square"/>
   </g>
   <g id="PathCollection_1">
    <defs>
     <path id="m23733932bf" d="M 0 5.477226 
C 1.452577 5.477226 2.845856 4.900111 3.872983 3.872983 
C 4.900111 2.845856 5.477226 1.452577 5.477226 0 
C 5.477226 -1.452577 4.900111 -2.845856 3.872983 -3.872983 
C 2.845856 -4.900111 1.452577 -5.477226 0 -5.477226 
C -1.452577 -5.477226 -2.845856 -4.900111 -3.872983 -3.872983 
C -4.900111 -2.845856 -5.477226 -1.452577 -5.477226 0 
C -5.477226 1.452577 -4.900111 2.845856 -3.872983 3.872983 
C -2.845856 4.900111 -1.452577 5.477226 0 5.477226 
z
" style="stroke: #e9785d"/>
    </defs>
    <g clip-path="url(#pae67f219a7)">
     <use xlink:href="#m23733932bf" x="548.973972" y="59.860459" style="fill: #e9785d; stroke: #e9785d"/>
    </g>
   </g>
   <g id="patch_8">
    <path d="M 630.051241 78.676669 
Q 590.486236 69.494522 552.881592 60.76733 
" style="fill: none; stroke: #e9785d; stroke-width: 1.8; stroke-linecap: round"/>
    <path d="M 557.703621 64.760829 
L 552.881592 60.76733 
L 558.969609 59.305806 
" style="fill: none; stroke: #e9785d; stroke-width: 1.8; stroke-linecap: round"/>
   </g>
   <g id="text_27">
    <!-- choose one x* -->
    <g style="fill: #12343b" transform="translate(619.884163 91.766532) scale(0.14 -0.14)">
     <defs>
      <path id="DejaVuSans-63" d="M 3122 3366 
L 3122 2828 
Q 2878 2963 2633 3030 
Q 2388 3097 2138 3097 
Q 1578 3097 1268 2742 
Q 959 2388 959 1747 
Q 959 1106 1268 751 
Q 1578 397 2138 397 
Q 2388 397 2633 464 
Q 2878 531 3122 666 
L 3122 134 
Q 2881 22 2623 -34 
Q 2366 -91 2075 -91 
Q 1284 -91 818 406 
Q 353 903 353 1747 
Q 353 2603 823 3093 
Q 1294 3584 2113 3584 
Q 2378 3584 2631 3529 
Q 2884 3475 3122 3366 
z
" transform="scale(0.015625)"/>
      <path id="DejaVuSans-68" d="M 3513 2113 
L 3513 0 
L 2938 0 
L 2938 2094 
Q 2938 2591 2744 2837 
Q 2550 3084 2163 3084 
Q 1697 3084 1428 2787 
Q 1159 2491 1159 1978 
L 1159 0 
L 581 0 
L 581 4863 
L 1159 4863 
L 1159 2956 
Q 1366 3272 1645 3428 
Q 1925 3584 2291 3584 
Q 2894 3584 3203 3211 
Q 3513 2838 3513 2113 
z
" transform="scale(0.015625)"/>
      <path id="DejaVuSans-6e" d="M 3513 2113 
L 3513 0 
L 2938 0 
L 2938 2094 
Q 2938 2591 2744 2837 
Q 2550 3084 2163 3084 
Q 1697 3084 1428 2787 
Q 1159 2491 1159 1978 
L 1159 0 
L 581 0 
L 581 3500 
L 1159 3500 
L 1159 2956 
Q 1366 3272 1645 3428 
Q 1925 3584 2291 3584 
Q 2894 3584 3203 3211 
Q 3513 2838 3513 2113 
z
" transform="scale(0.015625)"/>
      <path id="DejaVuSans-2a" d="M 3009 3897 
L 1888 3291 
L 3009 2681 
L 2828 2375 
L 1778 3009 
L 1778 1831 
L 1422 1831 
L 1422 3009 
L 372 2375 
L 191 2681 
L 1313 3291 
L 191 3897 
L 372 4206 
L 1422 3572 
L 1422 4750 
L 1778 4750 
L 1778 3572 
L 2828 4206 
L 3009 3897 
z
" transform="scale(0.015625)"/>
     </defs>
     <use xlink:href="#DejaVuSans-63"/>
     <use xlink:href="#DejaVuSans-68" x="54.980469"/>
     <use xlink:href="#DejaVuSans-6f" x="118.359375"/>
     <use xlink:href="#DejaVuSans-6f" x="179.541016"/>
     <use xlink:href="#DejaVuSans-73" x="240.722656"/>
     <use xlink:href="#DejaVuSans-65" x="292.822266"/>
     <use xlink:href="#DejaVuSans-20" x="354.345703"/>
     <use xlink:href="#DejaVuSans-6f" x="386.132812"/>
     <use xlink:href="#DejaVuSans-6e" x="447.314453"/>
     <use xlink:href="#DejaVuSans-65" x="510.693359"/>
     <use xlink:href="#DejaVuSans-20" x="572.216797"/>
     <use xlink:href="#DejaVuSans-78" x="604.003906"/>
     <use xlink:href="#DejaVuSans-2a" x="663.183594"/>
    </g>
   </g>
   <g id="text_28">
    <!-- Point-estimate view -->
    <g style="fill: #12343b" transform="translate(518.364163 20.877187) scale(0.18 -0.18)">
     <defs>
      <path id="DejaVuSans-Bold-50" d="M 588 4666 
L 2584 4666 
Q 3475 4666 3951 4270 
Q 4428 3875 4428 3144 
Q 4428 2409 3951 2014 
Q 3475 1619 2584 1619 
L 1791 1619 
L 1791 0 
L 588 0 
L 588 4666 
z
M 1791 3794 
L 1791 2491 
L 2456 2491 
Q 2806 2491 2997 2661 
Q 3188 2831 3188 3144 
Q 3188 3456 2997 3625 
Q 2806 3794 2456 3794 
L 1791 3794 
z
" transform="scale(0.015625)"/>
      <path id="DejaVuSans-Bold-2d" d="M 347 2297 
L 2309 2297 
L 2309 1388 
L 347 1388 
L 347 2297 
z
" transform="scale(0.015625)"/>
      <path id="DejaVuSans-Bold-6d" d="M 3781 2919 
Q 3994 3244 4286 3414 
Q 4578 3584 4928 3584 
Q 5531 3584 5847 3212 
Q 6163 2841 6163 2131 
L 6163 0 
L 5038 0 
L 5038 1825 
Q 5041 1866 5042 1909 
Q 5044 1953 5044 2034 
Q 5044 2406 4934 2573 
Q 4825 2741 4581 2741 
Q 4263 2741 4089 2478 
Q 3916 2216 3909 1719 
L 3909 0 
L 2784 0 
L 2784 1825 
Q 2784 2406 2684 2573 
Q 2584 2741 2328 2741 
Q 2006 2741 1831 2477 
Q 1656 2213 1656 1722 
L 1656 0 
L 531 0 
L 531 3500 
L 1656 3500 
L 1656 2988 
Q 1863 3284 2130 3434 
Q 2397 3584 2719 3584 
Q 3081 3584 3359 3409 
Q 3638 3234 3781 2919 
z
" transform="scale(0.015625)"/>
      <path id="DejaVuSans-Bold-61" d="M 2106 1575 
Q 1756 1575 1579 1456 
Q 1403 1338 1403 1106 
Q 1403 894 1545 773 
Q 1688 653 1941 653 
Q 2256 653 2472 879 
Q 2688 1106 2688 1447 
L 2688 1575 
L 2106 1575 
z
M 3816 1997 
L 3816 0 
L 2688 0 
L 2688 519 
Q 2463 200 2181 54 
Q 1900 -91 1497 -91 
Q 953 -91 614 226 
Q 275 544 275 1050 
Q 275 1666 698 1953 
Q 1122 2241 2028 2241 
L 2688 2241 
L 2688 2328 
Q 2688 2594 2478 2717 
Q 2269 2841 1825 2841 
Q 1466 2841 1156 2769 
Q 847 2697 581 2553 
L 581 3406 
Q 941 3494 1303 3539 
Q 1666 3584 2028 3584 
Q 2975 3584 3395 3211 
Q 3816 2838 3816 1997 
z
" transform="scale(0.015625)"/>
     </defs>
     <use xlink:href="#DejaVuSans-Bold-50"/>
     <use xlink:href="#DejaVuSans-Bold-6f" x="73.291016"/>
     <use xlink:href="#DejaVuSans-Bold-69" x="141.992188"/>
     <use xlink:href="#DejaVuSans-Bold-6e" x="176.269531"/>
     <use xlink:href="#DejaVuSans-Bold-74" x="247.460938"/>
     <use xlink:href="#DejaVuSans-Bold-2d" x="295.263672"/>
     <use xlink:href="#DejaVuSans-Bold-65" x="336.767578"/>
     <use xlink:href="#DejaVuSans-Bold-73" x="404.589844"/>
     <use xlink:href="#DejaVuSans-Bold-74" x="464.111328"/>
     <use xlink:href="#DejaVuSans-Bold-69" x="511.914062"/>
     <use xlink:href="#DejaVuSans-Bold-6d" x="546.191406"/>
     <use xlink:href="#DejaVuSans-Bold-61" x="650.390625"/>
     <use xlink:href="#DejaVuSans-Bold-74" x="717.871094"/>
     <use xlink:href="#DejaVuSans-Bold-65" x="765.673828"/>
     <use xlink:href="#DejaVuSans-Bold-20" x="833.496094"/>
     <use xlink:href="#DejaVuSans-Bold-76" x="868.310547"/>
     <use xlink:href="#DejaVuSans-Bold-69" x="933.496094"/>
     <use xlink:href="#DejaVuSans-Bold-65" x="967.773438"/>
     <use xlink:href="#DejaVuSans-Bold-77" x="1035.595703"/>
    </g>
   </g>
  </g>
 </g>
 <defs>
  <clipPath id="pec5f3925a1">
   <rect x="53.39125" y="26.877187" width="366.776851" height="245.690429"/>
  </clipPath>
  <clipPath id="pae67f219a7">
   <rect x="436.495737" y="26.877187" width="366.776851" height="245.690429"/>
  </clipPath>
 </defs>
</svg>
