<?xml version="1.0" encoding="utf-8" standalone="no"?>
<!DOCTYPE svg PUBLIC "-//W3C//DTD SVG 1.1//EN"
  "http://www.w3.org/Graphics/SVG/1.1/DTD/svg11.dtd">
<svg xmlns:xlink="http://www.w3.org/1999/xlink" width="814.665855pt" height="317.52773pt" viewBox="0 0 814.665855 317.52773" xmlns="http://www.w3.org/2000/svg" version="1.1">
 <metadata>
  <rdf:RDF xmlns:dc="http://purl.org/dc/elements/1.1/" xmlns:cc="http://creativecommons.org/ns#" xmlns:rdf="http://www.w3.org/1999/02/22-rdf-syntax-ns#">
   <cc:Work>
    <dc:type rdf:resource="http://purl.org/dc/dcmitype/StillImage"/>
    <dc:date>2026-03-04T00:05:14.292615</dc:date>
    <dc:format>image/svg+xml</dc:format>
    <dc:creator>
     <cc:Agent>
      <dc:title>Matplotlib v3.6.3, https://matplotlib.org/</dc:title>
     </cc:Agent>
    </dc:creator>
   </cc:Work>
  </rdf:RDF>
 </metadata>
 <defs>
  <style type="text/css">*{stroke-linejoin: round; stroke-linecap: butt}</style>
 </defs>
 <g id="figure_1">
  <g id="patch_1">
   <path d="M 0 317.52773 
L 814.665855 317.52773 
L 814.665855 0 
L 0 0 
z
" style="fill: #f6fbfa"/>
  </g>
  <g id="axes_1">
   <g id="patch_2">
    <path d="M 49.969063 273.90023 
L 419.036822 273.90023 
L 419.036822 26.573437 
L 49.969063 26.573437 
z
" style="fill: #f6fbfa"/>
   </g>
   <g id="PolyCollection_1">
    <defs>
     <path id="meb46d5c0ba" d="M 49.969063 -43.6275 
L 49.969063 -43.649577 
L 50.584175 -43.651942 
L 51.199288 -43.654545 
L 51.814401 -43.657408 
L 52.429514 -43.660555 
L 53.044627 -43.664013 
L 53.65974 -43.66781 
L 54.274853 -43.671976 
L 54.889966 -43.676545 
L 55.505079 -43.681553 
L 56.120192 -43.687038 
L 56.735305 -43.693043 
L 57.350418 -43.699612 
L 57.965531 -43.706795 
L 58.580644 -43.714644 
L 59.195757 -43.723216 
L 59.810869 -43.732572 
L 60.425982 -43.742776 
L 61.041095 -43.7539 
L 61.656208 -43.766018 
L 62.271321 -43.779213 
L 62.886434 -43.79357 
L 63.501547 -43.809182 
L 64.11666 -43.82615 
L 64.731773 -43.84458 
L 65.346886 -43.864585 
L 65.961999 -43.886286 
L 66.577112 -43.909814 
L 67.192225 -43.935307 
L 67.807338 -43.962911 
L 68.42245 -43.992783 
L 69.037563 -44.025091 
L 69.652676 -44.060011 
L 70.267789 -44.097731 
L 70.882902 -44.138451 
L 71.498015 -44.182383 
L 72.113128 -44.229751 
L 72.728241 -44.280791 
L 73.343354 -44.335756 
L 73.958467 -44.394909 
L 74.57358 -44.458533 
L 75.188693 -44.526921 
L 75.803806 -44.600385 
L 76.418919 -44.679253 
L 77.034032 -44.76387 
L 77.649144 -44.854599 
L 78.264257 -44.951822 
L 78.87937 -45.055937 
L 79.494483 -45.167364 
L 80.109596 -45.286542 
L 80.724709 -45.413932 
L 81.339822 -45.550013 
L 81.954935 -45.695287 
L 82.570048 -45.850278 
L 83.185161 -46.015532 
L 83.800274 -46.191619 
L 84.415387 -46.379129 
L 85.0305 -46.578679 
L 85.645613 -46.790905 
L 86.260726 -47.016472 
L 86.875838 -47.256066 
L 87.490951 -47.510396 
L 88.106064 -47.780198 
L 88.721177 -48.066229 
L 89.33629 -48.369274 
L 89.951403 -48.690137 
L 90.566516 -49.029649 
L 91.181629 -49.388663 
L 91.796742 -49.768054 
L 92.411855 -50.16872 
L 93.026968 -50.59158 
L 93.642081 -51.037574 
L 94.257194 -51.507661 
L 94.872307 -52.002822 
L 95.48742 -52.524052 
L 96.102532 -53.072364 
L 96.717645 -53.648787 
L 97.332758 -54.254364 
L 97.947871 -54.890148 
L 98.562984 -55.557206 
L 99.178097 -56.25661 
L 99.79321 -56.989442 
L 100.408323 -57.756785 
L 101.023436 -58.559728 
L 101.638549 -59.399358 
L 102.253662 -60.276758 
L 102.868775 -61.193009 
L 103.483888 -62.14918 
L 104.099001 -63.146332 
L 104.714114 -64.18551 
L 105.329226 -65.267743 
L 105.944339 -66.394038 
L 106.559452 -67.565379 
L 107.174565 -68.782721 
L 107.789678 -70.046989 
L 108.404791 -71.359072 
L 109.019904 -72.719822 
L 109.635017 -74.130045 
L 110.25013 -75.590504 
L 110.865243 -77.101907 
L 111.480356 -78.664911 
L 112.095469 -80.280113 
L 112.710582 -81.948044 
L 113.325695 -83.669173 
L 113.940808 -85.443892 
L 114.55592 -87.272522 
L 115.171033 -89.155302 
L 115.786146 -91.092388 
L 116.401259 -93.083849 
L 117.016372 -95.12966 
L 117.631485 -97.229705 
L 118.246598 -99.383766 
L 118.861711 -101.591522 
L 119.476824 -103.852549 
L 120.091937 -106.166311 
L 120.70705 -108.532162 
L 121.322163 -110.949341 
L 121.937276 -113.416969 
L 122.552389 -115.934046 
L 123.167502 -118.499453 
L 123.782614 -121.111944 
L 124.397727 -123.77015 
L 125.01284 -126.472576 
L 125.627953 -129.217599 
L 126.243066 -132.003466 
L 126.858179 -134.8283 
L 127.473292 -137.690093 
L 128.088405 -140.586711 
L 128.703518 -143.515894 
L 129.318631 -146.475255 
L 129.933744 -149.462286 
L 130.548857 -152.474357 
L 131.16397 -155.508718 
L 131.779083 -158.562504 
L 132.394196 -161.632739 
L 133.009308 -164.716336 
L 133.624421 -167.810106 
L 134.239534 -170.910758 
L 134.854647 -174.014908 
L 135.46976 -177.11908 
L 136.084873 -180.219718 
L 136.699986 -183.313185 
L 137.315099 -186.395777 
L 137.930212 -189.463721 
L 138.545325 -192.513192 
L 139.160438 -195.540313 
L 139.775551 -198.541167 
L 140.390664 -201.511804 
L 141.005777 -204.448247 
L 141.62089 -207.346506 
L 142.236002 -210.202581 
L 142.851115 -213.012475 
L 143.466228 -215.772203 
L 144.081341 -218.477799 
L 144.696454 -221.125325 
L 145.311567 -223.710886 
L 145.92668 -226.230632 
L 146.541793 -228.680774 
L 147.156906 -231.057588 
L 147.772019 -233.35743 
L 148.387132 -235.576739 
L 149.002245 -237.712053 
L 149.617358 -239.760013 
L 150.232471 -241.717373 
L 150.847584 -243.58101 
L 151.462696 -245.347933 
L 152.077809 -247.015285 
L 152.692922 -248.580361 
L 153.308035 -250.040606 
L 153.923148 -251.393627 
L 154.538261 -252.637198 
L 155.153374 -253.769268 
L 155.768487 -254.787964 
L 156.3836 -255.691598 
L 156.998713 -256.478671 
L 157.613826 -257.14788 
L 158.228939 -257.698117 
L 158.844052 -258.128475 
L 159.459165 -258.438252 
L 160.074278 -258.626949 
L 160.68939 -258.694276 
L 161.304503 -258.64015 
L 161.919616 -258.464696 
L 162.534729 -258.168248 
L 163.149842 -257.751344 
L 163.764955 -257.214731 
L 164.380068 -256.559359 
L 164.995181 -255.786377 
L 165.610294 -254.897134 
L 166.225407 -253.893173 
L 166.84052 -252.776227 
L 167.455633 -251.548213 
L 168.070746 -250.211231 
L 168.685859 -248.767552 
L 169.300972 -247.219619 
L 169.916084 -245.570034 
L 170.531197 -243.821555 
L 171.14631 -241.977087 
L 171.761423 -240.039677 
L 172.376536 -238.0125 
L 172.991649 -235.898858 
L 173.606762 -233.702166 
L 174.221875 -231.425946 
L 174.836988 -229.073816 
L 175.452101 -226.649485 
L 176.067214 -224.156738 
L 176.682327 -221.59943 
L 177.29744 -218.981476 
L 177.912553 -216.306844 
L 178.527666 -213.57954 
L 179.142778 -210.803603 
L 179.757891 -207.983094 
L 180.373004 -205.122088 
L 180.988117 -202.224664 
L 181.60323 -199.294895 
L 182.218343 -196.33684 
L 182.833456 -193.354538 
L 183.448569 -190.351995 
L 184.063682 -187.33318 
L 184.678795 -184.302014 
L 185.293908 -181.262363 
L 185.909021 -178.218036 
L 186.524134 -175.172769 
L 187.139247 -172.130226 
L 187.75436 -169.09399 
L 188.369472 -166.067556 
L 188.984585 -163.054329 
L 189.599698 -160.057617 
L 190.214811 -157.080624 
L 190.829924 -154.126452 
L 191.445037 -151.19809 
L 192.06015 -148.298417 
L 192.675263 -145.430194 
L 193.290376 -142.596066 
L 193.905489 -139.798556 
L 194.520602 -137.040066 
L 195.135715 -134.322873 
L 195.750828 -131.64913 
L 196.365941 -129.020867 
L 196.981054 -126.439987 
L 197.596166 -123.908268 
L 198.211279 -121.427363 
L 198.826392 -118.998804 
L 199.441505 -116.623998 
L 200.056618 -114.304231 
L 200.671731 -112.040671 
L 201.286844 -109.834366 
L 201.901957 -107.686253 
L 202.51707 -105.597153 
L 203.132183 -103.567777 
L 203.747296 -101.598732 
L 204.362409 -99.690518 
L 204.977522 -97.843536 
L 205.592635 -96.058089 
L 206.207748 -94.334385 
L 206.82286 -92.672545 
L 207.437973 -91.0726 
L 208.053086 -89.5345 
L 208.668199 -88.058117 
L 209.283312 -86.643247 
L 209.898425 -85.289613 
L 210.513538 -83.996875 
L 211.128651 -82.764627 
L 211.743764 -81.592405 
L 212.358877 -80.479687 
L 212.97399 -79.425903 
L 213.589103 -78.430433 
L 214.204216 -77.492613 
L 214.819329 -76.611739 
L 215.434442 -75.787069 
L 216.049554 -75.01783 
L 216.664667 -74.303216 
L 217.27978 -73.642395 
L 217.894893 -73.034512 
L 218.510006 -72.478689 
L 219.125119 -71.974033 
L 219.740232 -71.519634 
L 220.355345 -71.114568 
L 220.970458 -70.757903 
L 221.585571 -70.4487 
L 222.200684 -70.18601 
L 222.815797 -69.968884 
L 223.43091 -69.796371 
L 224.046023 -69.667519 
L 224.661136 -69.581377 
L 225.276248 -69.536998 
L 225.891361 -69.533439 
L 226.506474 -69.569763 
L 227.121587 -69.645041 
L 227.7367 -69.758348 
L 228.351813 -69.90877 
L 228.966926 -70.095403 
L 229.582039 -70.317351 
L 230.197152 -70.573729 
L 230.812265 -70.863662 
L 231.427378 -71.186287 
L 232.042491 -71.540751 
L 232.657604 -71.926214 
L 233.272717 -72.341844 
L 233.88783 -72.786824 
L 234.502942 -73.260345 
L 235.118055 -73.761611 
L 235.733168 -74.289834 
L 236.348281 -74.844238 
L 236.963394 -75.424057 
L 237.578507 -76.028534 
L 238.19362 -76.65692 
L 238.808733 -77.308475 
L 239.423846 -77.982469 
L 240.038959 -78.678175 
L 240.654072 -79.394877 
L 241.269185 -80.131863 
L 241.884298 -80.888426 
L 242.499411 -81.663866 
L 243.114524 -82.457487 
L 243.729636 -83.268594 
L 244.344749 -84.096499 
L 244.959862 -84.940514 
L 245.574975 -85.799954 
L 246.190088 -86.674134 
L 246.805201 -87.562373 
L 247.420314 -88.463988 
L 248.035427 -89.378294 
L 248.65054 -90.30461 
L 249.265653 -91.242251 
L 249.880766 -92.19053 
L 250.495879 -93.14876 
L 251.110992 -94.116251 
L 251.726105 -95.092309 
L 252.341218 -96.076239 
L 252.95633 -97.067344 
L 253.571443 -98.06492 
L 254.186556 -99.068264 
L 254.801669 -100.076665 
L 255.416782 -101.089412 
L 256.031895 -102.105789 
L 256.647008 -103.125077 
L 257.262121 -104.146552 
L 257.877234 -105.169487 
L 258.492347 -106.193154 
L 259.10746 -107.216818 
L 259.722573 -108.239743 
L 260.337686 -109.261192 
L 260.952799 -110.280421 
L 261.567912 -111.296689 
L 262.183024 -112.30925 
L 262.798137 -113.317358 
L 263.41325 -114.320265 
L 264.028363 -115.317224 
L 264.643476 -116.307486 
L 265.258589 -117.290305 
L 265.873702 -118.264934 
L 266.488815 -119.230629 
L 267.103928 -120.186648 
L 267.719041 -121.132251 
L 268.334154 -122.066704 
L 268.949267 -122.989275 
L 269.56438 -123.899237 
L 270.179493 -124.795869 
L 270.794606 -125.678458 
L 271.409718 -126.546295 
L 272.024831 -127.398682 
L 272.639944 -128.234927 
L 273.255057 -129.054349 
L 273.87017 -129.856276 
L 274.485283 -130.640047 
L 275.100396 -131.405014 
L 275.715509 -132.15054 
L 276.330622 -132.876001 
L 276.945735 -133.580788 
L 277.560848 -134.264305 
L 278.175961 -134.925974 
L 278.791074 -135.56523 
L 279.406187 -136.181528 
L 280.0213 -136.774338 
L 280.636412 -137.343149 
L 281.251525 -137.887468 
L 281.866638 -138.406825 
L 282.481751 -138.900766 
L 283.096864 -139.36886 
L 283.711977 -139.810697 
L 284.32709 -140.225889 
L 284.942203 -140.614069 
L 285.557316 -140.974894 
L 286.172429 -141.308046 
L 286.787542 -141.613229 
L 287.402655 -141.890171 
L 288.017768 -142.138625 
L 288.632881 -142.358371 
L 289.247994 -142.54921 
L 289.863106 -142.710973 
L 290.478219 -142.843513 
L 291.093332 -142.946713 
L 291.708445 -143.020479 
L 292.323558 -143.064744 
L 292.938671 -143.079468 
L 293.553784 -143.064637 
L 294.168897 -143.020263 
L 294.78401 -142.946386 
L 295.399123 -142.843071 
L 296.014236 -142.710408 
L 296.629349 -142.548517 
L 297.244462 -142.35754 
L 297.859575 -142.137646 
L 298.474688 -141.88903 
L 299.0898 -141.611913 
L 299.704913 -141.306537 
L 300.320026 -140.973174 
L 300.935139 -140.612115 
L 301.550252 -140.223678 
L 302.165365 -139.808202 
L 302.780478 -139.366051 
L 303.395591 -138.897608 
L 304.010704 -138.403281 
L 304.625817 -137.883495 
L 305.24093 -137.3387 
L 305.856043 -136.769363 
L 306.471156 -136.175969 
L 307.086269 -135.559024 
L 307.701382 -134.91905 
L 308.316494 -134.256587 
L 308.931607 -133.57219 
L 309.54672 -132.86643 
L 310.161833 -132.139893 
L 310.776946 -131.393177 
L 311.392059 -130.626895 
L 312.007172 -129.841671 
L 312.622285 -129.038141 
L 313.237398 -128.216951 
L 313.852511 -127.378757 
L 314.467624 -126.524222 
L 315.082737 -125.65402 
L 315.69785 -124.768828 
L 316.312963 -123.869332 
L 316.928076 -122.956222 
L 317.543188 -122.030193 
L 318.158301 -121.091944 
L 318.773414 -120.142173 
L 319.388527 -119.181585 
L 320.00364 -118.210882 
L 320.618753 -117.230768 
L 321.233866 -116.241944 
L 321.848979 -115.245112 
L 322.464092 -114.240971 
L 323.079205 -113.230214 
L 323.694318 -112.213535 
L 324.309431 -111.191618 
L 324.924544 -110.165146 
L 325.539657 -109.134792 
L 326.15477 -108.101225 
L 326.769882 -107.065105 
L 327.384995 -106.027084 
L 328.000108 -104.987805 
L 328.615221 -103.947902 
L 329.230334 -102.907997 
L 329.845447 -101.868705 
L 330.46056 -100.830626 
L 331.075673 -99.794351 
L 331.690786 -98.760457 
L 332.305899 -97.72951 
L 332.921012 -96.702061 
L 333.536125 -95.678649 
L 334.151238 -94.659798 
L 334.766351 -93.64602 
L 335.381464 -92.637809 
L 335.996576 -91.635648 
L 336.611689 -90.640001 
L 337.226802 -89.65132 
L 337.841915 -88.670039 
L 338.457028 -87.696579 
L 339.072141 -86.731341 
L 339.687254 -85.774715 
L 340.302367 -84.82707 
L 340.91748 -83.888762 
L 341.532593 -82.96013 
L 342.147706 -82.041496 
L 342.762819 -81.133166 
L 343.377932 -80.235431 
L 343.993045 -79.348564 
L 344.608158 -78.472822 
L 345.22327 -77.608447 
L 345.838383 -76.755665 
L 346.453496 -75.914684 
L 347.068609 -75.0857 
L 347.683722 -74.26889 
L 348.298835 -73.464418 
L 348.913948 -72.672431 
L 349.529061 -71.893063 
L 350.144174 -71.126433 
L 350.759287 -70.372643 
L 351.3744 -69.631785 
L 351.989513 -68.903935 
L 352.604626 -68.189154 
L 353.219739 -67.487492 
L 353.834852 -66.798986 
L 354.449964 -66.123659 
L 355.065077 -65.461523 
L 355.68019 -64.812577 
L 356.295303 -64.176809 
L 356.910416 -63.554197 
L 357.525529 -62.944706 
L 358.140642 -62.348291 
L 358.755755 -61.764898 
L 359.370868 -61.194462 
L 359.985981 -60.63691 
L 360.601094 -60.092158 
L 361.216207 -59.560117 
L 361.83132 -59.040685 
L 362.446433 -58.533756 
L 363.061546 -58.039214 
L 363.676658 -57.556939 
L 364.291771 -57.086801 
L 364.906884 -56.628665 
L 365.521997 -56.182391 
L 366.13711 -55.747832 
L 366.752223 -55.324837 
L 367.367336 -54.913249 
L 367.982449 -54.512907 
L 368.597562 -54.123645 
L 369.212675 -53.745296 
L 369.827788 -53.377686 
L 370.442901 -53.020639 
L 371.058014 -52.673978 
L 371.673127 -52.337521 
L 372.28824 -52.011085 
L 372.903352 -51.694485 
L 373.518465 -51.387534 
L 374.133578 -51.090043 
L 374.748691 -50.801825 
L 375.363804 -50.522688 
L 375.978917 -50.252442 
L 376.59403 -49.990896 
L 377.209143 -49.737859 
L 377.824256 -49.49314 
L 378.439369 -49.256548 
L 379.054482 -49.027893 
L 379.669595 -48.806987 
L 380.284708 -48.593641 
L 380.899821 -48.387667 
L 381.514934 -48.18888 
L 382.130046 -47.997095 
L 382.745159 -47.81213 
L 383.360272 -47.633803 
L 383.975385 -47.461936 
L 384.590498 -47.296351 
L 385.205611 -47.136873 
L 385.820724 -46.983329 
L 386.435837 -46.83555 
L 387.05095 -46.693367 
L 387.666063 -46.556614 
L 388.281176 -46.42513 
L 388.896289 -46.298754 
L 389.511402 -46.177328 
L 390.126515 -46.060699 
L 390.741628 -45.948714 
L 391.35674 -45.841224 
L 391.971853 -45.738085 
L 392.586966 -45.639153 
L 393.202079 -45.544289 
L 393.817192 -45.453355 
L 394.432305 -45.366219 
L 395.047418 -45.282748 
L 395.662531 -45.202817 
L 396.277644 -45.126299 
L 396.892757 -45.053075 
L 397.50787 -44.983025 
L 398.122983 -44.916034 
L 398.738096 -44.85199 
L 399.353209 -44.790783 
L 399.968322 -44.732307 
L 400.583434 -44.676458 
L 401.198547 -44.623137 
L 401.81366 -44.572245 
L 402.428773 -44.523689 
L 403.043886 -44.477375 
L 403.658999 -44.433215 
L 404.274112 -44.391123 
L 404.889225 -44.351014 
L 405.504338 -44.312809 
L 406.119451 -44.276428 
L 406.734564 -44.241795 
L 407.349677 -44.208838 
L 407.96479 -44.177486 
L 408.579903 -44.14767 
L 409.195016 -44.119324 
L 409.810128 -44.092385 
L 410.425241 -44.06679 
L 411.040354 -44.042482 
L 411.655467 -44.019402 
L 412.27058 -43.997495 
L 412.885693 -43.976709 
L 413.500806 -43.956993 
L 414.115919 -43.938298 
L 414.731032 -43.920577 
L 415.346145 -43.903783 
L 415.961258 -43.887875 
L 416.576371 -43.87281 
L 417.191484 -43.858547 
L 417.806597 -43.845049 
L 418.42171 -43.832279 
L 419.036822 -43.820201 
L 419.036822 -43.6275 
L 419.036822 -43.6275 
L 418.42171 -43.6275 
L 417.806597 -43.6275 
L 417.191484 -43.6275 
L 416.576371 -43.6275 
L 415.961258 -43.6275 
L 415.346145 -43.6275 
L 414.731032 -43.6275 
L 414.115919 -43.6275 
L 413.500806 -43.6275 
L 412.885693 -43.6275 
L 412.27058 -43.6275 
L 411.655467 -43.6275 
L 411.040354 -43.6275 
L 410.425241 -43.6275 
L 409.810128 -43.6275 
L 409.195016 -43.6275 
L 408.579903 -43.6275 
L 407.96479 -43.6275 
L 407.349677 -43.6275 
L 406.734564 -43.6275 
L 406.119451 -43.6275 
L 405.504338 -43.6275 
L 404.889225 -43.6275 
L 404.274112 -43.6275 
L 403.658999 -43.6275 
L 403.043886 -43.6275 
L 402.428773 -43.6275 
L 401.81366 -43.6275 
L 401.198547 -43.6275 
L 400.583434 -43.6275 
L 399.968322 -43.6275 
L 399.353209 -43.6275 
L 398.738096 -43.6275 
L 398.122983 -43.6275 
L 397.50787 -43.6275 
L 396.892757 -43.6275 
L 396.277644 -43.6275 
L 395.662531 -43.6275 
L 395.047418 -43.6275 
L 394.432305 -43.6275 
L 393.817192 -43.6275 
L 393.202079 -43.6275 
L 392.586966 -43.6275 
L 391.971853 -43.6275 
L 391.35674 -43.6275 
L 390.741628 -43.6275 
L 390.126515 -43.6275 
L 389.511402 -43.6275 
L 388.896289 -43.6275 
L 388.281176 -43.6275 
L 387.666063 -43.6275 
L 387.05095 -43.6275 
L 386.435837 -43.6275 
L 385.820724 -43.6275 
L 385.205611 -43.6275 
L 384.590498 -43.6275 
L 383.975385 -43.6275 
L 383.360272 -43.6275 
L 382.745159 -43.6275 
L 382.130046 -43.6275 
L 381.514934 -43.6275 
L 380.899821 -43.6275 
L 380.284708 -43.6275 
L 379.669595 -43.6275 
L 379.054482 -43.6275 
L 378.439369 -43.6275 
L 377.824256 -43.6275 
L 377.209143 -43.6275 
L 376.59403 -43.6275 
L 375.978917 -43.6275 
L 375.363804 -43.6275 
L 374.748691 -43.6275 
L 374.133578 -43.6275 
L 373.518465 -43.6275 
L 372.903352 -43.6275 
L 372.28824 -43.6275 
L 371.673127 -43.6275 
L 371.058014 -43.6275 
L 370.442901 -43.6275 
L 369.827788 -43.6275 
L 369.212675 -43.6275 
L 368.597562 -43.6275 
L 367.982449 -43.6275 
L 367.367336 -43.6275 
L 366.752223 -43.6275 
L 366.13711 -43.6275 
L 365.521997 -43.6275 
L 364.906884 -43.6275 
L 364.291771 -43.6275 
L 363.676658 -43.6275 
L 363.061546 -43.6275 
L 362.446433 -43.6275 
L 361.83132 -43.6275 
L 361.216207 -43.6275 
L 360.601094 -43.6275 
L 359.985981 -43.6275 
L 359.370868 -43.6275 
L 358.755755 -43.6275 
L 358.140642 -43.6275 
L 357.525529 -43.6275 
L 356.910416 -43.6275 
L 356.295303 -43.6275 
L 355.68019 -43.6275 
L 355.065077 -43.6275 
L 354.449964 -43.6275 
L 353.834852 -43.6275 
L 353.219739 -43.6275 
L 352.604626 -43.6275 
L 351.989513 -43.6275 
L 351.3744 -43.6275 
L 350.759287 -43.6275 
L 350.144174 -43.6275 
L 349.529061 -43.6275 
L 348.913948 -43.6275 
L 348.298835 -43.6275 
L 347.683722 -43.6275 
L 347.068609 -43.6275 
L 346.453496 -43.6275 
L 345.838383 -43.6275 
L 345.22327 -43.6275 
L 344.608158 -43.6275 
L 343.993045 -43.6275 
L 343.377932 -43.6275 
L 342.762819 -43.6275 
L 342.147706 -43.6275 
L 341.532593 -43.6275 
L 340.91748 -43.6275 
L 340.302367 -43.6275 
L 339.687254 -43.6275 
L 339.072141 -43.6275 
L 338.457028 -43.6275 
L 337.841915 -43.6275 
L 337.226802 -43.6275 
L 336.611689 -43.6275 
L 335.996576 -43.6275 
L 335.381464 -43.6275 
L 334.766351 -43.6275 
L 334.151238 -43.6275 
L 333.536125 -43.6275 
L 332.921012 -43.6275 
L 332.305899 -43.6275 
L 331.690786 -43.6275 
L 331.075673 -43.6275 
L 330.46056 -43.6275 
L 329.845447 -43.6275 
L 329.230334 -43.6275 
L 328.615221 -43.6275 
L 328.000108 -43.6275 
L 327.384995 -43.6275 
L 326.769882 -43.6275 
L 326.15477 -43.6275 
L 325.539657 -43.6275 
L 324.924544 -43.6275 
L 324.309431 -43.6275 
L 323.694318 -43.6275 
L 323.079205 -43.6275 
L 322.464092 -43.6275 
L 321.848979 -43.6275 
L 321.233866 -43.6275 
L 320.618753 -43.6275 
L 320.00364 -43.6275 
L 319.388527 -43.6275 
L 318.773414 -43.6275 
L 318.158301 -43.6275 
L 317.543188 -43.6275 
L 316.928076 -43.6275 
L 316.312963 -43.6275 
L 315.69785 -43.6275 
L 315.082737 -43.6275 
L 314.467624 -43.6275 
L 313.852511 -43.6275 
L 313.237398 -43.6275 
L 312.622285 -43.6275 
L 312.007172 -43.6275 
L 311.392059 -43.6275 
L 310.776946 -43.6275 
L 310.161833 -43.6275 
L 309.54672 -43.6275 
L 308.931607 -43.6275 
L 308.316494 -43.6275 
L 307.701382 -43.6275 
L 307.086269 -43.6275 
L 306.471156 -43.6275 
L 305.856043 -43.6275 
L 305.24093 -43.6275 
L 304.625817 -43.6275 
L 304.010704 -43.6275 
L 303.395591 -43.6275 
L 302.780478 -43.6275 
L 302.165365 -43.6275 
L 301.550252 -43.6275 
L 300.935139 -43.6275 
L 300.320026 -43.6275 
L 299.704913 -43.6275 
L 299.0898 -43.6275 
L 298.474688 -43.6275 
L 297.859575 -43.6275 
L 297.244462 -43.6275 
L 296.629349 -43.6275 
L 296.014236 -43.6275 
L 295.399123 -43.6275 
L 294.78401 -43.6275 
L 294.168897 -43.6275 
L 293.553784 -43.6275 
L 292.938671 -43.6275 
L 292.323558 -43.6275 
L 291.708445 -43.6275 
L 291.093332 -43.6275 
L 290.478219 -43.6275 
L 289.863106 -43.6275 
L 289.247994 -43.6275 
L 288.632881 -43.6275 
L 288.017768 -43.6275 
L 287.402655 -43.6275 
L 286.787542 -43.6275 
L 286.172429 -43.6275 
L 285.557316 -43.6275 
L 284.942203 -43.6275 
L 284.32709 -43.6275 
L 283.711977 -43.6275 
L 283.096864 -43.6275 
L 282.481751 -43.6275 
L 281.866638 -43.6275 
L 281.251525 -43.6275 
L 280.636412 -43.6275 
L 280.0213 -43.6275 
L 279.406187 -43.6275 
L 278.791074 -43.6275 
L 278.175961 -43.6275 
L 277.560848 -43.6275 
L 276.945735 -43.6275 
L 276.330622 -43.6275 
L 275.715509 -43.6275 
L 275.100396 -43.6275 
L 274.485283 -43.6275 
L 273.87017 -43.6275 
L 273.255057 -43.6275 
L 272.639944 -43.6275 
L 272.024831 -43.6275 
L 271.409718 -43.6275 
L 270.794606 -43.6275 
L 270.179493 -43.6275 
L 269.56438 -43.6275 
L 268.949267 -43.6275 
L 268.334154 -43.6275 
L 267.719041 -43.6275 
L 267.103928 -43.6275 
L 266.488815 -43.6275 
L 265.873702 -43.6275 
L 265.258589 -43.6275 
L 264.643476 -43.6275 
L 264.028363 -43.6275 
L 263.41325 -43.6275 
L 262.798137 -43.6275 
L 262.183024 -43.6275 
L 261.567912 -43.6275 
L 260.952799 -43.6275 
L 260.337686 -43.6275 
L 259.722573 -43.6275 
L 259.10746 -43.6275 
L 258.492347 -43.6275 
L 257.877234 -43.6275 
L 257.262121 -43.6275 
L 256.647008 -43.6275 
L 256.031895 -43.6275 
L 255.416782 -43.6275 
L 254.801669 -43.6275 
L 254.186556 -43.6275 
L 253.571443 -43.6275 
L 252.95633 -43.6275 
L 252.341218 -43.6275 
L 251.726105 -43.6275 
L 251.110992 -43.6275 
L 250.495879 -43.6275 
L 249.880766 -43.6275 
L 249.265653 -43.6275 
L 248.65054 -43.6275 
L 248.035427 -43.6275 
L 247.420314 -43.6275 
L 246.805201 -43.6275 
L 246.190088 -43.6275 
L 245.574975 -43.6275 
L 244.959862 -43.6275 
L 244.344749 -43.6275 
L 243.729636 -43.6275 
L 243.114524 -43.6275 
L 242.499411 -43.6275 
L 241.884298 -43.6275 
L 241.269185 -43.6275 
L 240.654072 -43.6275 
L 240.038959 -43.6275 
L 239.423846 -43.6275 
L 238.808733 -43.6275 
L 238.19362 -43.6275 
L 237.578507 -43.6275 
L 236.963394 -43.6275 
L 236.348281 -43.6275 
L 235.733168 -43.6275 
L 235.118055 -43.6275 
L 234.502942 -43.6275 
L 233.88783 -43.6275 
L 233.272717 -43.6275 
L 232.657604 -43.6275 
L 232.042491 -43.6275 
L 231.427378 -43.6275 
L 230.812265 -43.6275 
L 230.197152 -43.6275 
L 229.582039 -43.6275 
L 228.966926 -43.6275 
L 228.351813 -43.6275 
L 227.7367 -43.6275 
L 227.121587 -43.6275 
L 226.506474 -43.6275 
L 225.891361 -43.6275 
L 225.276248 -43.6275 
L 224.661136 -43.6275 
L 224.046023 -43.6275 
L 223.43091 -43.6275 
L 222.815797 -43.6275 
L 222.200684 -43.6275 
L 221.585571 -43.6275 
L 220.970458 -43.6275 
L 220.355345 -43.6275 
L 219.740232 -43.6275 
L 219.125119 -43.6275 
L 218.510006 -43.6275 
L 217.894893 -43.6275 
L 217.27978 -43.6275 
L 216.664667 -43.6275 
L 216.049554 -43.6275 
L 215.434442 -43.6275 
L 214.819329 -43.6275 
L 214.204216 -43.6275 
L 213.589103 -43.6275 
L 212.97399 -43.6275 
L 212.358877 -43.6275 
L 211.743764 -43.6275 
L 211.128651 -43.6275 
L 210.513538 -43.6275 
L 209.898425 -43.6275 
L 209.283312 -43.6275 
L 208.668199 -43.6275 
L 208.053086 -43.6275 
L 207.437973 -43.6275 
L 206.82286 -43.6275 
L 206.207748 -43.6275 
L 205.592635 -43.6275 
L 204.977522 -43.6275 
L 204.362409 -43.6275 
L 203.747296 -43.6275 
L 203.132183 -43.6275 
L 202.51707 -43.6275 
L 201.901957 -43.6275 
L 201.286844 -43.6275 
L 200.671731 -43.6275 
L 200.056618 -43.6275 
L 199.441505 -43.6275 
L 198.826392 -43.6275 
L 198.211279 -43.6275 
L 197.596166 -43.6275 
L 196.981054 -43.6275 
L 196.365941 -43.6275 
L 195.750828 -43.6275 
L 195.135715 -43.6275 
L 194.520602 -43.6275 
L 193.905489 -43.6275 
L 193.290376 -43.6275 
L 192.675263 -43.6275 
L 192.06015 -43.6275 
L 191.445037 -43.6275 
L 190.829924 -43.6275 
L 190.214811 -43.6275 
L 189.599698 -43.6275 
L 188.984585 -43.6275 
L 188.369472 -43.6275 
L 187.75436 -43.6275 
L 187.139247 -43.6275 
L 186.524134 -43.6275 
L 185.909021 -43.6275 
L 185.293908 -43.6275 
L 184.678795 -43.6275 
L 184.063682 -43.6275 
L 183.448569 -43.6275 
L 182.833456 -43.6275 
L 182.218343 -43.6275 
L 181.60323 -43.6275 
L 180.988117 -43.6275 
L 180.373004 -43.6275 
L 179.757891 -43.6275 
L 179.142778 -43.6275 
L 178.527666 -43.6275 
L 177.912553 -43.6275 
L 177.29744 -43.6275 
L 176.682327 -43.6275 
L 176.067214 -43.6275 
L 175.452101 -43.6275 
L 174.836988 -43.6275 
L 174.221875 -43.6275 
L 173.606762 -43.6275 
L 172.991649 -43.6275 
L 172.376536 -43.6275 
L 171.761423 -43.6275 
L 171.14631 -43.6275 
L 170.531197 -43.6275 
L 169.916084 -43.6275 
L 169.300972 -43.6275 
L 168.685859 -43.6275 
L 168.070746 -43.6275 
L 167.455633 -43.6275 
L 166.84052 -43.6275 
L 166.225407 -43.6275 
L 165.610294 -43.6275 
L 164.995181 -43.6275 
L 164.380068 -43.6275 
L 163.764955 -43.6275 
L 163.149842 -43.6275 
L 162.534729 -43.6275 
L 161.919616 -43.6275 
L 161.304503 -43.6275 
L 160.68939 -43.6275 
L 160.074278 -43.6275 
L 159.459165 -43.6275 
L 158.844052 -43.6275 
L 158.228939 -43.6275 
L 157.613826 -43.6275 
L 156.998713 -43.6275 
L 156.3836 -43.6275 
L 155.768487 -43.6275 
L 155.153374 -43.6275 
L 154.538261 -43.6275 
L 153.923148 -43.6275 
L 153.308035 -43.6275 
L 152.692922 -43.6275 
L 152.077809 -43.6275 
L 151.462696 -43.6275 
L 150.847584 -43.6275 
L 150.232471 -43.6275 
L 149.617358 -43.6275 
L 149.002245 -43.6275 
L 148.387132 -43.6275 
L 147.772019 -43.6275 
L 147.156906 -43.6275 
L 146.541793 -43.6275 
L 145.92668 -43.6275 
L 145.311567 -43.6275 
L 144.696454 -43.6275 
L 144.081341 -43.6275 
L 143.466228 -43.6275 
L 142.851115 -43.6275 
L 142.236002 -43.6275 
L 141.62089 -43.6275 
L 141.005777 -43.6275 
L 140.390664 -43.6275 
L 139.775551 -43.6275 
L 139.160438 -43.6275 
L 138.545325 -43.6275 
L 137.930212 -43.6275 
L 137.315099 -43.6275 
L 136.699986 -43.6275 
L 136.084873 -43.6275 
L 135.46976 -43.6275 
L 134.854647 -43.6275 
L 134.239534 -43.6275 
L 133.624421 -43.6275 
L 133.009308 -43.6275 
L 132.394196 -43.6275 
L 131.779083 -43.6275 
L 131.16397 -43.6275 
L 130.548857 -43.6275 
L 129.933744 -43.6275 
L 129.318631 -43.6275 
L 128.703518 -43.6275 
L 128.088405 -43.6275 
L 127.473292 -43.6275 
L 126.858179 -43.6275 
L 126.243066 -43.6275 
L 125.627953 -43.6275 
L 125.01284 -43.6275 
L 124.397727 -43.6275 
L 123.782614 -43.6275 
L 123.167502 -43.6275 
L 122.552389 -43.6275 
L 121.937276 -43.6275 
L 121.322163 -43.6275 
L 120.70705 -43.6275 
L 120.091937 -43.6275 
L 119.476824 -43.6275 
L 118.861711 -43.6275 
L 118.246598 -43.6275 
L 117.631485 -43.6275 
L 117.016372 -43.6275 
L 116.401259 -43.6275 
L 115.786146 -43.6275 
L 115.171033 -43.6275 
L 114.55592 -43.6275 
L 113.940808 -43.6275 
L 113.325695 -43.6275 
L 112.710582 -43.6275 
L 112.095469 -43.6275 
L 111.480356 -43.6275 
L 110.865243 -43.6275 
L 110.25013 -43.6275 
L 109.635017 -43.6275 
L 109.019904 -43.6275 
L 108.404791 -43.6275 
L 107.789678 -43.6275 
L 107.174565 -43.6275 
L 106.559452 -43.6275 
L 105.944339 -43.6275 
L 105.329226 -43.6275 
L 104.714114 -43.6275 
L 104.099001 -43.6275 
L 103.483888 -43.6275 
L 102.868775 -43.6275 
L 102.253662 -43.6275 
L 101.638549 -43.6275 
L 101.023436 -43.6275 
L 100.408323 -43.6275 
L 99.79321 -43.6275 
L 99.178097 -43.6275 
L 98.562984 -43.6275 
L 97.947871 -43.6275 
L 97.332758 -43.6275 
L 96.717645 -43.6275 
L 96.102532 -43.6275 
L 95.48742 -43.6275 
L 94.872307 -43.6275 
L 94.257194 -43.6275 
L 93.642081 -43.6275 
L 93.026968 -43.6275 
L 92.411855 -43.6275 
L 91.796742 -43.6275 
L 91.181629 -43.6275 
L 90.566516 -43.6275 
L 89.951403 -43.6275 
L 89.33629 -43.6275 
L 88.721177 -43.6275 
L 88.106064 -43.6275 
L 87.490951 -43.6275 
L 86.875838 -43.6275 
L 86.260726 -43.6275 
L 85.645613 -43.6275 
L 85.0305 -43.6275 
L 84.415387 -43.6275 
L 83.800274 -43.6275 
L 83.185161 -43.6275 
L 82.570048 -43.6275 
L 81.954935 -43.6275 
L 81.339822 -43.6275 
L 80.724709 -43.6275 
L 80.109596 -43.6275 
L 79.494483 -43.6275 
L 78.87937 -43.6275 
L 78.264257 -43.6275 
L 77.649144 -43.6275 
L 77.034032 -43.6275 
L 76.418919 -43.6275 
L 75.803806 -43.6275 
L 75.188693 -43.6275 
L 74.57358 -43.6275 
L 73.958467 -43.6275 
L 73.343354 -43.6275 
L 72.728241 -43.6275 
L 72.113128 -43.6275 
L 71.498015 -43.6275 
L 70.882902 -43.6275 
L 70.267789 -43.6275 
L 69.652676 -43.6275 
L 69.037563 -43.6275 
L 68.42245 -43.6275 
L 67.807338 -43.6275 
L 67.192225 -43.6275 
L 66.577112 -43.6275 
L 65.961999 -43.6275 
L 65.346886 -43.6275 
L 64.731773 -43.6275 
L 64.11666 -43.6275 
L 63.501547 -43.6275 
L 62.886434 -43.6275 
L 62.271321 -43.6275 
L 61.656208 -43.6275 
L 61.041095 -43.6275 
L 60.425982 -43.6275 
L 59.810869 -43.6275 
L 59.195757 -43.6275 
L 58.580644 -43.6275 
L 57.965531 -43.6275 
L 57.350418 -43.6275 
L 56.735305 -43.6275 
L 56.120192 -43.6275 
L 55.505079 -43.6275 
L 54.889966 -43.6275 
L 54.274853 -43.6275 
L 53.65974 -43.6275 
L 53.044627 -43.6275 
L 52.429514 -43.6275 
L 51.814401 -43.6275 
L 51.199288 -43.6275 
L 50.584175 -43.6275 
L 49.969063 -43.6275 
z
" style="stroke: #58b8a7; stroke-opacity: 0.22"/>
    </defs>
    <g clip-path="url(#p548844d561)">
     <use xlink:href="#meb46d5c0ba" x="0" y="317.52773" style="fill: #58b8a7; fill-opacity: 0.22; stroke: #58b8a7; stroke-opacity: 0.22"/>
    </g>
   </g>
   <g id="matplotlib.axis_1">
    <g id="xtick_1">
     <g id="line2d_1">
      <defs>
       <path id="mdf534ed16e" d="M 0 0 
L 0 3.5 
" style="stroke: #2f7e79; stroke-width: 0.8"/>
      </defs>
      <g>
       <use xlink:href="#mdf534ed16e" x="49.969063" y="273.90023" style="fill: #2f7e79; stroke: #2f7e79; stroke-width: 0.8"/>
      </g>
     </g>
     <g id="text_1">
      <!-- 0 -->
      <g style="fill: #2f7e79" transform="translate(46.199063 290.475543) scale(0.13 -0.13)">
       <defs>
        <path id="Lato-Regular-30" d="M 3520 2291 
Q 3520 1690 3390 1250 
Q 3261 810 3037 522 
Q 2813 234 2507 93 
Q 2202 -48 1853 -48 
Q 1501 -48 1198 93 
Q 896 234 672 522 
Q 448 810 320 1250 
Q 192 1690 192 2291 
Q 192 2893 320 3334 
Q 448 3776 672 4065 
Q 896 4355 1198 4496 
Q 1501 4637 1853 4637 
Q 2202 4637 2507 4496 
Q 2813 4355 3037 4065 
Q 3261 3776 3390 3334 
Q 3520 2893 3520 2291 
z
M 2928 2291 
Q 2928 2816 2840 3173 
Q 2752 3530 2603 3747 
Q 2454 3965 2259 4059 
Q 2064 4154 1853 4154 
Q 1642 4154 1446 4059 
Q 1251 3965 1104 3747 
Q 957 3530 869 3173 
Q 781 2816 781 2291 
Q 781 1766 869 1411 
Q 957 1056 1104 838 
Q 1251 621 1446 526 
Q 1642 432 1853 432 
Q 2064 432 2259 526 
Q 2454 621 2603 838 
Q 2752 1056 2840 1411 
Q 2928 1766 2928 2291 
z
" transform="scale(0.015625)"/>
       </defs>
       <use xlink:href="#Lato-Regular-30"/>
      </g>
     </g>
    </g>
    <g id="xtick_2">
     <g id="line2d_2">
      <g>
       <use xlink:href="#mdf534ed16e" x="111.480356" y="273.90023" style="fill: #2f7e79; stroke: #2f7e79; stroke-width: 0.8"/>
      </g>
     </g>
     <g id="text_2">
      <!-- 1 -->
      <g style="fill: #2f7e79" transform="translate(107.710356 290.475543) scale(0.13 -0.13)">
       <defs>
        <path id="Lato-Regular-31" d="M 3258 435 
L 3258 0 
L 800 0 
L 800 435 
L 1782 435 
L 1782 3562 
Q 1782 3702 1792 3846 
L 976 3146 
Q 934 3110 892 3102 
Q 851 3094 816 3100 
Q 781 3107 750 3126 
Q 720 3146 704 3168 
L 525 3414 
L 1891 4595 
L 2355 4595 
L 2355 435 
L 3258 435 
z
" transform="scale(0.015625)"/>
       </defs>
       <use xlink:href="#Lato-Regular-31"/>
      </g>
     </g>
    </g>
    <g id="xtick_3">
     <g id="line2d_3">
      <g>
       <use xlink:href="#mdf534ed16e" x="172.991649" y="273.90023" style="fill: #2f7e79; stroke: #2f7e79; stroke-width: 0.8"/>
      </g>
     </g>
     <g id="text_3">
      <!-- 2 -->
      <g style="fill: #2f7e79" transform="translate(169.221649 290.475543) scale(0.13 -0.13)">
       <defs>
        <path id="Lato-Regular-32" d="M 3158 541 
Q 3251 541 3305 486 
Q 3360 432 3360 346 
L 3360 0 
L 301 0 
L 301 195 
Q 301 256 326 320 
Q 352 384 406 438 
L 1875 1914 
Q 2058 2099 2208 2270 
Q 2358 2442 2464 2614 
Q 2570 2787 2627 2964 
Q 2685 3142 2685 3344 
Q 2685 3546 2621 3698 
Q 2557 3850 2446 3949 
Q 2336 4048 2185 4097 
Q 2035 4147 1862 4147 
Q 1686 4147 1539 4096 
Q 1392 4045 1278 3953 
Q 1165 3862 1088 3737 
Q 1011 3613 979 3462 
Q 941 3350 875 3313 
Q 810 3277 691 3293 
L 394 3344 
Q 438 3658 568 3899 
Q 698 4141 894 4304 
Q 1091 4467 1344 4552 
Q 1597 4637 1891 4637 
Q 2182 4637 2435 4550 
Q 2688 4464 2873 4299 
Q 3059 4134 3164 3897 
Q 3270 3661 3270 3360 
Q 3270 3104 3193 2885 
Q 3117 2666 2985 2467 
Q 2854 2269 2683 2080 
Q 2512 1891 2320 1699 
L 1110 464 
Q 1238 499 1369 520 
Q 1501 541 1622 541 
L 3158 541 
z
" transform="scale(0.015625)"/>
       </defs>
       <use xlink:href="#Lato-Regular-32"/>
      </g>
     </g>
    </g>
    <g id="xtick_4">
     <g id="line2d_4">
      <g>
       <use xlink:href="#mdf534ed16e" x="234.502942" y="273.90023" style="fill: #2f7e79; stroke: #2f7e79; stroke-width: 0.8"/>
      </g>
     </g>
     <g id="text_4">
      <!-- 3 -->
      <g style="fill: #2f7e79" transform="translate(230.732942 290.475543) scale(0.13 -0.13)">
       <defs>
        <path id="Lato-Regular-33" d="M 416 3344 
Q 461 3658 589 3899 
Q 717 4141 913 4304 
Q 1110 4467 1364 4552 
Q 1619 4637 1914 4637 
Q 2205 4637 2451 4553 
Q 2698 4470 2875 4316 
Q 3053 4163 3152 3945 
Q 3251 3728 3251 3462 
Q 3251 3245 3195 3073 
Q 3139 2902 3035 2774 
Q 2931 2646 2784 2556 
Q 2637 2467 2454 2410 
Q 2902 2294 3128 2014 
Q 3354 1734 3354 1315 
Q 3354 998 3234 745 
Q 3114 493 2906 315 
Q 2698 138 2421 43 
Q 2144 -51 1827 -51 
Q 1462 -51 1203 40 
Q 944 131 765 291 
Q 586 451 470 670 
Q 355 890 275 1146 
L 522 1248 
Q 618 1290 709 1270 
Q 800 1251 842 1165 
Q 883 1075 945 950 
Q 1008 826 1117 710 
Q 1226 595 1394 515 
Q 1562 435 1821 435 
Q 2061 435 2241 513 
Q 2422 592 2542 717 
Q 2662 842 2723 995 
Q 2784 1149 2784 1299 
Q 2784 1485 2736 1638 
Q 2688 1792 2557 1904 
Q 2426 2016 2197 2080 
Q 1968 2144 1610 2144 
L 1610 2557 
Q 1904 2560 2110 2621 
Q 2317 2682 2446 2787 
Q 2576 2893 2635 3040 
Q 2694 3187 2694 3366 
Q 2694 3565 2632 3712 
Q 2570 3859 2461 3955 
Q 2352 4051 2203 4099 
Q 2054 4147 1882 4147 
Q 1709 4147 1560 4096 
Q 1411 4045 1297 3953 
Q 1184 3862 1107 3737 
Q 1030 3613 998 3462 
Q 957 3350 894 3313 
Q 832 3277 714 3293 
L 416 3344 
z
" transform="scale(0.015625)"/>
       </defs>
       <use xlink:href="#Lato-Regular-33"/>
      </g>
     </g>
    </g>
    <g id="xtick_5">
     <g id="line2d_5">
      <g>
       <use xlink:href="#mdf534ed16e" x="296.014236" y="273.90023" style="fill: #2f7e79; stroke: #2f7e79; stroke-width: 0.8"/>
      </g>
     </g>
     <g id="text_5">
      <!-- 4 -->
      <g style="fill: #2f7e79" transform="translate(292.244236 290.475543) scale(0.13 -0.13)">
       <defs>
        <path id="Lato-Regular-34" d="M 2336 1654 
L 2336 3546 
Q 2336 3629 2342 3728 
Q 2349 3827 2362 3930 
L 691 1654 
L 2336 1654 
z
M 3530 1654 
L 3530 1328 
Q 3530 1277 3499 1241 
Q 3469 1206 3405 1206 
L 2835 1206 
L 2835 0 
L 2336 0 
L 2336 1206 
L 301 1206 
Q 237 1206 190 1243 
Q 144 1280 131 1334 
L 74 1626 
L 2304 4586 
L 2835 4586 
L 2835 1654 
L 3530 1654 
z
" transform="scale(0.015625)"/>
       </defs>
       <use xlink:href="#Lato-Regular-34"/>
      </g>
     </g>
    </g>
    <g id="xtick_6">
     <g id="line2d_6">
      <g>
       <use xlink:href="#mdf534ed16e" x="357.525529" y="273.90023" style="fill: #2f7e79; stroke: #2f7e79; stroke-width: 0.8"/>
      </g>
     </g>
     <g id="text_6">
      <!-- 5 -->
      <g style="fill: #2f7e79" transform="translate(353.755529 290.475543) scale(0.13 -0.13)">
       <defs>
        <path id="Lato-Regular-35" d="M 1158 2854 
Q 1517 2931 1818 2931 
Q 2176 2931 2451 2825 
Q 2726 2720 2910 2534 
Q 3094 2349 3188 2096 
Q 3283 1843 3283 1546 
Q 3283 1181 3156 886 
Q 3030 592 2808 382 
Q 2586 173 2285 61 
Q 1984 -51 1635 -51 
Q 1434 -51 1248 -11 
Q 1062 29 900 96 
Q 739 163 601 249 
Q 464 336 358 432 
L 534 675 
Q 592 758 685 758 
Q 749 758 829 708 
Q 909 659 1024 598 
Q 1139 538 1294 488 
Q 1450 438 1664 438 
Q 1904 438 2096 515 
Q 2288 592 2425 734 
Q 2563 877 2636 1075 
Q 2710 1274 2710 1520 
Q 2710 1734 2648 1907 
Q 2586 2080 2459 2201 
Q 2333 2323 2144 2390 
Q 1955 2458 1702 2458 
Q 1530 2458 1342 2429 
Q 1155 2400 960 2336 
L 602 2442 
L 970 4586 
L 3142 4586 
L 3142 4336 
Q 3142 4214 3067 4136 
Q 2992 4058 2810 4058 
L 1370 4058 
L 1158 2854 
z
" transform="scale(0.015625)"/>
       </defs>
       <use xlink:href="#Lato-Regular-35"/>
      </g>
     </g>
    </g>
    <g id="xtick_7">
     <g id="line2d_7">
      <g>
       <use xlink:href="#mdf534ed16e" x="419.036822" y="273.90023" style="fill: #2f7e79; stroke: #2f7e79; stroke-width: 0.8"/>
      </g>
     </g>
     <g id="text_7">
      <!-- 6 -->
      <g style="fill: #2f7e79" transform="translate(415.266822 290.475543) scale(0.13 -0.13)">
       <defs>
        <path id="Lato-Regular-36" d="M 1850 422 
Q 2080 422 2267 496 
Q 2454 570 2587 701 
Q 2720 832 2792 1011 
Q 2864 1190 2864 1402 
Q 2864 1626 2793 1806 
Q 2723 1987 2593 2113 
Q 2464 2240 2285 2307 
Q 2106 2374 1891 2374 
Q 1661 2374 1475 2296 
Q 1290 2218 1160 2085 
Q 1030 1952 961 1777 
Q 893 1603 893 1414 
Q 893 1194 957 1011 
Q 1021 829 1144 697 
Q 1267 566 1444 494 
Q 1622 422 1850 422 
z
M 1517 2867 
Q 1456 2790 1400 2718 
Q 1344 2646 1293 2576 
Q 1456 2688 1651 2749 
Q 1846 2810 2077 2810 
Q 2355 2810 2601 2718 
Q 2848 2627 3032 2452 
Q 3216 2278 3325 2024 
Q 3434 1770 3434 1443 
Q 3434 1126 3318 854 
Q 3203 582 2996 380 
Q 2790 179 2500 64 
Q 2211 -51 1862 -51 
Q 1517 -51 1235 59 
Q 954 170 757 373 
Q 560 576 453 865 
Q 346 1155 346 1514 
Q 346 1814 478 2155 
Q 611 2496 902 2883 
L 2067 4448 
Q 2112 4506 2190 4546 
Q 2269 4586 2371 4586 
L 2877 4586 
L 1517 2867 
z
" transform="scale(0.015625)"/>
       </defs>
       <use xlink:href="#Lato-Regular-36"/>
      </g>
     </g>
    </g>
    <g id="text_8">
     <!-- state x -->
     <g style="fill: #12343b" transform="translate(212.537317 307.754293) scale(0.15 -0.15)">
      <defs>
       <path id="Lato-Regular-73" d="M 2339 2707 
Q 2301 2637 2221 2637 
Q 2173 2637 2112 2672 
Q 2051 2707 1963 2750 
Q 1875 2794 1753 2830 
Q 1632 2867 1466 2867 
Q 1322 2867 1206 2830 
Q 1091 2794 1009 2730 
Q 928 2666 885 2581 
Q 842 2496 842 2397 
Q 842 2272 914 2189 
Q 986 2106 1104 2045 
Q 1222 1984 1372 1937 
Q 1523 1891 1681 1838 
Q 1840 1786 1990 1722 
Q 2141 1658 2259 1562 
Q 2378 1466 2450 1326 
Q 2522 1187 2522 992 
Q 2522 768 2442 577 
Q 2362 387 2205 248 
Q 2048 109 1821 29 
Q 1594 -51 1296 -51 
Q 957 -51 681 59 
Q 406 170 214 342 
L 349 560 
Q 374 602 409 624 
Q 445 646 499 646 
Q 557 646 621 601 
Q 685 557 776 502 
Q 867 448 998 403 
Q 1130 358 1325 358 
Q 1491 358 1616 401 
Q 1741 445 1824 518 
Q 1907 592 1947 688 
Q 1987 784 1987 893 
Q 1987 1027 1915 1115 
Q 1843 1203 1724 1265 
Q 1606 1328 1454 1374 
Q 1302 1421 1144 1472 
Q 986 1523 834 1588 
Q 682 1654 563 1753 
Q 445 1853 373 1998 
Q 301 2144 301 2352 
Q 301 2538 377 2709 
Q 454 2880 601 3009 
Q 749 3139 963 3216 
Q 1178 3293 1453 3293 
Q 1773 3293 2027 3192 
Q 2282 3091 2467 2915 
L 2339 2707 
z
" transform="scale(0.015625)"/>
       <path id="Lato-Regular-74" d="M 1446 -51 
Q 1062 -51 856 163 
Q 650 378 650 781 
L 650 2765 
L 259 2765 
Q 208 2765 173 2795 
Q 138 2826 138 2890 
L 138 3117 
L 669 3184 
L 800 4186 
Q 810 4234 843 4264 
Q 877 4294 931 4294 
L 1219 4294 
L 1219 3178 
L 2157 3178 
L 2157 2765 
L 1219 2765 
L 1219 819 
Q 1219 614 1318 515 
Q 1418 416 1574 416 
Q 1664 416 1729 440 
Q 1795 464 1843 493 
Q 1891 522 1924 546 
Q 1958 570 1984 570 
Q 2029 570 2064 515 
L 2230 243 
Q 2083 106 1875 27 
Q 1667 -51 1446 -51 
z
" transform="scale(0.015625)"/>
       <path id="Lato-Regular-61" d="M 2208 1459 
Q 1814 1446 1537 1396 
Q 1261 1347 1086 1267 
Q 912 1187 833 1078 
Q 755 970 755 835 
Q 755 707 796 614 
Q 838 522 910 462 
Q 982 403 1080 376 
Q 1178 349 1290 349 
Q 1440 349 1565 379 
Q 1690 410 1800 467 
Q 1910 525 2011 605 
Q 2112 685 2208 787 
L 2208 1459 
z
M 368 2784 
Q 637 3043 947 3171 
Q 1258 3299 1635 3299 
Q 1907 3299 2118 3209 
Q 2330 3120 2474 2960 
Q 2618 2800 2691 2573 
Q 2765 2346 2765 2074 
L 2765 0 
L 2512 0 
Q 2429 0 2384 27 
Q 2339 54 2314 134 
L 2250 442 
Q 2122 323 2000 232 
Q 1878 141 1744 78 
Q 1610 16 1458 -17 
Q 1306 -51 1120 -51 
Q 931 -51 764 1 
Q 598 54 475 160 
Q 352 266 280 427 
Q 208 589 208 810 
Q 208 1002 313 1179 
Q 419 1357 656 1494 
Q 893 1632 1273 1720 
Q 1654 1808 2208 1821 
L 2208 2074 
Q 2208 2451 2045 2644 
Q 1882 2838 1568 2838 
Q 1357 2838 1214 2785 
Q 1072 2733 968 2667 
Q 864 2602 789 2549 
Q 714 2496 640 2496 
Q 582 2496 540 2526 
Q 499 2557 470 2602 
L 368 2784 
z
" transform="scale(0.015625)"/>
       <path id="Lato-Regular-65" d="M 2621 1974 
Q 2621 2173 2565 2337 
Q 2509 2502 2401 2622 
Q 2294 2742 2140 2808 
Q 1987 2874 1792 2874 
Q 1382 2874 1144 2635 
Q 906 2397 848 1974 
L 2621 1974 
z
M 3082 454 
Q 2976 326 2829 232 
Q 2682 138 2514 77 
Q 2346 16 2166 -14 
Q 1987 -45 1811 -45 
Q 1475 -45 1192 68 
Q 909 182 702 401 
Q 496 621 381 944 
Q 266 1267 266 1686 
Q 266 2026 370 2320 
Q 474 2614 669 2830 
Q 864 3046 1145 3169 
Q 1427 3293 1779 3293 
Q 2070 3293 2318 3195 
Q 2566 3098 2747 2914 
Q 2928 2730 3030 2459 
Q 3133 2189 3133 1843 
Q 3133 1709 3104 1664 
Q 3075 1619 2995 1619 
L 829 1619 
Q 838 1312 913 1085 
Q 989 858 1123 706 
Q 1258 554 1443 478 
Q 1629 403 1859 403 
Q 2074 403 2229 452 
Q 2384 502 2496 560 
Q 2608 618 2683 667 
Q 2758 717 2813 717 
Q 2883 717 2922 662 
L 3082 454 
z
" transform="scale(0.015625)"/>
       <path id="Lato-Regular-20" transform="scale(0.015625)"/>
       <path id="Lato-Regular-78" d="M 3114 0 
L 2566 0 
Q 2496 0 2456 37 
Q 2416 74 2390 118 
L 1574 1389 
Q 1562 1344 1547 1301 
Q 1533 1258 1507 1222 
L 752 118 
Q 720 74 683 37 
Q 646 0 582 0 
L 74 0 
L 1210 1664 
L 118 3242 
L 666 3242 
Q 736 3242 768 3219 
Q 800 3197 826 3155 
L 1622 1939 
Q 1648 2032 1702 2118 
L 2400 3142 
Q 2429 3187 2462 3214 
Q 2496 3242 2544 3242 
L 3069 3242 
L 1978 1693 
L 3114 0 
z
" transform="scale(0.015625)"/>
      </defs>
      <use xlink:href="#Lato-Regular-73"/>
      <use xlink:href="#Lato-Regular-74" x="43.300003"/>
      <use xlink:href="#Lato-Regular-61" x="79.150009"/>
      <use xlink:href="#Lato-Regular-74" x="128.850021"/>
      <use xlink:href="#Lato-Regular-65" x="164.700027"/>
      <use xlink:href="#Lato-Regular-20" x="217.500031"/>
      <use xlink:href="#Lato-Regular-78" x="243.100037"/>
     </g>
    </g>
   </g>
   <g id="matplotlib.axis_2">
    <g id="ytick_1">
     <g id="line2d_8">
      <defs>
       <path id="m701e902c5a" d="M 0 0 
L -3.5 0 
" style="stroke: #2f7e79; stroke-width: 0.8"/>
      </defs>
      <g>
       <use xlink:href="#m701e902c5a" x="49.969063" y="273.90023" style="fill: #2f7e79; stroke: #2f7e79; stroke-width: 0.8"/>
      </g>
     </g>
     <g id="text_9">
      <!-- 0.0 -->
      <g style="fill: #2f7e79" transform="translate(24.821875 278.687886) scale(0.13 -0.13)">
       <defs>
        <path id="Lato-Regular-2e" d="M 355 352 
Q 355 435 385 508 
Q 416 582 469 636 
Q 522 691 595 723 
Q 669 755 752 755 
Q 835 755 908 723 
Q 982 691 1036 636 
Q 1091 582 1123 508 
Q 1155 435 1155 352 
Q 1155 266 1123 194 
Q 1091 122 1036 67 
Q 982 13 908 -17 
Q 835 -48 752 -48 
Q 669 -48 595 -17 
Q 522 13 469 67 
Q 416 122 385 194 
Q 355 266 355 352 
z
" transform="scale(0.015625)"/>
       </defs>
       <use xlink:href="#Lato-Regular-30"/>
       <use xlink:href="#Lato-Regular-2e" x="58"/>
       <use xlink:href="#Lato-Regular-30" x="81.600006"/>
      </g>
     </g>
    </g>
    <g id="ytick_2">
     <g id="line2d_9">
      <g>
       <use xlink:href="#m701e902c5a" x="49.969063" y="242.468263" style="fill: #2f7e79; stroke: #2f7e79; stroke-width: 0.8"/>
      </g>
     </g>
     <g id="text_10">
      <!-- 0.1 -->
      <g style="fill: #2f7e79" transform="translate(24.821875 247.255919) scale(0.13 -0.13)">
       <use xlink:href="#Lato-Regular-30"/>
       <use xlink:href="#Lato-Regular-2e" x="58"/>
       <use xlink:href="#Lato-Regular-31" x="81.600006"/>
      </g>
     </g>
    </g>
    <g id="ytick_3">
     <g id="line2d_10">
      <g>
       <use xlink:href="#m701e902c5a" x="49.969063" y="211.036296" style="fill: #2f7e79; stroke: #2f7e79; stroke-width: 0.8"/>
      </g>
     </g>
     <g id="text_11">
      <!-- 0.2 -->
      <g style="fill: #2f7e79" transform="translate(24.821875 215.823952) scale(0.13 -0.13)">
       <use xlink:href="#Lato-Regular-30"/>
       <use xlink:href="#Lato-Regular-2e" x="58"/>
       <use xlink:href="#Lato-Regular-32" x="81.600006"/>
      </g>
     </g>
    </g>
    <g id="ytick_4">
     <g id="line2d_11">
      <g>
       <use xlink:href="#m701e902c5a" x="49.969063" y="179.604329" style="fill: #2f7e79; stroke: #2f7e79; stroke-width: 0.8"/>
      </g>
     </g>
     <g id="text_12">
      <!-- 0.3 -->
      <g style="fill: #2f7e79" transform="translate(24.821875 184.391985) scale(0.13 -0.13)">
       <use xlink:href="#Lato-Regular-30"/>
       <use xlink:href="#Lato-Regular-2e" x="58"/>
       <use xlink:href="#Lato-Regular-33" x="81.600006"/>
      </g>
     </g>
    </g>
    <g id="ytick_5">
     <g id="line2d_12">
      <g>
       <use xlink:href="#m701e902c5a" x="49.969063" y="148.172362" style="fill: #2f7e79; stroke: #2f7e79; stroke-width: 0.8"/>
      </g>
     </g>
     <g id="text_13">
      <!-- 0.4 -->
      <g style="fill: #2f7e79" transform="translate(24.821875 152.960018) scale(0.13 -0.13)">
       <use xlink:href="#Lato-Regular-30"/>
       <use xlink:href="#Lato-Regular-2e" x="58"/>
       <use xlink:href="#Lato-Regular-34" x="81.600006"/>
      </g>
     </g>
    </g>
    <g id="ytick_6">
     <g id="line2d_13">
      <g>
       <use xlink:href="#m701e902c5a" x="49.969063" y="116.740394" style="fill: #2f7e79; stroke: #2f7e79; stroke-width: 0.8"/>
      </g>
     </g>
     <g id="text_14">
      <!-- 0.5 -->
      <g style="fill: #2f7e79" transform="translate(24.821875 121.528051) scale(0.13 -0.13)">
       <use xlink:href="#Lato-Regular-30"/>
       <use xlink:href="#Lato-Regular-2e" x="58"/>
       <use xlink:href="#Lato-Regular-35" x="81.600006"/>
      </g>
     </g>
    </g>
    <g id="ytick_7">
     <g id="line2d_14">
      <g>
       <use xlink:href="#m701e902c5a" x="49.969063" y="85.308427" style="fill: #2f7e79; stroke: #2f7e79; stroke-width: 0.8"/>
      </g>
     </g>
     <g id="text_15">
      <!-- 0.6 -->
      <g style="fill: #2f7e79" transform="translate(24.821875 90.096084) scale(0.13 -0.13)">
       <use xlink:href="#Lato-Regular-30"/>
       <use xlink:href="#Lato-Regular-2e" x="58"/>
       <use xlink:href="#Lato-Regular-36" x="81.600006"/>
      </g>
     </g>
    </g>
    <g id="ytick_8">
     <g id="line2d_15">
      <g>
       <use xlink:href="#m701e902c5a" x="49.969063" y="53.87646" style="fill: #2f7e79; stroke: #2f7e79; stroke-width: 0.8"/>
      </g>
     </g>
     <g id="text_16">
      <!-- 0.7 -->
      <g style="fill: #2f7e79" transform="translate(24.821875 58.664116) scale(0.13 -0.13)">
       <defs>
        <path id="Lato-Regular-37" d="M 3459 4586 
L 3459 4330 
Q 3459 4221 3435 4150 
Q 3411 4080 3389 4032 
L 1488 202 
Q 1446 118 1372 59 
Q 1299 0 1178 0 
L 768 0 
L 2694 3782 
Q 2736 3862 2781 3929 
Q 2826 3997 2877 4058 
L 483 4058 
Q 429 4058 387 4101 
Q 346 4144 346 4198 
L 346 4586 
L 3459 4586 
z
" transform="scale(0.015625)"/>
       </defs>
       <use xlink:href="#Lato-Regular-30"/>
       <use xlink:href="#Lato-Regular-2e" x="58"/>
       <use xlink:href="#Lato-Regular-37" x="81.600006"/>
      </g>
     </g>
    </g>
    <g id="text_17">
     <!-- probability -->
     <g style="fill: #12343b" transform="translate(18.248438 185.475115) rotate(-90) scale(0.15 -0.15)">
      <defs>
       <path id="Lato-Regular-70" d="M 1024 781 
Q 1181 570 1366 483 
Q 1552 397 1782 397 
Q 2237 397 2480 720 
Q 2723 1043 2723 1642 
Q 2723 1958 2667 2185 
Q 2611 2413 2505 2558 
Q 2400 2704 2246 2771 
Q 2093 2838 1898 2838 
Q 1619 2838 1409 2710 
Q 1200 2582 1024 2349 
L 1024 781 
z
M 995 2739 
Q 1200 2992 1469 3145 
Q 1738 3299 2083 3299 
Q 2365 3299 2592 3192 
Q 2819 3085 2979 2875 
Q 3139 2666 3225 2355 
Q 3312 2045 3312 1642 
Q 3312 1283 3216 974 
Q 3120 666 2939 440 
Q 2758 214 2497 84 
Q 2237 -45 1910 -45 
Q 1613 -45 1400 56 
Q 1187 157 1024 336 
L 1024 -1098 
L 451 -1098 
L 451 3242 
L 794 3242 
Q 915 3242 944 3123 
L 995 2739 
z
" transform="scale(0.015625)"/>
       <path id="Lato-Regular-72" d="M 992 2592 
Q 1146 2925 1370 3112 
Q 1594 3299 1917 3299 
Q 2019 3299 2113 3276 
Q 2208 3254 2282 3206 
L 2240 2781 
Q 2221 2701 2144 2701 
Q 2099 2701 2012 2720 
Q 1926 2739 1818 2739 
Q 1664 2739 1544 2694 
Q 1424 2650 1329 2562 
Q 1235 2474 1160 2344 
Q 1085 2214 1024 2048 
L 1024 0 
L 451 0 
L 451 3242 
L 778 3242 
Q 870 3242 905 3206 
Q 941 3171 954 3085 
L 992 2592 
z
" transform="scale(0.015625)"/>
       <path id="Lato-Regular-6f" d="M 1818 3293 
Q 2173 3293 2457 3174 
Q 2742 3056 2944 2838 
Q 3146 2621 3253 2312 
Q 3360 2003 3360 1622 
Q 3360 1238 3253 931 
Q 3146 624 2944 406 
Q 2742 189 2457 72 
Q 2173 -45 1818 -45 
Q 1459 -45 1172 72 
Q 886 189 684 406 
Q 483 624 376 931 
Q 269 1238 269 1622 
Q 269 2003 376 2312 
Q 483 2621 684 2838 
Q 886 3056 1172 3174 
Q 1459 3293 1818 3293 
z
M 1818 400 
Q 2298 400 2534 721 
Q 2771 1043 2771 1619 
Q 2771 2198 2534 2521 
Q 2298 2845 1818 2845 
Q 1574 2845 1393 2761 
Q 1213 2678 1093 2521 
Q 973 2365 913 2136 
Q 854 1907 854 1619 
Q 854 1043 1092 721 
Q 1331 400 1818 400 
z
" transform="scale(0.015625)"/>
       <path id="Lato-Regular-62" d="M 1024 781 
Q 1181 570 1368 483 
Q 1555 397 1779 397 
Q 2237 397 2480 720 
Q 2723 1043 2723 1683 
Q 2723 2278 2507 2558 
Q 2291 2838 1891 2838 
Q 1613 2838 1406 2710 
Q 1200 2582 1024 2349 
L 1024 781 
z
M 1024 2774 
Q 1229 3011 1486 3152 
Q 1744 3293 2080 3293 
Q 2365 3293 2593 3184 
Q 2822 3075 2982 2868 
Q 3142 2662 3227 2368 
Q 3312 2074 3312 1706 
Q 3312 1312 3216 989 
Q 3120 666 2939 437 
Q 2758 208 2499 81 
Q 2240 -45 1917 -45 
Q 1597 -45 1377 75 
Q 1158 195 995 416 
L 966 122 
Q 941 0 819 0 
L 451 0 
L 451 4714 
L 1024 4714 
L 1024 2774 
z
" transform="scale(0.015625)"/>
       <path id="Lato-Regular-69" d="M 1053 3242 
L 1053 0 
L 483 0 
L 483 3242 
L 1053 3242 
z
M 1174 4259 
Q 1174 4176 1140 4104 
Q 1107 4032 1051 3976 
Q 995 3920 920 3888 
Q 845 3856 762 3856 
Q 678 3856 606 3888 
Q 534 3920 480 3976 
Q 426 4032 394 4104 
Q 362 4176 362 4259 
Q 362 4342 394 4417 
Q 426 4493 480 4549 
Q 534 4605 606 4637 
Q 678 4669 762 4669 
Q 845 4669 920 4637 
Q 995 4605 1051 4549 
Q 1107 4493 1140 4417 
Q 1174 4342 1174 4259 
z
" transform="scale(0.015625)"/>
       <path id="Lato-Regular-6c" d="M 1040 4714 
L 1040 0 
L 470 0 
L 470 4714 
L 1040 4714 
z
" transform="scale(0.015625)"/>
       <path id="Lato-Regular-79" d="M 3248 3242 
L 1440 -957 
Q 1411 -1021 1368 -1059 
Q 1325 -1098 1235 -1098 
L 813 -1098 
L 1405 189 
L 67 3242 
L 560 3242 
Q 634 3242 677 3205 
Q 720 3168 736 3123 
L 1603 1082 
Q 1654 947 1690 800 
Q 1734 950 1786 1085 
L 2627 3123 
Q 2646 3174 2692 3208 
Q 2739 3242 2797 3242 
L 3248 3242 
z
" transform="scale(0.015625)"/>
      </defs>
      <use xlink:href="#Lato-Regular-70"/>
      <use xlink:href="#Lato-Regular-72" x="56.050003"/>
      <use xlink:href="#Lato-Regular-6f" x="92.450012"/>
      <use xlink:href="#Lato-Regular-62" x="149.150024"/>
      <use xlink:href="#Lato-Regular-61" x="205.150024"/>
      <use xlink:href="#Lato-Regular-62" x="254.850037"/>
      <use xlink:href="#Lato-Regular-69" x="310.850037"/>
      <use xlink:href="#Lato-Regular-6c" x="334.850037"/>
      <use xlink:href="#Lato-Regular-69" x="358.450043"/>
      <use xlink:href="#Lato-Regular-74" x="382.450043"/>
      <use xlink:href="#Lato-Regular-79" x="418.300049"/>
     </g>
    </g>
   </g>
   <g id="line2d_16">
    <path d="M 49.969063 273.878153 
L 63.501547 273.718548 
L 70.267789 273.429999 
L 75.188693 273.00081 
L 78.87937 272.471793 
L 81.954935 271.832444 
L 85.0305 270.949052 
L 87.490951 270.017334 
L 89.951403 268.837593 
L 92.411855 267.35901 
L 94.257194 266.020069 
L 96.102532 264.455366 
L 97.947871 262.637582 
L 99.79321 260.538289 
L 101.638549 258.128372 
L 103.483888 255.37855 
L 105.329226 252.259987 
L 107.174565 248.745009 
L 109.019904 244.807908 
L 110.865243 240.425823 
L 112.710582 235.579686 
L 115.171033 228.372428 
L 117.631485 220.298025 
L 120.091937 211.361419 
L 122.552389 201.593684 
L 125.627953 188.310132 
L 128.703518 174.011837 
L 133.009308 152.811394 
L 141.005777 113.079483 
L 144.081341 99.049931 
L 146.541793 88.846956 
L 148.387132 81.950991 
L 150.232471 75.810357 
L 152.077809 70.512445 
L 153.308035 67.487124 
L 154.538261 64.890532 
L 155.768487 62.739766 
L 156.998713 61.049059 
L 158.228939 59.829613 
L 159.459165 59.089478 
L 160.074278 58.900781 
L 160.68939 58.833454 
L 161.304503 58.88758 
L 161.919616 59.063034 
L 163.149842 59.776386 
L 164.380068 60.968371 
L 165.610294 62.630596 
L 166.84052 64.751503 
L 168.070746 67.316499 
L 169.300972 70.308111 
L 171.14631 75.550643 
L 172.991649 81.628872 
L 174.836988 88.453914 
L 177.29744 98.546254 
L 180.373004 112.405642 
L 184.063682 130.19455 
L 192.675263 172.097536 
L 195.750828 185.8786 
L 198.211279 196.100367 
L 200.671731 205.48706 
L 203.132183 213.959953 
L 205.592635 221.469641 
L 207.437973 226.45513 
L 209.283312 230.884484 
L 211.128651 234.763103 
L 212.97399 238.101827 
L 214.819329 240.915992 
L 216.664667 243.224514 
L 218.510006 245.049041 
L 219.740232 246.008097 
L 220.970458 246.769827 
L 222.200684 247.34172 
L 223.43091 247.731359 
L 224.661136 247.946353 
L 225.891361 247.994291 
L 227.121587 247.88269 
L 228.966926 247.432327 
L 230.812265 246.664068 
L 232.657604 245.601516 
L 234.502942 244.267385 
L 236.348281 242.683492 
L 238.808733 240.219255 
L 241.269185 237.395868 
L 243.729636 234.259136 
L 246.805201 229.965357 
L 250.495879 224.37897 
L 255.416782 216.438318 
L 267.103928 197.341083 
L 270.794606 191.849272 
L 273.87017 187.671455 
L 276.330622 184.65173 
L 278.791074 181.9625 
L 281.251525 179.640262 
L 283.096864 178.15887 
L 284.942203 176.913662 
L 286.787542 175.914501 
L 288.632881 175.16936 
L 290.478219 174.684217 
L 292.323558 174.462986 
L 294.168897 174.507467 
L 296.014236 174.817322 
L 297.859575 175.390084 
L 299.704913 176.221193 
L 301.550252 177.304052 
L 303.395591 178.630122 
L 305.24093 180.18903 
L 307.701382 182.60868 
L 310.161833 185.387838 
L 312.622285 188.489589 
L 315.69785 192.758903 
L 319.388527 198.346145 
L 323.694318 205.314195 
L 340.302367 232.70066 
L 343.993045 238.179166 
L 347.683722 243.25884 
L 350.759287 247.155087 
L 353.834852 250.728744 
L 356.910416 253.973533 
L 359.985981 256.890821 
L 363.061546 259.488516 
L 366.13711 261.779898 
L 369.212675 263.782434 
L 372.28824 265.516645 
L 375.363804 267.005042 
L 378.439369 268.271182 
L 382.130046 269.530635 
L 385.820724 270.544401 
L 390.126515 271.467032 
L 394.432305 272.161512 
L 399.353209 272.736948 
L 405.504338 273.214922 
L 412.885693 273.551021 
L 419.036822 273.707529 
L 419.036822 273.707529 
" clip-path="url(#p548844d561)" style="fill: none; stroke: #58b8a7; stroke-width: 3; stroke-linecap: square"/>
   </g>
   <g id="patch_3">
    <path d="M 49.969063 273.90023 
L 49.969063 26.573437 
" style="fill: none; stroke: #2f7e79; stroke-width: 0.8; stroke-linejoin: miter; stroke-linecap: square"/>
   </g>
   <g id="patch_4">
    <path d="M 49.969063 273.90023 
L 419.036822 273.90023 
" style="fill: none; stroke: #2f7e79; stroke-width: 0.8; stroke-linejoin: miter; stroke-linecap: square"/>
   </g>
   <g id="text_18">
    <!-- Full distribution view -->
    <g style="fill: #12343b" transform="translate(150.01263 20.573437) scale(0.18 -0.18)">
     <defs>
      <path id="Lato-Bold-46" d="M 1379 3942 
L 1379 2573 
L 3114 2573 
L 3114 1885 
L 1379 1885 
L 1379 0 
L 515 0 
L 515 4627 
L 3434 4627 
L 3434 3942 
L 1379 3942 
z
" transform="scale(0.015625)"/>
      <path id="Lato-Bold-75" d="M 3219 3283 
L 3219 0 
L 2736 0 
Q 2579 0 2538 144 
L 2483 406 
Q 2282 202 2038 75 
Q 1795 -51 1466 -51 
Q 1197 -51 990 40 
Q 784 131 643 297 
Q 502 464 430 693 
Q 358 922 358 1197 
L 358 3283 
L 1149 3283 
L 1149 1197 
Q 1149 896 1288 731 
Q 1427 566 1706 566 
Q 1910 566 2089 657 
Q 2269 749 2429 909 
L 2429 3283 
L 3219 3283 
z
" transform="scale(0.015625)"/>
      <path id="Lato-Bold-6c" d="M 1190 4755 
L 1190 0 
L 400 0 
L 400 4755 
L 1190 4755 
z
" transform="scale(0.015625)"/>
      <path id="Lato-Bold-20" transform="scale(0.015625)"/>
      <path id="Lato-Bold-64" d="M 2451 2445 
Q 2317 2608 2158 2675 
Q 2000 2742 1818 2742 
Q 1638 2742 1494 2675 
Q 1350 2608 1248 2472 
Q 1146 2336 1091 2126 
Q 1037 1917 1037 1632 
Q 1037 1344 1083 1144 
Q 1130 944 1216 817 
Q 1302 691 1427 635 
Q 1552 579 1706 579 
Q 1952 579 2125 681 
Q 2298 784 2451 973 
L 2451 2445 
z
M 3242 4755 
L 3242 0 
L 2758 0 
Q 2602 0 2560 144 
L 2493 461 
Q 2294 234 2036 93 
Q 1779 -48 1437 -48 
Q 1168 -48 944 64 
Q 720 176 558 389 
Q 397 602 309 915 
Q 221 1229 221 1632 
Q 221 1997 320 2310 
Q 419 2624 604 2854 
Q 790 3085 1049 3214 
Q 1309 3344 1632 3344 
Q 1907 3344 2102 3257 
Q 2298 3171 2451 3024 
L 2451 4755 
L 3242 4755 
z
" transform="scale(0.015625)"/>
      <path id="Lato-Bold-69" d="M 1210 3283 
L 1210 0 
L 416 0 
L 416 3283 
L 1210 3283 
z
M 1318 4240 
Q 1318 4138 1276 4048 
Q 1235 3958 1166 3891 
Q 1098 3824 1005 3784 
Q 912 3744 806 3744 
Q 704 3744 613 3784 
Q 522 3824 454 3891 
Q 387 3958 347 4048 
Q 307 4138 307 4240 
Q 307 4346 347 4438 
Q 387 4531 454 4598 
Q 522 4666 613 4706 
Q 704 4746 806 4746 
Q 912 4746 1005 4706 
Q 1098 4666 1166 4598 
Q 1235 4531 1276 4438 
Q 1318 4346 1318 4240 
z
" transform="scale(0.015625)"/>
      <path id="Lato-Bold-73" d="M 2394 2643 
Q 2362 2592 2326 2571 
Q 2291 2550 2237 2550 
Q 2179 2550 2113 2582 
Q 2048 2614 1961 2654 
Q 1875 2694 1764 2726 
Q 1654 2758 1504 2758 
Q 1270 2758 1137 2659 
Q 1005 2560 1005 2400 
Q 1005 2294 1073 2222 
Q 1142 2150 1256 2096 
Q 1370 2042 1514 1998 
Q 1658 1955 1806 1904 
Q 1955 1853 2099 1787 
Q 2243 1722 2356 1621 
Q 2470 1520 2539 1379 
Q 2608 1238 2608 1040 
Q 2608 803 2523 603 
Q 2438 403 2272 257 
Q 2106 112 1861 30 
Q 1616 -51 1296 -51 
Q 1126 -51 964 -20 
Q 803 10 654 64 
Q 506 118 379 192 
Q 253 266 157 352 
L 339 653 
Q 374 707 422 736 
Q 470 765 544 765 
Q 618 765 683 723 
Q 749 682 835 634 
Q 922 586 1038 544 
Q 1155 502 1334 502 
Q 1475 502 1576 536 
Q 1677 570 1742 624 
Q 1808 678 1838 750 
Q 1869 822 1869 899 
Q 1869 1014 1800 1088 
Q 1731 1162 1617 1216 
Q 1504 1270 1358 1313 
Q 1213 1357 1061 1408 
Q 909 1459 763 1528 
Q 618 1597 504 1702 
Q 390 1808 321 1961 
Q 253 2115 253 2333 
Q 253 2534 333 2716 
Q 413 2899 568 3035 
Q 723 3171 955 3252 
Q 1187 3334 1491 3334 
Q 1830 3334 2108 3222 
Q 2387 3110 2573 2928 
L 2394 2643 
z
" transform="scale(0.015625)"/>
      <path id="Lato-Bold-74" d="M 1485 -51 
Q 1056 -51 827 190 
Q 598 432 598 858 
L 598 2691 
L 262 2691 
Q 198 2691 153 2732 
Q 109 2774 109 2858 
L 109 3171 
L 637 3258 
L 803 4154 
Q 819 4218 864 4253 
Q 909 4288 979 4288 
L 1389 4288 
L 1389 3254 
L 2266 3254 
L 2266 2691 
L 1389 2691 
L 1389 912 
Q 1389 758 1464 672 
Q 1539 586 1670 586 
Q 1744 586 1793 603 
Q 1843 621 1880 640 
Q 1917 659 1945 676 
Q 1974 694 2003 694 
Q 2038 694 2060 676 
Q 2083 659 2109 624 
L 2346 240 
Q 2173 96 1949 22 
Q 1725 -51 1485 -51 
z
" transform="scale(0.015625)"/>
      <path id="Lato-Bold-72" d="M 1136 2714 
Q 1290 3008 1501 3176 
Q 1712 3344 2000 3344 
Q 2227 3344 2365 3245 
L 2314 2653 
Q 2298 2595 2267 2571 
Q 2237 2547 2186 2547 
Q 2138 2547 2043 2563 
Q 1949 2579 1859 2579 
Q 1728 2579 1625 2540 
Q 1523 2502 1441 2430 
Q 1360 2358 1297 2256 
Q 1235 2154 1181 2022 
L 1181 0 
L 390 0 
L 390 3283 
L 854 3283 
Q 976 3283 1024 3240 
Q 1072 3197 1088 3085 
L 1136 2714 
z
" transform="scale(0.015625)"/>
      <path id="Lato-Bold-62" d="M 1181 851 
Q 1315 688 1473 621 
Q 1632 554 1808 554 
Q 1990 554 2136 619 
Q 2282 685 2384 824 
Q 2486 963 2540 1179 
Q 2595 1395 2595 1696 
Q 2595 2237 2416 2478 
Q 2237 2720 1901 2720 
Q 1674 2720 1504 2616 
Q 1334 2512 1181 2323 
L 1181 851 
z
M 1181 2880 
Q 1379 3088 1620 3211 
Q 1862 3334 2173 3334 
Q 2458 3334 2686 3222 
Q 2915 3110 3076 2900 
Q 3238 2691 3324 2393 
Q 3411 2096 3411 1725 
Q 3411 1325 3312 998 
Q 3213 672 3029 440 
Q 2845 208 2585 80 
Q 2326 -48 2010 -48 
Q 1856 -48 1731 -17 
Q 1606 13 1500 67 
Q 1395 122 1307 200 
Q 1219 278 1139 374 
L 1104 154 
Q 1085 70 1038 35 
Q 992 0 912 0 
L 390 0 
L 390 4755 
L 1181 4755 
L 1181 2880 
z
" transform="scale(0.015625)"/>
      <path id="Lato-Bold-6f" d="M 1843 3334 
Q 2208 3334 2507 3216 
Q 2806 3098 3019 2880 
Q 3232 2662 3347 2348 
Q 3462 2035 3462 1648 
Q 3462 1258 3347 944 
Q 3232 630 3019 409 
Q 2806 189 2507 70 
Q 2208 -48 1843 -48 
Q 1475 -48 1174 70 
Q 874 189 661 409 
Q 448 630 331 944 
Q 214 1258 214 1648 
Q 214 2035 331 2348 
Q 448 2662 661 2880 
Q 874 3098 1174 3216 
Q 1475 3334 1843 3334 
z
M 1843 560 
Q 2253 560 2449 835 
Q 2646 1110 2646 1642 
Q 2646 2173 2449 2451 
Q 2253 2730 1843 2730 
Q 1427 2730 1227 2450 
Q 1027 2170 1027 1642 
Q 1027 1114 1227 837 
Q 1427 560 1843 560 
z
" transform="scale(0.015625)"/>
      <path id="Lato-Bold-6e" d="M 1130 2880 
Q 1229 2979 1339 3064 
Q 1450 3149 1573 3208 
Q 1696 3267 1837 3300 
Q 1978 3334 2144 3334 
Q 2413 3334 2621 3243 
Q 2829 3152 2968 2987 
Q 3107 2822 3179 2593 
Q 3251 2365 3251 2090 
L 3251 0 
L 2461 0 
L 2461 2090 
Q 2461 2390 2323 2555 
Q 2186 2720 1904 2720 
Q 1699 2720 1520 2627 
Q 1341 2534 1181 2374 
L 1181 0 
L 390 0 
L 390 3283 
L 874 3283 
Q 1027 3283 1075 3139 
L 1130 2880 
z
" transform="scale(0.015625)"/>
      <path id="Lato-Bold-76" d="M 3350 3283 
L 2048 0 
L 1331 0 
L 29 3283 
L 682 3283 
Q 771 3283 830 3241 
Q 890 3200 909 3136 
L 1542 1382 
Q 1594 1229 1632 1081 
Q 1670 934 1699 787 
Q 1731 934 1769 1081 
Q 1808 1229 1862 1382 
L 2509 3136 
Q 2531 3200 2588 3241 
Q 2646 3283 2726 3283 
L 3350 3283 
z
" transform="scale(0.015625)"/>
      <path id="Lato-Bold-65" d="M 2506 2019 
Q 2506 2173 2462 2309 
Q 2419 2445 2332 2547 
Q 2246 2650 2113 2709 
Q 1981 2768 1805 2768 
Q 1462 2768 1265 2573 
Q 1069 2378 1014 2019 
L 2506 2019 
z
M 998 1542 
Q 1018 1290 1088 1106 
Q 1158 922 1273 802 
Q 1389 682 1547 622 
Q 1706 563 1898 563 
Q 2090 563 2229 608 
Q 2368 653 2472 707 
Q 2576 762 2654 806 
Q 2733 851 2806 851 
Q 2906 851 2954 778 
L 3181 490 
Q 3050 336 2886 232 
Q 2723 128 2545 65 
Q 2368 3 2184 -22 
Q 2000 -48 1827 -48 
Q 1485 -48 1190 65 
Q 896 179 678 401 
Q 461 624 336 952 
Q 211 1280 211 1712 
Q 211 2048 320 2344 
Q 429 2640 632 2859 
Q 835 3078 1128 3206 
Q 1421 3334 1789 3334 
Q 2099 3334 2361 3235 
Q 2624 3136 2813 2945 
Q 3002 2755 3109 2478 
Q 3216 2202 3216 1846 
Q 3216 1667 3177 1604 
Q 3139 1542 3030 1542 
L 998 1542 
z
" transform="scale(0.015625)"/>
      <path id="Lato-Bold-77" d="M 5078 3283 
L 4035 0 
L 3402 0 
Q 3293 0 3251 141 
L 2662 2038 
Q 2634 2134 2610 2228 
Q 2586 2323 2570 2419 
Q 2550 2323 2526 2225 
Q 2502 2128 2474 2032 
L 1875 141 
Q 1837 0 1706 0 
L 1098 0 
L 58 3283 
L 688 3283 
Q 774 3283 835 3241 
Q 896 3200 915 3136 
L 1386 1382 
Q 1421 1238 1448 1100 
Q 1475 963 1494 826 
Q 1530 963 1570 1100 
Q 1610 1238 1654 1382 
L 2198 3142 
Q 2218 3206 2274 3248 
Q 2330 3290 2410 3290 
L 2758 3290 
Q 2842 3290 2901 3248 
Q 2960 3206 2979 3142 
L 3507 1382 
Q 3549 1238 3585 1099 
Q 3622 960 3658 822 
Q 3699 1094 3776 1382 
L 4259 3136 
Q 4282 3200 4339 3241 
Q 4397 3283 4477 3283 
L 5078 3283 
z
" transform="scale(0.015625)"/>
     </defs>
     <use xlink:href="#Lato-Bold-46"/>
     <use xlink:href="#Lato-Bold-75" x="56.600006"/>
     <use xlink:href="#Lato-Bold-6c" x="113.000015"/>
     <use xlink:href="#Lato-Bold-6c" x="137.850021"/>
     <use xlink:href="#Lato-Bold-20" x="162.700027"/>
     <use xlink:href="#Lato-Bold-64" x="187.000031"/>
     <use xlink:href="#Lato-Bold-69" x="243.750031"/>
     <use xlink:href="#Lato-Bold-73" x="269.150024"/>
     <use xlink:href="#Lato-Bold-74" x="313.100021"/>
     <use xlink:href="#Lato-Bold-72" x="350.300018"/>
     <use xlink:href="#Lato-Bold-69" x="387.600021"/>
     <use xlink:href="#Lato-Bold-62" x="413.000015"/>
     <use xlink:href="#Lato-Bold-75" x="469.750015"/>
     <use xlink:href="#Lato-Bold-74" x="526.150024"/>
     <use xlink:href="#Lato-Bold-69" x="563.350021"/>
     <use xlink:href="#Lato-Bold-6f" x="588.750015"/>
     <use xlink:href="#Lato-Bold-6e" x="646.200027"/>
     <use xlink:href="#Lato-Bold-20" x="702.600037"/>
     <use xlink:href="#Lato-Bold-76" x="726.90004"/>
     <use xlink:href="#Lato-Bold-69" x="779.700043"/>
     <use xlink:href="#Lato-Bold-65" x="805.100037"/>
     <use xlink:href="#Lato-Bold-77" x="858.500046"/>
    </g>
   </g>
  </g>
  <g id="axes_2">
   <g id="patch_5">
    <path d="M 434.628095 273.90023 
L 803.695855 273.90023 
L 803.695855 26.573437 
L 434.628095 26.573437 
z
" style="fill: #f6fbfa"/>
   </g>
   <g id="matplotlib.axis_3">
    <g id="xtick_8">
     <g id="line2d_17">
      <g>
       <use xlink:href="#mdf534ed16e" x="434.628095" y="273.90023" style="fill: #2f7e79; stroke: #2f7e79; stroke-width: 0.8"/>
      </g>
     </g>
     <g id="text_19">
      <!-- 0 -->
      <g style="fill: #2f7e79" transform="translate(430.858095 290.475543) scale(0.13 -0.13)">
       <use xlink:href="#Lato-Regular-30"/>
      </g>
     </g>
    </g>
    <g id="xtick_9">
     <g id="line2d_18">
      <g>
       <use xlink:href="#mdf534ed16e" x="496.139389" y="273.90023" style="fill: #2f7e79; stroke: #2f7e79; stroke-width: 0.8"/>
      </g>
     </g>
     <g id="text_20">
      <!-- 1 -->
      <g style="fill: #2f7e79" transform="translate(492.369389 290.475543) scale(0.13 -0.13)">
       <use xlink:href="#Lato-Regular-31"/>
      </g>
     </g>
    </g>
    <g id="xtick_10">
     <g id="line2d_19">
      <g>
       <use xlink:href="#mdf534ed16e" x="557.650682" y="273.90023" style="fill: #2f7e79; stroke: #2f7e79; stroke-width: 0.8"/>
      </g>
     </g>
     <g id="text_21">
      <!-- 2 -->
      <g style="fill: #2f7e79" transform="translate(553.880682 290.475543) scale(0.13 -0.13)">
       <use xlink:href="#Lato-Regular-32"/>
      </g>
     </g>
    </g>
    <g id="xtick_11">
     <g id="line2d_20">
      <g>
       <use xlink:href="#mdf534ed16e" x="619.161975" y="273.90023" style="fill: #2f7e79; stroke: #2f7e79; stroke-width: 0.8"/>
      </g>
     </g>
     <g id="text_22">
      <!-- 3 -->
      <g style="fill: #2f7e79" transform="translate(615.391975 290.475543) scale(0.13 -0.13)">
       <use xlink:href="#Lato-Regular-33"/>
      </g>
     </g>
    </g>
    <g id="xtick_12">
     <g id="line2d_21">
      <g>
       <use xlink:href="#mdf534ed16e" x="680.673269" y="273.90023" style="fill: #2f7e79; stroke: #2f7e79; stroke-width: 0.8"/>
      </g>
     </g>
     <g id="text_23">
      <!-- 4 -->
      <g style="fill: #2f7e79" transform="translate(676.903269 290.475543) scale(0.13 -0.13)">
       <use xlink:href="#Lato-Regular-34"/>
      </g>
     </g>
    </g>
    <g id="xtick_13">
     <g id="line2d_22">
      <g>
       <use xlink:href="#mdf534ed16e" x="742.184562" y="273.90023" style="fill: #2f7e79; stroke: #2f7e79; stroke-width: 0.8"/>
      </g>
     </g>
     <g id="text_24">
      <!-- 5 -->
      <g style="fill: #2f7e79" transform="translate(738.414562 290.475543) scale(0.13 -0.13)">
       <use xlink:href="#Lato-Regular-35"/>
      </g>
     </g>
    </g>
    <g id="xtick_14">
     <g id="line2d_23">
      <g>
       <use xlink:href="#mdf534ed16e" x="803.695855" y="273.90023" style="fill: #2f7e79; stroke: #2f7e79; stroke-width: 0.8"/>
      </g>
     </g>
     <g id="text_25">
      <!-- 6 -->
      <g style="fill: #2f7e79" transform="translate(799.925855 290.475543) scale(0.13 -0.13)">
       <use xlink:href="#Lato-Regular-36"/>
      </g>
     </g>
    </g>
    <g id="text_26">
     <!-- state x -->
     <g style="fill: #12343b" transform="translate(597.19635 307.754293) scale(0.15 -0.15)">
      <use xlink:href="#Lato-Regular-73"/>
      <use xlink:href="#Lato-Regular-74" x="43.300003"/>
      <use xlink:href="#Lato-Regular-61" x="79.150009"/>
      <use xlink:href="#Lato-Regular-74" x="128.850021"/>
      <use xlink:href="#Lato-Regular-65" x="164.700027"/>
      <use xlink:href="#Lato-Regular-20" x="217.500031"/>
      <use xlink:href="#Lato-Regular-78" x="243.100037"/>
     </g>
    </g>
   </g>
   <g id="matplotlib.axis_4">
    <g id="ytick_9">
     <g id="line2d_24">
      <g>
       <use xlink:href="#m701e902c5a" x="434.628095" y="273.90023" style="fill: #2f7e79; stroke: #2f7e79; stroke-width: 0.8"/>
      </g>
     </g>
    </g>
    <g id="ytick_10">
     <g id="line2d_25">
      <g>
       <use xlink:href="#m701e902c5a" x="434.628095" y="242.468263" style="fill: #2f7e79; stroke: #2f7e79; stroke-width: 0.8"/>
      </g>
     </g>
    </g>
    <g id="ytick_11">
     <g id="line2d_26">
      <g>
       <use xlink:href="#m701e902c5a" x="434.628095" y="211.036296" style="fill: #2f7e79; stroke: #2f7e79; stroke-width: 0.8"/>
      </g>
     </g>
    </g>
    <g id="ytick_12">
     <g id="line2d_27">
      <g>
       <use xlink:href="#m701e902c5a" x="434.628095" y="179.604329" style="fill: #2f7e79; stroke: #2f7e79; stroke-width: 0.8"/>
      </g>
     </g>
    </g>
    <g id="ytick_13">
     <g id="line2d_28">
      <g>
       <use xlink:href="#m701e902c5a" x="434.628095" y="148.172362" style="fill: #2f7e79; stroke: #2f7e79; stroke-width: 0.8"/>
      </g>
     </g>
    </g>
    <g id="ytick_14">
     <g id="line2d_29">
      <g>
       <use xlink:href="#m701e902c5a" x="434.628095" y="116.740394" style="fill: #2f7e79; stroke: #2f7e79; stroke-width: 0.8"/>
      </g>
     </g>
    </g>
    <g id="ytick_15">
     <g id="line2d_30">
      <g>
       <use xlink:href="#m701e902c5a" x="434.628095" y="85.308427" style="fill: #2f7e79; stroke: #2f7e79; stroke-width: 0.8"/>
      </g>
     </g>
    </g>
    <g id="ytick_16">
     <g id="line2d_31">
      <g>
       <use xlink:href="#m701e902c5a" x="434.628095" y="53.87646" style="fill: #2f7e79; stroke: #2f7e79; stroke-width: 0.8"/>
      </g>
     </g>
    </g>
   </g>
   <g id="line2d_32">
    <path d="M 434.628095 273.878153 
L 448.16058 273.718548 
L 454.926822 273.429999 
L 459.847725 273.00081 
L 463.538403 272.471793 
L 466.613968 271.832444 
L 469.689532 270.949052 
L 472.149984 270.017334 
L 474.610436 268.837593 
L 477.070888 267.35901 
L 478.916226 266.020069 
L 480.761565 264.455366 
L 482.606904 262.637582 
L 484.452243 260.538289 
L 486.297582 258.128372 
L 488.14292 255.37855 
L 489.988259 252.259987 
L 491.833598 248.745009 
L 493.678937 244.807908 
L 495.524276 240.425823 
L 497.369614 235.579686 
L 499.830066 228.372428 
L 502.290518 220.298025 
L 504.75097 211.361419 
L 507.211421 201.593684 
L 510.286986 188.310132 
L 513.362551 174.011837 
L 517.668341 152.811394 
L 525.664809 113.079483 
L 528.740374 99.049931 
L 531.200826 88.846956 
L 533.046165 81.950991 
L 534.891503 75.810357 
L 536.736842 70.512445 
L 537.967068 67.487124 
L 539.197294 64.890532 
L 540.42752 62.739766 
L 541.657746 61.049059 
L 542.887971 59.829613 
L 544.118197 59.089478 
L 544.73331 58.900781 
L 545.348423 58.833454 
L 545.963536 58.88758 
L 546.578649 59.063034 
L 547.808875 59.776386 
L 549.039101 60.968371 
L 550.269327 62.630596 
L 551.499553 64.751503 
L 552.729778 67.316499 
L 553.960004 70.308111 
L 555.805343 75.550643 
L 557.650682 81.628872 
L 559.496021 88.453914 
L 561.956472 98.546254 
L 565.032037 112.405642 
L 568.722715 130.19455 
L 577.334296 172.097536 
L 580.40986 185.8786 
L 582.870312 196.100367 
L 585.330764 205.48706 
L 587.791216 213.959953 
L 590.251667 221.469641 
L 592.097006 226.45513 
L 593.942345 230.884484 
L 595.787684 234.763103 
L 597.633023 238.101827 
L 599.478361 240.915992 
L 601.3237 243.224514 
L 603.169039 245.049041 
L 604.399265 246.008097 
L 605.629491 246.769827 
L 606.859717 247.34172 
L 608.089942 247.731359 
L 609.320168 247.946353 
L 610.550394 247.994291 
L 611.78062 247.88269 
L 613.625959 247.432327 
L 615.471298 246.664068 
L 617.316636 245.601516 
L 619.161975 244.267385 
L 621.007314 242.683492 
L 623.467766 240.219255 
L 625.928217 237.395868 
L 628.388669 234.259136 
L 631.464234 229.965357 
L 635.154911 224.37897 
L 640.075815 216.438318 
L 651.762961 197.341083 
L 655.453638 191.849272 
L 658.529203 187.671455 
L 660.989655 184.65173 
L 663.450106 181.9625 
L 665.910558 179.640262 
L 667.755897 178.15887 
L 669.601236 176.913662 
L 671.446575 175.914501 
L 673.291913 175.16936 
L 675.137252 174.684217 
L 676.982591 174.462986 
L 678.82793 174.507467 
L 680.673269 174.817322 
L 682.518607 175.390084 
L 684.363946 176.221193 
L 686.209285 177.304052 
L 688.054624 178.630122 
L 689.899963 180.18903 
L 692.360414 182.60868 
L 694.820866 185.387838 
L 697.281318 188.489589 
L 700.356882 192.758903 
L 704.04756 198.346145 
L 708.353351 205.314195 
L 724.9614 232.70066 
L 728.652077 238.179166 
L 732.342755 243.25884 
L 735.41832 247.155087 
L 738.493884 250.728744 
L 741.569449 253.973533 
L 744.645014 256.890821 
L 747.720578 259.488516 
L 750.796143 261.779898 
L 753.871708 263.782434 
L 756.947272 265.516645 
L 760.022837 267.005042 
L 763.098402 268.271182 
L 766.789079 269.530635 
L 770.479757 270.544401 
L 774.785547 271.467032 
L 779.091338 272.161512 
L 784.012241 272.736948 
L 790.163371 273.214922 
L 797.544726 273.551021 
L 803.695855 273.707529 
L 803.695855 273.707529 
" clip-path="url(#p6d1fa9a148)" style="fill: none; stroke: #58b8a7; stroke-opacity: 0.25; stroke-width: 2; stroke-linecap: square"/>
   </g>
   <g id="LineCollection_1">
    <path d="M 547.808875 273.90023 
L 547.808875 59.776386 
" clip-path="url(#p6d1fa9a148)" style="fill: none; stroke-dasharray: 6.66,2.88; stroke-dashoffset: 0; stroke: #e9785d; stroke-width: 1.8"/>
   </g>
   <g id="patch_6">
    <path d="M 434.628095 273.90023 
L 434.628095 26.573437 
" style="fill: none; stroke: #2f7e79; stroke-width: 0.8; stroke-linejoin: miter; stroke-linecap: square"/>
   </g>
   <g id="patch_7">
    <path d="M 434.628095 273.90023 
L 803.695855 273.90023 
" style="fill: none; stroke: #2f7e79; stroke-width: 0.8; stroke-linejoin: miter; stroke-linecap: square"/>
   </g>
   <g id="PathCollection_1">
    <defs>
     <path id="mc295eb15ff" d="M 0 5.477226 
C 1.452577 5.477226 2.845856 4.900111 3.872983 3.872983 
C 4.900111 2.845856 5.477226 1.452577 5.477226 0 
C 5.477226 -1.452577 4.900111 -2.845856 3.872983 -3.872983 
C 2.845856 -4.900111 1.452577 -5.477226 0 -5.477226 
C -1.452577 -5.477226 -2.845856 -4.900111 -3.872983 -3.872983 
C -4.900111 -2.845856 -5.477226 -1.452577 -5.477226 0 
C -5.477226 1.452577 -4.900111 2.845856 -3.872983 3.872983 
C -2.845856 4.900111 -1.452577 5.477226 0 5.477226 
z
" style="stroke: #e9785d"/>
    </defs>
    <g clip-path="url(#p6d1fa9a148)">
     <use xlink:href="#mc295eb15ff" x="547.808875" y="59.776386" style="fill: #e9785d; stroke: #e9785d"/>
    </g>
   </g>
   <g id="patch_8">
    <path d="M 626.661717 79.107492 
Q 588.205074 69.679684 551.703014 60.731051 
" style="fill: none; stroke: #e9785d; stroke-width: 1.8; stroke-linecap: round"/>
    <path d="M 556.475267 64.783902 
L 551.703014 60.731051 
L 557.808647 59.344959 
" style="fill: none; stroke: #e9785d; stroke-width: 1.8; stroke-linecap: round"/>
   </g>
   <g id="text_27">
    <!-- choose one x* -->
    <g style="fill: #12343b" transform="translate(619.161975 91.894963) scale(0.14 -0.14)">
     <defs>
      <path id="Lato-Regular-63" d="M 2707 2666 
Q 2682 2630 2656 2611 
Q 2630 2592 2586 2592 
Q 2538 2592 2480 2632 
Q 2422 2672 2337 2720 
Q 2253 2768 2129 2808 
Q 2006 2848 1827 2848 
Q 1587 2848 1404 2763 
Q 1222 2678 1099 2518 
Q 976 2358 913 2131 
Q 851 1904 851 1622 
Q 851 1328 918 1099 
Q 986 870 1109 715 
Q 1232 560 1406 478 
Q 1581 397 1798 397 
Q 2006 397 2140 446 
Q 2275 496 2363 557 
Q 2451 618 2510 667 
Q 2570 717 2627 717 
Q 2698 717 2736 662 
L 2896 454 
Q 2790 323 2656 230 
Q 2522 138 2366 75 
Q 2211 13 2041 -16 
Q 1872 -45 1696 -45 
Q 1392 -45 1131 67 
Q 870 179 678 392 
Q 486 605 377 915 
Q 269 1226 269 1622 
Q 269 1984 369 2291 
Q 470 2598 664 2820 
Q 858 3043 1141 3168 
Q 1424 3293 1792 3293 
Q 2134 3293 2395 3182 
Q 2656 3072 2858 2870 
L 2707 2666 
z
" transform="scale(0.015625)"/>
      <path id="Lato-Regular-68" d="M 1024 2810 
Q 1232 3030 1485 3161 
Q 1738 3293 2067 3293 
Q 2333 3293 2536 3205 
Q 2739 3117 2875 2955 
Q 3011 2794 3081 2566 
Q 3152 2339 3152 2064 
L 3152 0 
L 2579 0 
L 2579 2064 
Q 2579 2432 2411 2635 
Q 2243 2838 1901 2838 
Q 1648 2838 1429 2716 
Q 1210 2595 1024 2387 
L 1024 0 
L 451 0 
L 451 4714 
L 1024 4714 
L 1024 2810 
z
" transform="scale(0.015625)"/>
      <path id="Lato-Regular-6e" d="M 989 2771 
Q 1094 2890 1212 2986 
Q 1331 3082 1464 3150 
Q 1597 3219 1745 3256 
Q 1894 3293 2067 3293 
Q 2333 3293 2536 3205 
Q 2739 3117 2875 2955 
Q 3011 2794 3081 2566 
Q 3152 2339 3152 2064 
L 3152 0 
L 2579 0 
L 2579 2064 
Q 2579 2432 2411 2635 
Q 2243 2838 1901 2838 
Q 1648 2838 1429 2716 
Q 1210 2595 1024 2387 
L 1024 0 
L 451 0 
L 451 3242 
L 794 3242 
Q 915 3242 944 3123 
L 989 2771 
z
" transform="scale(0.015625)"/>
      <path id="Lato-Regular-2a" d="M 2326 3389 
L 2186 3149 
L 1632 3469 
Q 1574 3504 1529 3539 
Q 1485 3574 1450 3629 
Q 1501 3523 1501 3395 
L 1501 2762 
L 1219 2762 
L 1219 3392 
Q 1219 3456 1227 3510 
Q 1235 3565 1261 3616 
Q 1226 3571 1184 3536 
Q 1142 3501 1088 3469 
L 538 3152 
L 397 3392 
L 947 3712 
Q 1069 3786 1190 3789 
Q 1126 3795 1067 3812 
Q 1008 3830 947 3869 
L 394 4192 
L 534 4432 
L 1088 4112 
Q 1146 4077 1190 4038 
Q 1235 4000 1270 3946 
Q 1219 4058 1219 4186 
L 1219 4819 
L 1501 4819 
L 1501 4189 
Q 1501 4125 1493 4069 
Q 1485 4013 1459 3962 
Q 1494 4006 1536 4041 
Q 1578 4077 1632 4112 
L 2182 4429 
L 2323 4189 
L 1773 3869 
Q 1718 3834 1664 3814 
Q 1610 3795 1549 3789 
Q 1610 3782 1664 3764 
Q 1718 3747 1773 3712 
L 2326 3389 
z
" transform="scale(0.015625)"/>
     </defs>
     <use xlink:href="#Lato-Regular-63"/>
     <use xlink:href="#Lato-Regular-68" x="47.75"/>
     <use xlink:href="#Lato-Regular-6f" x="103.550003"/>
     <use xlink:href="#Lato-Regular-6f" x="160.250015"/>
     <use xlink:href="#Lato-Regular-73" x="216.950027"/>
     <use xlink:href="#Lato-Regular-65" x="260.250031"/>
     <use xlink:href="#Lato-Regular-20" x="313.050034"/>
     <use xlink:href="#Lato-Regular-6f" x="338.65004"/>
     <use xlink:href="#Lato-Regular-6e" x="395.350052"/>
     <use xlink:href="#Lato-Regular-65" x="451.150055"/>
     <use xlink:href="#Lato-Regular-20" x="503.950058"/>
     <use xlink:href="#Lato-Regular-78" x="529.550064"/>
     <use xlink:href="#Lato-Regular-2a" x="579.350067"/>
    </g>
   </g>
   <g id="text_28">
    <!-- Point-estimate view -->
    <g style="fill: #12343b" transform="translate(538.440413 20.573437) scale(0.18 -0.18)">
     <defs>
      <path id="Lato-Bold-50" d="M 2019 2301 
Q 2256 2301 2432 2360 
Q 2608 2419 2725 2529 
Q 2842 2640 2899 2798 
Q 2957 2957 2957 3152 
Q 2957 3338 2899 3488 
Q 2842 3638 2726 3744 
Q 2611 3850 2435 3906 
Q 2259 3962 2019 3962 
L 1376 3962 
L 1376 2301 
L 2019 2301 
z
M 2019 4627 
Q 2483 4627 2822 4518 
Q 3162 4410 3382 4214 
Q 3603 4019 3710 3747 
Q 3818 3475 3818 3152 
Q 3818 2816 3706 2536 
Q 3594 2256 3370 2054 
Q 3146 1853 2808 1741 
Q 2470 1629 2019 1629 
L 1376 1629 
L 1376 0 
L 515 0 
L 515 4627 
L 2019 4627 
z
" transform="scale(0.015625)"/>
      <path id="Lato-Bold-2d" d="M 365 2262 
L 2022 2262 
L 2022 1603 
L 365 1603 
L 365 2262 
z
" transform="scale(0.015625)"/>
      <path id="Lato-Bold-6d" d="M 390 0 
L 390 3283 
L 874 3283 
Q 1027 3283 1075 3139 
L 1126 2896 
Q 1213 2992 1307 3072 
Q 1402 3152 1509 3209 
Q 1616 3267 1739 3300 
Q 1862 3334 2010 3334 
Q 2320 3334 2520 3166 
Q 2720 2998 2819 2720 
Q 2896 2883 3011 3000 
Q 3126 3117 3264 3190 
Q 3402 3264 3557 3299 
Q 3712 3334 3869 3334 
Q 4141 3334 4352 3251 
Q 4563 3168 4707 3008 
Q 4851 2848 4926 2617 
Q 5002 2387 5002 2090 
L 5002 0 
L 4211 0 
L 4211 2090 
Q 4211 2403 4073 2561 
Q 3936 2720 3670 2720 
Q 3549 2720 3445 2678 
Q 3341 2637 3262 2558 
Q 3184 2480 3139 2361 
Q 3094 2243 3094 2090 
L 3094 0 
L 2301 0 
L 2301 2090 
Q 2301 2419 2168 2569 
Q 2035 2720 1779 2720 
Q 1606 2720 1457 2635 
Q 1309 2550 1181 2403 
L 1181 0 
L 390 0 
z
" transform="scale(0.015625)"/>
      <path id="Lato-Bold-61" d="M 2125 1402 
Q 1782 1386 1548 1342 
Q 1315 1299 1174 1232 
Q 1034 1165 973 1075 
Q 912 986 912 880 
Q 912 672 1035 582 
Q 1158 493 1357 493 
Q 1600 493 1777 581 
Q 1955 669 2125 848 
L 2125 1402 
z
M 314 2826 
Q 880 3344 1677 3344 
Q 1965 3344 2192 3249 
Q 2419 3155 2576 2987 
Q 2733 2819 2814 2585 
Q 2896 2352 2896 2074 
L 2896 0 
L 2538 0 
Q 2426 0 2365 33 
Q 2304 67 2269 170 
L 2198 406 
Q 2074 294 1955 209 
Q 1837 125 1709 67 
Q 1581 10 1435 -20 
Q 1290 -51 1114 -51 
Q 906 -51 730 5 
Q 554 61 426 173 
Q 298 285 227 451 
Q 157 618 157 838 
Q 157 963 198 1086 
Q 240 1210 334 1322 
Q 429 1434 579 1533 
Q 730 1632 949 1705 
Q 1168 1779 1459 1825 
Q 1750 1872 2125 1882 
L 2125 2074 
Q 2125 2403 1984 2561 
Q 1843 2720 1578 2720 
Q 1386 2720 1259 2675 
Q 1133 2630 1037 2574 
Q 941 2518 862 2473 
Q 784 2429 688 2429 
Q 605 2429 547 2472 
Q 490 2515 454 2573 
L 314 2826 
z
" transform="scale(0.015625)"/>
     </defs>
     <use xlink:href="#Lato-Bold-50"/>
     <use xlink:href="#Lato-Bold-6f" x="61.900009"/>
     <use xlink:href="#Lato-Bold-69" x="119.350021"/>
     <use xlink:href="#Lato-Bold-6e" x="144.750015"/>
     <use xlink:href="#Lato-Bold-74" x="201.150024"/>
     <use xlink:href="#Lato-Bold-2d" x="238.350021"/>
     <use xlink:href="#Lato-Bold-65" x="275.650024"/>
     <use xlink:href="#Lato-Bold-73" x="329.050034"/>
     <use xlink:href="#Lato-Bold-74" x="373.000031"/>
     <use xlink:href="#Lato-Bold-69" x="410.200027"/>
     <use xlink:href="#Lato-Bold-6d" x="435.600021"/>
     <use xlink:href="#Lato-Bold-61" x="519.350037"/>
     <use xlink:href="#Lato-Bold-74" x="570.100037"/>
     <use xlink:href="#Lato-Bold-65" x="607.300034"/>
     <use xlink:href="#Lato-Bold-20" x="660.700043"/>
     <use xlink:href="#Lato-Bold-76" x="685.000046"/>
     <use xlink:href="#Lato-Bold-69" x="737.800049"/>
     <use xlink:href="#Lato-Bold-65" x="763.200043"/>
     <use xlink:href="#Lato-Bold-77" x="816.600052"/>
    </g>
   </g>
  </g>
 </g>
 <defs>
  <clipPath id="p548844d561">
   <rect x="49.969063" y="26.573437" width="369.06776" height="247.326793"/>
  </clipPath>
  <clipPath id="p6d1fa9a148">
   <rect x="434.628095" y="26.573437" width="369.06776" height="247.326793"/>
  </clipPath>
 </defs>
</svg>
