<?xml version="1.0" encoding="utf-8" standalone="no"?>
<!DOCTYPE svg PUBLIC "-//W3C//DTD SVG 1.1//EN"
  "http://www.w3.org/Graphics/SVG/1.1/DTD/svg11.dtd">
<svg xmlns:xlink="http://www.w3.org/1999/xlink" width="526.79952pt" height="353.831747pt" viewBox="0 0 526.79952 353.831747" xmlns="http://www.w3.org/2000/svg" version="1.1">
 <metadata>
  <rdf:RDF xmlns:dc="http://purl.org/dc/elements/1.1/" xmlns:cc="http://creativecommons.org/ns#" xmlns:rdf="http://www.w3.org/1999/02/22-rdf-syntax-ns#">
   <cc:Work>
    <dc:type rdf:resource="http://purl.org/dc/dcmitype/StillImage"/>
    <dc:date>2026-03-03T21:57:08.579952</dc:date>
    <dc:format>image/svg+xml</dc:format>
    <dc:creator>
     <cc:Agent>
      <dc:title>Matplotlib v3.6.3, https://matplotlib.org/</dc:title>
     </cc:Agent>
    </dc:creator>
   </cc:Work>
  </rdf:RDF>
 </metadata>
 <defs>
  <style type="text/css">*{stroke-linejoin: round; stroke-linecap: butt}</style>
 </defs>
 <g id="figure_1">
  <g id="patch_1">
   <path d="M 0 353.831747 
L 526.79952 353.831747 
L 526.79952 0 
L 0 0 
z
" style="fill: #f6fbfa"/>
  </g>
  <g id="axes_1">
   <g id="line2d_1">
    <path d="M 83.367496 63.93042 
L 83.367496 143.824273 
" clip-path="url(#pcb407c5a6a)" style="fill: none; stroke: #3f8f88; stroke-width: 2.6; stroke-linecap: round"/>
   </g>
   <g id="line2d_2">
    <path d="M 83.367496 143.824273 
L 263.39976 143.824273 
" clip-path="url(#pcb407c5a6a)" style="fill: none; stroke: #3f8f88; stroke-width: 2.6; stroke-linecap: round"/>
   </g>
   <g id="line2d_3">
    <path d="M 263.39976 143.824273 
L 443.432024 143.824273 
" clip-path="url(#pcb407c5a6a)" style="fill: none; stroke: #3f8f88; stroke-width: 2.6; stroke-linecap: round"/>
   </g>
   <g id="line2d_4">
    <path d="M 83.367496 143.824273 
L 180.307946 242.15517 
" clip-path="url(#pcb407c5a6a)" style="fill: none; stroke: #3f8f88; stroke-width: 2.6; stroke-linecap: round"/>
   </g>
   <g id="line2d_5">
    <path d="M 443.432024 143.824273 
L 346.491574 242.15517 
" clip-path="url(#pcb407c5a6a)" style="fill: none; stroke: #3f8f88; stroke-width: 2.6; stroke-linecap: round"/>
   </g>
   <g id="line2d_6">
    <path d="M 180.307946 242.15517 
L 263.39976 303.61198 
" clip-path="url(#pcb407c5a6a)" style="fill: none; stroke: #3f8f88; stroke-width: 2.6; stroke-linecap: round"/>
   </g>
   <g id="line2d_7">
    <path d="M 346.491574 242.15517 
L 263.39976 303.61198 
" clip-path="url(#pcb407c5a6a)" style="fill: none; stroke: #3f8f88; stroke-width: 2.6; stroke-linecap: round"/>
   </g>
   <g id="patch_2">
    <path d="M 62.594543 82.367463 
L 104.14045 82.367463 
L 104.14045 45.493377 
L 62.594543 45.493377 
z
" clip-path="url(#pcb407c5a6a)" style="fill: #1f5d5a; stroke: #12343b; stroke-width: 2"/>
   </g>
   <g id="patch_3">
    <path d="M 83.367496 162.261316 
C 88.876548 162.261316 94.160705 160.318673 98.056193 156.861231 
C 101.95168 153.40379 104.14045 148.713834 104.14045 143.824273 
C 104.14045 138.934712 101.95168 134.244757 98.056193 130.787315 
C 94.160705 127.329873 88.876548 125.38723 83.367496 125.38723 
C 77.858445 125.38723 72.574288 127.329873 68.6788 130.787315 
C 64.783312 134.244757 62.594543 138.934712 62.594543 143.824273 
C 62.594543 148.713834 64.783312 153.40379 68.6788 156.861231 
C 72.574288 160.318673 77.858445 162.261316 83.367496 162.261316 
z
" clip-path="url(#pcb407c5a6a)" style="fill: #64c2b4; stroke: #2f7e79; stroke-width: 2; stroke-linejoin: miter"/>
   </g>
   <g id="patch_4">
    <path d="M 242.626806 162.261316 
L 284.172714 162.261316 
L 284.172714 125.38723 
L 242.626806 125.38723 
z
" clip-path="url(#pcb407c5a6a)" style="fill: #1f5d5a; stroke: #12343b; stroke-width: 2"/>
   </g>
   <g id="patch_5">
    <path d="M 443.432024 162.261316 
C 448.941075 162.261316 454.225232 160.318673 458.12072 156.861231 
C 462.016208 153.40379 464.204977 148.713834 464.204977 143.824273 
C 464.204977 138.934712 462.016208 134.244757 458.12072 130.787315 
C 454.225232 127.329873 448.941075 125.38723 443.432024 125.38723 
C 437.922972 125.38723 432.638815 127.329873 428.743327 130.787315 
C 424.84784 134.244757 422.65907 138.934712 422.65907 143.824273 
C 422.65907 148.713834 424.84784 153.40379 428.743327 156.861231 
C 432.638815 160.318673 437.922972 162.261316 443.432024 162.261316 
z
" clip-path="url(#pcb407c5a6a)" style="fill: #64c2b4; stroke: #2f7e79; stroke-width: 2; stroke-linejoin: miter"/>
   </g>
   <g id="patch_6">
    <path d="M 159.534992 260.592213 
L 201.080899 260.592213 
L 201.080899 223.718127 
L 159.534992 223.718127 
z
" clip-path="url(#pcb407c5a6a)" style="fill: #1f5d5a; stroke: #12343b; stroke-width: 2"/>
   </g>
   <g id="patch_7">
    <path d="M 325.718621 260.592213 
L 367.264528 260.592213 
L 367.264528 223.718127 
L 325.718621 223.718127 
z
" clip-path="url(#pcb407c5a6a)" style="fill: #1f5d5a; stroke: #12343b; stroke-width: 2"/>
   </g>
   <g id="patch_8">
    <path d="M 263.39976 322.049023 
C 268.908812 322.049023 274.192969 320.10638 278.088456 316.648938 
C 281.983944 313.191496 284.172714 308.501541 284.172714 303.61198 
C 284.172714 298.722419 281.983944 294.032463 278.088456 290.575022 
C 274.192969 287.11758 268.908812 285.174937 263.39976 285.174937 
C 257.890708 285.174937 252.606551 287.11758 248.711064 290.575022 
C 244.815576 294.032463 242.626806 298.722419 242.626806 303.61198 
C 242.626806 308.501541 244.815576 313.191496 248.711064 316.648938 
C 252.606551 320.10638 257.890708 322.049023 263.39976 322.049023 
z
" clip-path="url(#pcb407c5a6a)" style="fill: #64c2b4; stroke: #2f7e79; stroke-width: 2; stroke-linejoin: miter"/>
   </g>
   <g id="text_1">
    <!-- prior -->
    <g style="fill: #ffffff" transform="translate(68.342184 66.965733) scale(0.11 -0.11)">
     <defs>
      <path id="DejaVuSans-Bold-70" d="M 1656 506 
L 1656 -1331 
L 538 -1331 
L 538 3500 
L 1656 3500 
L 1656 2988 
Q 1888 3294 2169 3439 
Q 2450 3584 2816 3584 
Q 3463 3584 3878 3070 
Q 4294 2556 4294 1747 
Q 4294 938 3878 423 
Q 3463 -91 2816 -91 
Q 2450 -91 2169 54 
Q 1888 200 1656 506 
z
M 2400 2772 
Q 2041 2772 1848 2508 
Q 1656 2244 1656 1747 
Q 1656 1250 1848 986 
Q 2041 722 2400 722 
Q 2759 722 2948 984 
Q 3138 1247 3138 1747 
Q 3138 2247 2948 2509 
Q 2759 2772 2400 2772 
z
" transform="scale(0.015625)"/>
      <path id="DejaVuSans-Bold-72" d="M 3138 2547 
Q 2991 2616 2845 2648 
Q 2700 2681 2553 2681 
Q 2122 2681 1889 2404 
Q 1656 2128 1656 1613 
L 1656 0 
L 538 0 
L 538 3500 
L 1656 3500 
L 1656 2925 
Q 1872 3269 2151 3426 
Q 2431 3584 2822 3584 
Q 2878 3584 2943 3579 
Q 3009 3575 3134 3559 
L 3138 2547 
z
" transform="scale(0.015625)"/>
      <path id="DejaVuSans-Bold-69" d="M 538 3500 
L 1656 3500 
L 1656 0 
L 538 0 
L 538 3500 
z
M 538 4863 
L 1656 4863 
L 1656 3950 
L 538 3950 
L 538 4863 
z
" transform="scale(0.015625)"/>
      <path id="DejaVuSans-Bold-6f" d="M 2203 2784 
Q 1831 2784 1636 2517 
Q 1441 2250 1441 1747 
Q 1441 1244 1636 976 
Q 1831 709 2203 709 
Q 2569 709 2762 976 
Q 2956 1244 2956 1747 
Q 2956 2250 2762 2517 
Q 2569 2784 2203 2784 
z
M 2203 3584 
Q 3106 3584 3614 3096 
Q 4122 2609 4122 1747 
Q 4122 884 3614 396 
Q 3106 -91 2203 -91 
Q 1297 -91 786 396 
Q 275 884 275 1747 
Q 275 2609 786 3096 
Q 1297 3584 2203 3584 
z
" transform="scale(0.015625)"/>
     </defs>
     <use xlink:href="#DejaVuSans-Bold-70"/>
     <use xlink:href="#DejaVuSans-Bold-72" x="71.582031"/>
     <use xlink:href="#DejaVuSans-Bold-69" x="120.898438"/>
     <use xlink:href="#DejaVuSans-Bold-6f" x="155.175781"/>
     <use xlink:href="#DejaVuSans-Bold-72" x="223.876953"/>
    </g>
   </g>
   <g id="text_2">
    <!-- x0 -->
    <g style="fill: #ffffff" transform="translate(75.993199 146.859586) scale(0.11 -0.11)">
     <defs>
      <path id="DejaVuSans-Bold-78" d="M 1422 1791 
L 159 3500 
L 1344 3500 
L 2059 2463 
L 2784 3500 
L 3969 3500 
L 2706 1797 
L 4031 0 
L 2847 0 
L 2059 1106 
L 1281 0 
L 97 0 
L 1422 1791 
z
" transform="scale(0.015625)"/>
      <path id="DejaVuSans-Bold-30" d="M 2944 2338 
Q 2944 3213 2780 3570 
Q 2616 3928 2228 3928 
Q 1841 3928 1675 3570 
Q 1509 3213 1509 2338 
Q 1509 1453 1675 1090 
Q 1841 728 2228 728 
Q 2613 728 2778 1090 
Q 2944 1453 2944 2338 
z
M 4147 2328 
Q 4147 1169 3647 539 
Q 3147 -91 2228 -91 
Q 1306 -91 806 539 
Q 306 1169 306 2328 
Q 306 3491 806 4120 
Q 1306 4750 2228 4750 
Q 3147 4750 3647 4120 
Q 4147 3491 4147 2328 
z
" transform="scale(0.015625)"/>
     </defs>
     <use xlink:href="#DejaVuSans-Bold-78"/>
     <use xlink:href="#DejaVuSans-Bold-30" x="64.501953"/>
    </g>
   </g>
   <g id="text_3">
    <!-- motion -->
    <g style="fill: #ffffff" transform="translate(241.681635 146.859586) scale(0.11 -0.11)">
     <defs>
      <path id="DejaVuSans-Bold-6d" d="M 3781 2919 
Q 3994 3244 4286 3414 
Q 4578 3584 4928 3584 
Q 5531 3584 5847 3212 
Q 6163 2841 6163 2131 
L 6163 0 
L 5038 0 
L 5038 1825 
Q 5041 1866 5042 1909 
Q 5044 1953 5044 2034 
Q 5044 2406 4934 2573 
Q 4825 2741 4581 2741 
Q 4263 2741 4089 2478 
Q 3916 2216 3909 1719 
L 3909 0 
L 2784 0 
L 2784 1825 
Q 2784 2406 2684 2573 
Q 2584 2741 2328 2741 
Q 2006 2741 1831 2477 
Q 1656 2213 1656 1722 
L 1656 0 
L 531 0 
L 531 3500 
L 1656 3500 
L 1656 2988 
Q 1863 3284 2130 3434 
Q 2397 3584 2719 3584 
Q 3081 3584 3359 3409 
Q 3638 3234 3781 2919 
z
" transform="scale(0.015625)"/>
      <path id="DejaVuSans-Bold-74" d="M 1759 4494 
L 1759 3500 
L 2913 3500 
L 2913 2700 
L 1759 2700 
L 1759 1216 
Q 1759 972 1856 886 
Q 1953 800 2241 800 
L 2816 800 
L 2816 0 
L 1856 0 
Q 1194 0 917 276 
Q 641 553 641 1216 
L 641 2700 
L 84 2700 
L 84 3500 
L 641 3500 
L 641 4494 
L 1759 4494 
z
" transform="scale(0.015625)"/>
      <path id="DejaVuSans-Bold-6e" d="M 4056 2131 
L 4056 0 
L 2931 0 
L 2931 347 
L 2931 1631 
Q 2931 2084 2911 2256 
Q 2891 2428 2841 2509 
Q 2775 2619 2662 2680 
Q 2550 2741 2406 2741 
Q 2056 2741 1856 2470 
Q 1656 2200 1656 1722 
L 1656 0 
L 538 0 
L 538 3500 
L 1656 3500 
L 1656 2988 
Q 1909 3294 2193 3439 
Q 2478 3584 2822 3584 
Q 3428 3584 3742 3212 
Q 4056 2841 4056 2131 
z
" transform="scale(0.015625)"/>
     </defs>
     <use xlink:href="#DejaVuSans-Bold-6d"/>
     <use xlink:href="#DejaVuSans-Bold-6f" x="104.199219"/>
     <use xlink:href="#DejaVuSans-Bold-74" x="172.900391"/>
     <use xlink:href="#DejaVuSans-Bold-69" x="220.703125"/>
     <use xlink:href="#DejaVuSans-Bold-6f" x="254.980469"/>
     <use xlink:href="#DejaVuSans-Bold-6e" x="323.681641"/>
    </g>
   </g>
   <g id="text_4">
    <!-- x1 -->
    <g style="fill: #ffffff" transform="translate(436.057727 146.859586) scale(0.11 -0.11)">
     <defs>
      <path id="DejaVuSans-Bold-31" d="M 750 831 
L 1813 831 
L 1813 3847 
L 722 3622 
L 722 4441 
L 1806 4666 
L 2950 4666 
L 2950 831 
L 4013 831 
L 4013 0 
L 750 0 
L 750 831 
z
" transform="scale(0.015625)"/>
     </defs>
     <use xlink:href="#DejaVuSans-Bold-78"/>
     <use xlink:href="#DejaVuSans-Bold-31" x="64.501953"/>
    </g>
   </g>
   <g id="text_5">
    <!-- meas0 -->
    <g style="fill: #ffffff" transform="translate(160.03443 245.190482) scale(0.11 -0.11)">
     <defs>
      <path id="DejaVuSans-Bold-65" d="M 4031 1759 
L 4031 1441 
L 1416 1441 
Q 1456 1047 1700 850 
Q 1944 653 2381 653 
Q 2734 653 3104 758 
Q 3475 863 3866 1075 
L 3866 213 
Q 3469 63 3072 -14 
Q 2675 -91 2278 -91 
Q 1328 -91 801 392 
Q 275 875 275 1747 
Q 275 2603 792 3093 
Q 1309 3584 2216 3584 
Q 3041 3584 3536 3087 
Q 4031 2591 4031 1759 
z
M 2881 2131 
Q 2881 2450 2695 2645 
Q 2509 2841 2209 2841 
Q 1884 2841 1681 2658 
Q 1478 2475 1428 2131 
L 2881 2131 
z
" transform="scale(0.015625)"/>
      <path id="DejaVuSans-Bold-61" d="M 2106 1575 
Q 1756 1575 1579 1456 
Q 1403 1338 1403 1106 
Q 1403 894 1545 773 
Q 1688 653 1941 653 
Q 2256 653 2472 879 
Q 2688 1106 2688 1447 
L 2688 1575 
L 2106 1575 
z
M 3816 1997 
L 3816 0 
L 2688 0 
L 2688 519 
Q 2463 200 2181 54 
Q 1900 -91 1497 -91 
Q 953 -91 614 226 
Q 275 544 275 1050 
Q 275 1666 698 1953 
Q 1122 2241 2028 2241 
L 2688 2241 
L 2688 2328 
Q 2688 2594 2478 2717 
Q 2269 2841 1825 2841 
Q 1466 2841 1156 2769 
Q 847 2697 581 2553 
L 581 3406 
Q 941 3494 1303 3539 
Q 1666 3584 2028 3584 
Q 2975 3584 3395 3211 
Q 3816 2838 3816 1997 
z
" transform="scale(0.015625)"/>
      <path id="DejaVuSans-Bold-73" d="M 3272 3391 
L 3272 2541 
Q 2913 2691 2578 2766 
Q 2244 2841 1947 2841 
Q 1628 2841 1473 2761 
Q 1319 2681 1319 2516 
Q 1319 2381 1436 2309 
Q 1553 2238 1856 2203 
L 2053 2175 
Q 2913 2066 3209 1816 
Q 3506 1566 3506 1031 
Q 3506 472 3093 190 
Q 2681 -91 1863 -91 
Q 1516 -91 1145 -36 
Q 775 19 384 128 
L 384 978 
Q 719 816 1070 734 
Q 1422 653 1784 653 
Q 2113 653 2278 743 
Q 2444 834 2444 1013 
Q 2444 1163 2330 1236 
Q 2216 1309 1875 1350 
L 1678 1375 
Q 931 1469 631 1722 
Q 331 1975 331 2491 
Q 331 3047 712 3315 
Q 1094 3584 1881 3584 
Q 2191 3584 2531 3537 
Q 2872 3491 3272 3391 
z
" transform="scale(0.015625)"/>
     </defs>
     <use xlink:href="#DejaVuSans-Bold-6d"/>
     <use xlink:href="#DejaVuSans-Bold-65" x="104.199219"/>
     <use xlink:href="#DejaVuSans-Bold-61" x="172.021484"/>
     <use xlink:href="#DejaVuSans-Bold-73" x="239.501953"/>
     <use xlink:href="#DejaVuSans-Bold-30" x="299.023438"/>
    </g>
   </g>
   <g id="text_6">
    <!-- meas1 -->
    <g style="fill: #ffffff" transform="translate(326.218058 245.190482) scale(0.11 -0.11)">
     <use xlink:href="#DejaVuSans-Bold-6d"/>
     <use xlink:href="#DejaVuSans-Bold-65" x="104.199219"/>
     <use xlink:href="#DejaVuSans-Bold-61" x="172.021484"/>
     <use xlink:href="#DejaVuSans-Bold-73" x="239.501953"/>
     <use xlink:href="#DejaVuSans-Bold-31" x="299.023438"/>
    </g>
   </g>
   <g id="text_7">
    <!-- m1 -->
    <g style="fill: #ffffff" transform="translate(253.841791 306.647292) scale(0.11 -0.11)">
     <use xlink:href="#DejaVuSans-Bold-6d"/>
     <use xlink:href="#DejaVuSans-Bold-31" x="104.199219"/>
    </g>
   </g>
   <g id="text_8">
    <!-- Tiny Full-SLAM factor graph -->
    <g style="fill: #12343b" transform="translate(181.355625 17.837812) scale(0.14 -0.14)">
     <defs>
      <path id="DejaVuSans-Bold-54" d="M 31 4666 
L 4331 4666 
L 4331 3756 
L 2784 3756 
L 2784 0 
L 1581 0 
L 1581 3756 
L 31 3756 
L 31 4666 
z
" transform="scale(0.015625)"/>
      <path id="DejaVuSans-Bold-79" d="M 78 3500 
L 1197 3500 
L 2138 1125 
L 2938 3500 
L 4056 3500 
L 2584 -331 
Q 2363 -916 2067 -1148 
Q 1772 -1381 1288 -1381 
L 641 -1381 
L 641 -647 
L 991 -647 
Q 1275 -647 1404 -556 
Q 1534 -466 1606 -231 
L 1638 -134 
L 78 3500 
z
" transform="scale(0.015625)"/>
      <path id="DejaVuSans-Bold-20" transform="scale(0.015625)"/>
      <path id="DejaVuSans-Bold-46" d="M 588 4666 
L 3834 4666 
L 3834 3756 
L 1791 3756 
L 1791 2888 
L 3713 2888 
L 3713 1978 
L 1791 1978 
L 1791 0 
L 588 0 
L 588 4666 
z
" transform="scale(0.015625)"/>
      <path id="DejaVuSans-Bold-75" d="M 500 1363 
L 500 3500 
L 1625 3500 
L 1625 3150 
Q 1625 2866 1622 2436 
Q 1619 2006 1619 1863 
Q 1619 1441 1641 1255 
Q 1663 1069 1716 984 
Q 1784 875 1895 815 
Q 2006 756 2150 756 
Q 2500 756 2700 1025 
Q 2900 1294 2900 1772 
L 2900 3500 
L 4019 3500 
L 4019 0 
L 2900 0 
L 2900 506 
Q 2647 200 2364 54 
Q 2081 -91 1741 -91 
Q 1134 -91 817 281 
Q 500 653 500 1363 
z
" transform="scale(0.015625)"/>
      <path id="DejaVuSans-Bold-6c" d="M 538 4863 
L 1656 4863 
L 1656 0 
L 538 0 
L 538 4863 
z
" transform="scale(0.015625)"/>
      <path id="DejaVuSans-Bold-2d" d="M 347 2297 
L 2309 2297 
L 2309 1388 
L 347 1388 
L 347 2297 
z
" transform="scale(0.015625)"/>
      <path id="DejaVuSans-Bold-53" d="M 3834 4519 
L 3834 3531 
Q 3450 3703 3084 3790 
Q 2719 3878 2394 3878 
Q 1963 3878 1756 3759 
Q 1550 3641 1550 3391 
Q 1550 3203 1689 3098 
Q 1828 2994 2194 2919 
L 2706 2816 
Q 3484 2659 3812 2340 
Q 4141 2022 4141 1434 
Q 4141 663 3683 286 
Q 3225 -91 2284 -91 
Q 1841 -91 1394 -6 
Q 947 78 500 244 
L 500 1259 
Q 947 1022 1364 901 
Q 1781 781 2169 781 
Q 2563 781 2772 912 
Q 2981 1044 2981 1288 
Q 2981 1506 2839 1625 
Q 2697 1744 2272 1838 
L 1806 1941 
Q 1106 2091 782 2419 
Q 459 2747 459 3303 
Q 459 4000 909 4375 
Q 1359 4750 2203 4750 
Q 2588 4750 2994 4692 
Q 3400 4634 3834 4519 
z
" transform="scale(0.015625)"/>
      <path id="DejaVuSans-Bold-4c" d="M 588 4666 
L 1791 4666 
L 1791 909 
L 3903 909 
L 3903 0 
L 588 0 
L 588 4666 
z
" transform="scale(0.015625)"/>
      <path id="DejaVuSans-Bold-41" d="M 3419 850 
L 1538 850 
L 1241 0 
L 31 0 
L 1759 4666 
L 3194 4666 
L 4922 0 
L 3713 0 
L 3419 850 
z
M 1838 1716 
L 3116 1716 
L 2478 3572 
L 1838 1716 
z
" transform="scale(0.015625)"/>
      <path id="DejaVuSans-Bold-4d" d="M 588 4666 
L 2119 4666 
L 3181 2169 
L 4250 4666 
L 5778 4666 
L 5778 0 
L 4641 0 
L 4641 3413 
L 3566 897 
L 2803 897 
L 1728 3413 
L 1728 0 
L 588 0 
L 588 4666 
z
" transform="scale(0.015625)"/>
      <path id="DejaVuSans-Bold-66" d="M 2841 4863 
L 2841 4128 
L 2222 4128 
Q 1984 4128 1890 4042 
Q 1797 3956 1797 3744 
L 1797 3500 
L 2753 3500 
L 2753 2700 
L 1797 2700 
L 1797 0 
L 678 0 
L 678 2700 
L 122 2700 
L 122 3500 
L 678 3500 
L 678 3744 
Q 678 4316 997 4589 
Q 1316 4863 1984 4863 
L 2841 4863 
z
" transform="scale(0.015625)"/>
      <path id="DejaVuSans-Bold-63" d="M 3366 3391 
L 3366 2478 
Q 3138 2634 2908 2709 
Q 2678 2784 2431 2784 
Q 1963 2784 1702 2511 
Q 1441 2238 1441 1747 
Q 1441 1256 1702 982 
Q 1963 709 2431 709 
Q 2694 709 2930 787 
Q 3166 866 3366 1019 
L 3366 103 
Q 3103 6 2833 -42 
Q 2563 -91 2291 -91 
Q 1344 -91 809 395 
Q 275 881 275 1747 
Q 275 2613 809 3098 
Q 1344 3584 2291 3584 
Q 2566 3584 2833 3536 
Q 3100 3488 3366 3391 
z
" transform="scale(0.015625)"/>
      <path id="DejaVuSans-Bold-67" d="M 2919 594 
Q 2688 288 2409 144 
Q 2131 0 1766 0 
Q 1125 0 706 504 
Q 288 1009 288 1791 
Q 288 2575 706 3076 
Q 1125 3578 1766 3578 
Q 2131 3578 2409 3434 
Q 2688 3291 2919 2981 
L 2919 3500 
L 4044 3500 
L 4044 353 
Q 4044 -491 3511 -936 
Q 2978 -1381 1966 -1381 
Q 1638 -1381 1331 -1331 
Q 1025 -1281 716 -1178 
L 716 -306 
Q 1009 -475 1290 -558 
Q 1572 -641 1856 -641 
Q 2406 -641 2662 -400 
Q 2919 -159 2919 353 
L 2919 594 
z
M 2181 2772 
Q 1834 2772 1640 2515 
Q 1447 2259 1447 1791 
Q 1447 1309 1634 1061 
Q 1822 813 2181 813 
Q 2531 813 2725 1069 
Q 2919 1325 2919 1791 
Q 2919 2259 2725 2515 
Q 2531 2772 2181 2772 
z
" transform="scale(0.015625)"/>
      <path id="DejaVuSans-Bold-68" d="M 4056 2131 
L 4056 0 
L 2931 0 
L 2931 347 
L 2931 1625 
Q 2931 2084 2911 2256 
Q 2891 2428 2841 2509 
Q 2775 2619 2662 2680 
Q 2550 2741 2406 2741 
Q 2056 2741 1856 2470 
Q 1656 2200 1656 1722 
L 1656 0 
L 538 0 
L 538 4863 
L 1656 4863 
L 1656 2988 
Q 1909 3294 2193 3439 
Q 2478 3584 2822 3584 
Q 3428 3584 3742 3212 
Q 4056 2841 4056 2131 
z
" transform="scale(0.015625)"/>
     </defs>
     <use xlink:href="#DejaVuSans-Bold-54"/>
     <use xlink:href="#DejaVuSans-Bold-69" x="68.212891"/>
     <use xlink:href="#DejaVuSans-Bold-6e" x="102.490234"/>
     <use xlink:href="#DejaVuSans-Bold-79" x="173.681641"/>
     <use xlink:href="#DejaVuSans-Bold-20" x="238.867188"/>
     <use xlink:href="#DejaVuSans-Bold-46" x="273.681641"/>
     <use xlink:href="#DejaVuSans-Bold-75" x="336.992188"/>
     <use xlink:href="#DejaVuSans-Bold-6c" x="408.183594"/>
     <use xlink:href="#DejaVuSans-Bold-6c" x="442.460938"/>
     <use xlink:href="#DejaVuSans-Bold-2d" x="476.738281"/>
     <use xlink:href="#DejaVuSans-Bold-53" x="518.242188"/>
     <use xlink:href="#DejaVuSans-Bold-4c" x="590.263672"/>
     <use xlink:href="#DejaVuSans-Bold-41" x="653.984375"/>
     <use xlink:href="#DejaVuSans-Bold-4d" x="731.376953"/>
     <use xlink:href="#DejaVuSans-Bold-20" x="830.888672"/>
     <use xlink:href="#DejaVuSans-Bold-66" x="865.703125"/>
     <use xlink:href="#DejaVuSans-Bold-61" x="909.208984"/>
     <use xlink:href="#DejaVuSans-Bold-63" x="976.689453"/>
     <use xlink:href="#DejaVuSans-Bold-74" x="1035.966797"/>
     <use xlink:href="#DejaVuSans-Bold-6f" x="1083.769531"/>
     <use xlink:href="#DejaVuSans-Bold-72" x="1152.470703"/>
     <use xlink:href="#DejaVuSans-Bold-20" x="1201.787109"/>
     <use xlink:href="#DejaVuSans-Bold-67" x="1236.601562"/>
     <use xlink:href="#DejaVuSans-Bold-72" x="1308.183594"/>
     <use xlink:href="#DejaVuSans-Bold-61" x="1357.5"/>
     <use xlink:href="#DejaVuSans-Bold-70" x="1424.980469"/>
     <use xlink:href="#DejaVuSans-Bold-68" x="1496.5625"/>
    </g>
   </g>
  </g>
 </g>
 <defs>
  <clipPath id="pcb407c5a6a">
   <rect x="7.2" y="14.764972" width="512.39952" height="331.866775"/>
  </clipPath>
 </defs>
</svg>
