<?xml version="1.0" encoding="utf-8" standalone="no"?>
<!DOCTYPE svg PUBLIC "-//W3C//DTD SVG 1.1//EN"
  "http://www.w3.org/Graphics/SVG/1.1/DTD/svg11.dtd">
<svg xmlns:xlink="http://www.w3.org/1999/xlink" width="526.79952pt" height="354.249986pt" viewBox="0 0 526.79952 354.249986" xmlns="http://www.w3.org/2000/svg" version="1.1">
 <metadata>
  <rdf:RDF xmlns:dc="http://purl.org/dc/elements/1.1/" xmlns:cc="http://creativecommons.org/ns#" xmlns:rdf="http://www.w3.org/1999/02/22-rdf-syntax-ns#">
   <cc:Work>
    <dc:type rdf:resource="http://purl.org/dc/dcmitype/StillImage"/>
    <dc:date>2026-03-04T00:05:15.078547</dc:date>
    <dc:format>image/svg+xml</dc:format>
    <dc:creator>
     <cc:Agent>
      <dc:title>Matplotlib v3.6.3, https://matplotlib.org/</dc:title>
     </cc:Agent>
    </dc:creator>
   </cc:Work>
  </rdf:RDF>
 </metadata>
 <defs>
  <style type="text/css">*{stroke-linejoin: round; stroke-linecap: butt}</style>
 </defs>
 <g id="figure_1">
  <g id="patch_1">
   <path d="M 0 354.249986 
L 526.79952 354.249986 
L 526.79952 -0 
L 0 -0 
z
" style="fill: #f6fbfa"/>
  </g>
  <g id="axes_1">
   <g id="line2d_1">
    <path d="M 92.59992 63.785921 
L 92.59992 143.838809 
" clip-path="url(#p043049e3ca)" style="fill: none; stroke: #3f8f88; stroke-width: 2.6; stroke-linecap: round"/>
   </g>
   <g id="line2d_2">
    <path d="M 92.59992 143.838809 
L 263.39976 143.838809 
" clip-path="url(#p043049e3ca)" style="fill: none; stroke: #3f8f88; stroke-width: 2.6; stroke-linecap: round"/>
   </g>
   <g id="line2d_3">
    <path d="M 263.39976 143.838809 
L 434.1996 143.838809 
" clip-path="url(#p043049e3ca)" style="fill: none; stroke: #3f8f88; stroke-width: 2.6; stroke-linecap: round"/>
   </g>
   <g id="line2d_4">
    <path d="M 92.59992 143.838809 
L 184.569065 242.36544 
" clip-path="url(#p043049e3ca)" style="fill: none; stroke: #3f8f88; stroke-width: 2.6; stroke-linecap: round"/>
   </g>
   <g id="line2d_5">
    <path d="M 434.1996 143.838809 
L 342.230455 242.36544 
" clip-path="url(#p043049e3ca)" style="fill: none; stroke: #3f8f88; stroke-width: 2.6; stroke-linecap: round"/>
   </g>
   <g id="line2d_6">
    <path d="M 184.569065 242.36544 
L 263.39976 303.944585 
" clip-path="url(#p043049e3ca)" style="fill: none; stroke: #3f8f88; stroke-width: 2.6; stroke-linecap: round"/>
   </g>
   <g id="line2d_7">
    <path d="M 342.230455 242.36544 
L 263.39976 303.944585 
" clip-path="url(#p043049e3ca)" style="fill: none; stroke: #3f8f88; stroke-width: 2.6; stroke-linecap: round"/>
   </g>
   <g id="patch_2">
    <path d="M 73.023631 91.619694 
L 117.694358 91.619694 
Q 122.292815 91.619694 122.292815 87.309154 
L 122.292815 45.435336 
Q 122.292815 41.124796 117.694358 41.124796 
L 73.023631 41.124796 
Q 68.425173 41.124796 68.425173 45.435336 
L 68.425173 87.309154 
Q 68.425173 91.619694 73.023631 91.619694 
z
" clip-path="url(#p043049e3ca)" style="fill: #0f2d33; opacity: 0.18"/>
   </g>
   <g id="patch_3">
    <path d="M 95.122502 165.908774 
C 100.697474 165.908774 106.04486 163.832497 109.986961 160.137218 
C 113.929061 156.441939 116.144021 151.429362 116.144021 146.203448 
C 116.144021 140.977534 113.929061 135.964957 109.986961 132.269678 
C 106.04486 128.574399 100.697474 126.498122 95.122502 126.498122 
C 89.54753 126.498122 84.200144 128.574399 80.258044 132.269678 
C 76.315943 135.964957 74.100983 140.977534 74.100983 146.203448 
C 74.100983 151.429362 76.315943 156.441939 80.258044 160.137218 
C 84.200144 163.832497 89.54753 165.908774 95.122502 165.908774 
z
" clip-path="url(#p043049e3ca)" style="fill: #0f2d33; opacity: 0.18"/>
   </g>
   <g id="patch_4">
    <path d="M 243.823471 171.672582 
L 288.494198 171.672582 
Q 293.092655 171.672582 293.092655 167.362042 
L 293.092655 125.488224 
Q 293.092655 121.177684 288.494198 121.177684 
L 243.823471 121.177684 
Q 239.225013 121.177684 239.225013 125.488224 
L 239.225013 167.362042 
Q 239.225013 171.672582 243.823471 171.672582 
z
" clip-path="url(#p043049e3ca)" style="fill: #0f2d33; opacity: 0.18"/>
   </g>
   <g id="patch_5">
    <path d="M 436.722182 165.908774 
C 442.297154 165.908774 447.64454 163.832497 451.586641 160.137218 
C 455.528741 156.441939 457.743701 151.429362 457.743701 146.203448 
C 457.743701 140.977534 455.528741 135.964957 451.586641 132.269678 
C 447.64454 128.574399 442.297154 126.498122 436.722182 126.498122 
C 431.14721 126.498122 425.799824 128.574399 421.857724 132.269678 
C 417.915623 135.964957 415.700663 140.977534 415.700663 146.203448 
C 415.700663 151.429362 417.915623 156.441939 421.857724 160.137218 
C 425.799824 163.832497 431.14721 165.908774 436.722182 165.908774 
z
" clip-path="url(#p043049e3ca)" style="fill: #0f2d33; opacity: 0.18"/>
   </g>
   <g id="patch_6">
    <path d="M 164.992775 270.199214 
L 209.663503 270.199214 
Q 214.26196 270.199214 214.26196 265.888674 
L 214.26196 224.014855 
Q 214.26196 219.704315 209.663503 219.704315 
L 164.992775 219.704315 
Q 160.394318 219.704315 160.394318 224.014855 
L 160.394318 265.888674 
Q 160.394318 270.199214 164.992775 270.199214 
z
" clip-path="url(#p043049e3ca)" style="fill: #0f2d33; opacity: 0.18"/>
   </g>
   <g id="patch_7">
    <path d="M 322.654166 270.199214 
L 367.324893 270.199214 
Q 371.923351 270.199214 371.923351 265.888674 
L 371.923351 224.014855 
Q 371.923351 219.704315 367.324893 219.704315 
L 322.654166 219.704315 
Q 318.055709 219.704315 318.055709 224.014855 
L 318.055709 265.888674 
Q 318.055709 270.199214 322.654166 270.199214 
z
" clip-path="url(#p043049e3ca)" style="fill: #0f2d33; opacity: 0.18"/>
   </g>
   <g id="patch_8">
    <path d="M 265.922342 326.01455 
C 271.497314 326.01455 276.8447 323.938273 280.786801 320.242994 
C 284.728901 316.547715 286.943861 311.535138 286.943861 306.309224 
C 286.943861 301.08331 284.728901 296.070733 280.786801 292.375454 
C 276.8447 288.680175 271.497314 286.603898 265.922342 286.603898 
C 260.34737 286.603898 254.999984 288.680175 251.057884 292.375454 
C 247.115783 296.070733 244.900823 301.08331 244.900823 306.309224 
C 244.900823 311.535138 247.115783 316.547715 251.057884 320.242994 
C 254.999984 323.938273 260.34737 326.01455 265.922342 326.01455 
z
" clip-path="url(#p043049e3ca)" style="fill: #0f2d33; opacity: 0.18"/>
   </g>
   <g id="patch_9">
    <path d="M 70.264556 89.03337 
L 114.935284 89.03337 
Q 119.533741 89.03337 119.533741 84.72283 
L 119.533741 42.849012 
Q 119.533741 38.538472 114.935284 38.538472 
L 70.264556 38.538472 
Q 65.666099 38.538472 65.666099 42.849012 
L 65.666099 84.72283 
Q 65.666099 89.03337 70.264556 89.03337 
z
" clip-path="url(#p043049e3ca)" style="fill: #1f5d5a; stroke: #12343b; stroke-width: 2; stroke-linejoin: miter"/>
   </g>
   <g id="patch_10">
    <path d="M 92.59992 163.544135 
C 98.174892 163.544135 103.522278 161.467858 107.464378 157.772579 
C 111.406479 154.0773 113.621439 149.064723 113.621439 143.838809 
C 113.621439 138.612895 111.406479 133.600318 107.464378 129.905039 
C 103.522278 126.20976 98.174892 124.133483 92.59992 124.133483 
C 87.024948 124.133483 81.677562 126.20976 77.735462 129.905039 
C 73.793361 133.600318 71.578401 138.612895 71.578401 143.838809 
C 71.578401 149.064723 73.793361 154.0773 77.735462 157.772579 
C 81.677562 161.467858 87.024948 163.544135 92.59992 163.544135 
z
" clip-path="url(#p043049e3ca)" style="fill: #64c2b4; stroke: #2f7e79; stroke-width: 2; stroke-linejoin: miter"/>
   </g>
   <g id="patch_11">
    <path d="M 241.064396 169.086258 
L 285.735124 169.086258 
Q 290.333581 169.086258 290.333581 164.775718 
L 290.333581 122.9019 
Q 290.333581 118.59136 285.735124 118.59136 
L 241.064396 118.59136 
Q 236.465939 118.59136 236.465939 122.9019 
L 236.465939 164.775718 
Q 236.465939 169.086258 241.064396 169.086258 
z
" clip-path="url(#p043049e3ca)" style="fill: #1f5d5a; stroke: #12343b; stroke-width: 2; stroke-linejoin: miter"/>
   </g>
   <g id="patch_12">
    <path d="M 434.1996 163.544135 
C 439.774572 163.544135 445.121958 161.467858 449.064058 157.772579 
C 453.006159 154.0773 455.221119 149.064723 455.221119 143.838809 
C 455.221119 138.612895 453.006159 133.600318 449.064058 129.905039 
C 445.121958 126.20976 439.774572 124.133483 434.1996 124.133483 
C 428.624628 124.133483 423.277242 126.20976 419.335142 129.905039 
C 415.393041 133.600318 413.178081 138.612895 413.178081 143.838809 
C 413.178081 149.064723 415.393041 154.0773 419.335142 157.772579 
C 423.277242 161.467858 428.624628 163.544135 434.1996 163.544135 
z
" clip-path="url(#p043049e3ca)" style="fill: #64c2b4; stroke: #2f7e79; stroke-width: 2; stroke-linejoin: miter"/>
   </g>
   <g id="patch_13">
    <path d="M 162.233701 267.61289 
L 206.904428 267.61289 
Q 211.502886 267.61289 211.502886 263.302349 
L 211.502886 221.428531 
Q 211.502886 217.117991 206.904428 217.117991 
L 162.233701 217.117991 
Q 157.635244 217.117991 157.635244 221.428531 
L 157.635244 263.302349 
Q 157.635244 267.61289 162.233701 267.61289 
z
" clip-path="url(#p043049e3ca)" style="fill: #1f5d5a; stroke: #12343b; stroke-width: 2; stroke-linejoin: miter"/>
   </g>
   <g id="patch_14">
    <path d="M 319.895092 267.61289 
L 364.565819 267.61289 
Q 369.164276 267.61289 369.164276 263.302349 
L 369.164276 221.428531 
Q 369.164276 217.117991 364.565819 217.117991 
L 319.895092 217.117991 
Q 315.296634 217.117991 315.296634 221.428531 
L 315.296634 263.302349 
Q 315.296634 267.61289 319.895092 267.61289 
z
" clip-path="url(#p043049e3ca)" style="fill: #1f5d5a; stroke: #12343b; stroke-width: 2; stroke-linejoin: miter"/>
   </g>
   <g id="patch_15">
    <path d="M 263.39976 323.649911 
C 268.974732 323.649911 274.322118 321.573634 278.264218 317.878355 
C 282.206319 314.183076 284.421279 309.170499 284.421279 303.944585 
C 284.421279 298.718671 282.206319 293.706094 278.264218 290.010815 
C 274.322118 286.315536 268.974732 284.239259 263.39976 284.239259 
C 257.824788 284.239259 252.477402 286.315536 248.535302 290.010815 
C 244.593201 293.706094 242.378241 298.718671 242.378241 303.944585 
C 242.378241 309.170499 244.593201 314.183076 248.535302 317.878355 
C 252.477402 321.573634 257.824788 323.649911 263.39976 323.649911 
z
" clip-path="url(#p043049e3ca)" style="fill: #64c2b4; stroke: #2f7e79; stroke-width: 2; stroke-linejoin: miter"/>
   </g>
   <g id="patch_16">
    <path d="M 87.975186 155.267898 
C 92.435163 155.267898 96.713072 153.606876 99.866753 150.650653 
C 103.020433 147.69443 104.792401 143.684368 104.792401 139.503637 
C 104.792401 135.322906 103.020433 131.312844 99.866753 128.356621 
C 96.713072 125.400398 92.435163 123.739376 87.975186 123.739376 
C 83.515208 123.739376 79.237299 125.400398 76.083619 128.356621 
C 72.929939 131.312844 71.157971 135.322906 71.157971 139.503637 
C 71.157971 143.684368 72.929939 147.69443 76.083619 150.650653 
C 79.237299 153.606876 83.515208 155.267898 87.975186 155.267898 
z
" clip-path="url(#p043049e3ca)" style="fill: #ffffff; opacity: 0.08"/>
   </g>
   <g id="patch_17">
    <path d="M 429.574866 155.267898 
C 434.034843 155.267898 438.312752 153.606876 441.466433 150.650653 
C 444.620113 147.69443 446.392081 143.684368 446.392081 139.503637 
C 446.392081 135.322906 444.620113 131.312844 441.466433 128.356621 
C 438.312752 125.400398 434.034843 123.739376 429.574866 123.739376 
C 425.114888 123.739376 420.836979 125.400398 417.683299 128.356621 
C 414.529619 131.312844 412.757651 135.322906 412.757651 139.503637 
C 412.757651 143.684368 414.529619 147.69443 417.683299 150.650653 
C 420.836979 153.606876 425.114888 155.267898 429.574866 155.267898 
z
" clip-path="url(#p043049e3ca)" style="fill: #ffffff; opacity: 0.08"/>
   </g>
   <g id="patch_18">
    <path d="M 258.775026 315.373674 
C 263.235003 315.373674 267.512912 313.712652 270.666593 310.756429 
C 273.820273 307.800206 275.592241 303.790144 275.592241 299.609413 
C 275.592241 295.428682 273.820273 291.41862 270.666593 288.462397 
C 267.512912 285.506174 263.235003 283.845152 258.775026 283.845152 
C 254.315048 283.845152 250.037139 285.506174 246.883459 288.462397 
C 243.729779 291.41862 241.957811 295.428682 241.957811 299.609413 
C 241.957811 303.790144 243.729779 307.800206 246.883459 310.756429 
C 250.037139 313.712652 254.315048 315.373674 258.775026 315.373674 
z
" clip-path="url(#p043049e3ca)" style="fill: #ffffff; opacity: 0.08"/>
   </g>
   <g id="text_1">
    <!-- $f_{0}^{\mathrm{prior}}$ -->
    <g style="fill: #ffffff" transform="translate(75.11592 70.929921) scale(0.188 -0.188)">
     <defs>
      <path id="STIXGeneral-Italic-1d627" d="M 3366 4051 
L 3123 3674 
L 3014 3667 
Q 2861 3808 2774 3862 
Q 2688 3917 2566 3917 
Q 2368 3917 2205 3757 
Q 2042 3597 1958 3258 
L 1869 2899 
L 2598 2899 
L 2490 2445 
L 1760 2445 
L 1152 0 
L 646 0 
L 1254 2445 
L 736 2445 
L 845 2899 
L 1363 2899 
L 1434 3162 
Q 1613 3808 1971 4115 
Q 2291 4371 2637 4371 
Q 3072 4371 3366 4051 
z
" transform="scale(0.015625)"/>
      <path id="STIXGeneral-Regular-1d5c9" d="M 909 2938 
L 922 2618 
Q 1274 2963 1798 2963 
Q 2144 2963 2381 2816 
Q 2656 2643 2832 2307 
Q 3008 1971 3008 1562 
Q 3008 883 2601 409 
Q 2195 -64 1619 -64 
Q 1254 -64 934 166 
L 934 -1229 
L 486 -1382 
L 429 -1350 
L 429 2816 
L 858 2970 
L 909 2938 
z
M 934 1888 
L 934 787 
Q 1184 390 1594 390 
Q 2010 390 2256 697 
Q 2502 1005 2502 1472 
Q 2502 1914 2278 2211 
Q 2054 2509 1670 2509 
Q 1446 2509 1241 2339 
Q 1037 2170 934 1888 
z
" transform="scale(0.015625)"/>
      <path id="STIXGeneral-Regular-1d5cb" d="M 2099 2413 
L 1971 2413 
Q 1907 2509 1722 2509 
Q 1446 2509 1232 2240 
Q 1018 1971 909 1498 
L 909 0 
L 403 0 
L 403 2816 
L 851 2970 
L 909 2938 
L 922 2528 
Q 1229 2963 1734 2963 
Q 1971 2963 2099 2861 
L 2099 2413 
z
" transform="scale(0.015625)"/>
      <path id="STIXGeneral-Regular-1d5c2" d="M 998 3750 
L 410 3750 
L 410 4346 
L 998 4346 
L 998 3750 
z
M 973 0 
L 442 0 
L 442 2816 
L 915 2970 
L 973 2938 
L 973 0 
z
" transform="scale(0.015625)"/>
      <path id="STIXGeneral-Regular-1d5c8" d="M 3014 1466 
Q 3014 1216 2924 957 
Q 2835 698 2668 464 
Q 2502 230 2220 83 
Q 1939 -64 1587 -64 
Q 966 -64 572 374 
Q 179 813 179 1466 
Q 179 2086 563 2524 
Q 947 2963 1568 2963 
Q 2214 2963 2614 2560 
Q 3014 2157 3014 1466 
z
M 2509 1459 
Q 2509 1946 2249 2227 
Q 1990 2509 1574 2509 
Q 1171 2509 928 2201 
Q 685 1894 685 1459 
Q 685 998 941 694 
Q 1197 390 1594 390 
Q 2022 390 2265 732 
Q 2509 1075 2509 1459 
z
" transform="scale(0.015625)"/>
      <path id="STIXGeneral-Regular-1d7e2" d="M 3053 2112 
Q 3053 1523 2915 1046 
Q 2778 570 2438 240 
Q 2099 -90 1600 -90 
Q 1203 -90 912 108 
Q 621 307 461 643 
Q 301 979 224 1353 
Q 147 1728 147 2150 
Q 147 2746 294 3222 
Q 442 3699 787 4012 
Q 1133 4326 1626 4326 
Q 2253 4326 2653 3708 
Q 3053 3091 3053 2112 
z
M 2547 2112 
Q 2547 2893 2288 3382 
Q 2029 3872 1613 3872 
Q 1139 3872 896 3376 
Q 653 2880 653 2138 
Q 653 1805 701 1507 
Q 749 1210 854 944 
Q 960 678 1152 521 
Q 1344 365 1600 365 
Q 1926 365 2147 627 
Q 2368 890 2457 1270 
Q 2547 1651 2547 2112 
z
" transform="scale(0.015625)"/>
     </defs>
     <use xlink:href="#STIXGeneral-Italic-1d627" transform="translate(0 0.182812)"/>
     <use xlink:href="#STIXGeneral-Regular-1d5c9" transform="translate(51.186944 52.465625) scale(0.7)"/>
     <use xlink:href="#STIXGeneral-Regular-1d5cb" transform="translate(86.046935 52.465625) scale(0.7)"/>
     <use xlink:href="#STIXGeneral-Regular-1d5c2" transform="translate(109.566929 52.465625) scale(0.7)"/>
     <use xlink:href="#STIXGeneral-Regular-1d5c8" transform="translate(124.966918 52.465625) scale(0.7)"/>
     <use xlink:href="#STIXGeneral-Regular-1d5cb" transform="translate(159.896914 52.465625) scale(0.7)"/>
     <use xlink:href="#STIXGeneral-Regular-1d7e2" transform="translate(33.599991 -22.465625) scale(0.7)"/>
    </g>
   </g>
   <g id="text_2">
    <!-- $x_{0}$ -->
    <g style="fill: #ffffff" transform="translate(83.35492 149.971348) scale(0.215 -0.215)">
     <defs>
      <path id="STIXGeneral-Italic-1d639" d="M 3482 2899 
L 2202 1510 
L 2893 0 
L 2291 0 
L 1786 1120 
L 794 0 
L 192 0 
L 1600 1530 
L 986 2899 
L 1587 2899 
L 2022 1933 
L 2880 2899 
L 3482 2899 
z
" transform="scale(0.015625)"/>
     </defs>
     <use xlink:href="#STIXGeneral-Italic-1d639" transform="translate(0 0.703125)"/>
     <use xlink:href="#STIXGeneral-Regular-1d7e2" transform="translate(48.199997 -12.885937) scale(0.7)"/>
    </g>
   </g>
   <g id="text_3">
    <!-- $f_{0}^{\mathrm{motion}}$ -->
    <g style="fill: #ffffff" transform="translate(238.08226 150.193809) scale(0.205 -0.205)">
     <defs>
      <path id="STIXGeneral-Regular-1d5c6" d="M 4422 0 
L 3930 0 
L 3930 1875 
Q 3930 2509 3424 2509 
Q 3251 2509 3004 2345 
Q 2758 2182 2669 1933 
L 2669 0 
L 2170 0 
L 2170 1856 
Q 2170 2509 1677 2509 
Q 1504 2509 1248 2349 
Q 992 2189 909 1933 
L 909 0 
L 416 0 
L 416 2816 
L 832 2970 
L 890 2938 
L 890 2573 
Q 1203 2963 1779 2963 
Q 2349 2963 2618 2547 
Q 2995 2963 3526 2963 
Q 3904 2963 4163 2716 
Q 4422 2470 4422 2016 
L 4422 0 
z
" transform="scale(0.015625)"/>
      <path id="STIXGeneral-Regular-1d5cd" d="M 1837 557 
L 1766 77 
Q 1581 -64 1203 -64 
Q 877 -64 697 131 
Q 518 326 518 666 
L 518 2445 
L 6 2445 
L 6 2554 
L 294 2899 
L 518 2899 
L 518 3309 
L 909 3712 
L 1024 3712 
L 1024 2899 
L 1690 2899 
L 1690 2445 
L 1024 2445 
L 1024 877 
Q 1024 595 1107 492 
Q 1190 390 1350 390 
Q 1587 390 1760 557 
L 1837 557 
z
" transform="scale(0.015625)"/>
      <path id="STIXGeneral-Regular-1d5c7" d="M 2714 0 
L 2208 0 
L 2208 1946 
Q 2208 2509 1683 2509 
Q 1498 2509 1248 2349 
Q 998 2189 909 1933 
L 909 0 
L 403 0 
L 403 2816 
L 819 2970 
L 877 2938 
L 890 2573 
Q 1126 2803 1347 2883 
Q 1568 2963 1856 2963 
Q 2042 2963 2234 2876 
Q 2426 2790 2541 2675 
Q 2714 2445 2714 2054 
L 2714 0 
z
" transform="scale(0.015625)"/>
     </defs>
     <use xlink:href="#STIXGeneral-Italic-1d627" transform="translate(0 0.598438)"/>
     <use xlink:href="#STIXGeneral-Regular-1d5c6" transform="translate(51.186944 38.465625) scale(0.7)"/>
     <use xlink:href="#STIXGeneral-Regular-1d5c8" transform="translate(104.106938 38.465625) scale(0.7)"/>
     <use xlink:href="#STIXGeneral-Regular-1d5cd" transform="translate(139.036933 38.465625) scale(0.7)"/>
     <use xlink:href="#STIXGeneral-Regular-1d5c2" transform="translate(159.406927 38.465625) scale(0.7)"/>
     <use xlink:href="#STIXGeneral-Regular-1d5c8" transform="translate(174.806916 38.465625) scale(0.7)"/>
     <use xlink:href="#STIXGeneral-Regular-1d5c7" transform="translate(209.736912 38.465625) scale(0.7)"/>
     <use xlink:href="#STIXGeneral-Regular-1d7e2" transform="translate(33.599991 -22.05) scale(0.7)"/>
    </g>
   </g>
   <g id="text_4">
    <!-- $x_{1}$ -->
    <g style="fill: #ffffff" transform="translate(424.9546 149.971348) scale(0.215 -0.215)">
     <defs>
      <path id="STIXGeneral-Regular-1d7e3" d="M 1933 0 
L 1427 0 
L 1427 3648 
Q 1286 3584 1008 3440 
Q 730 3296 691 3277 
L 691 3744 
L 1843 4333 
L 1933 4301 
L 1933 0 
z
" transform="scale(0.015625)"/>
     </defs>
     <use xlink:href="#STIXGeneral-Italic-1d639" transform="translate(0 0.703125)"/>
     <use xlink:href="#STIXGeneral-Regular-1d7e3" transform="translate(48.199997 -12.885937) scale(0.7)"/>
    </g>
   </g>
   <g id="text_5">
    <!-- $f_{0,1}^{\mathrm{meas}}$ -->
    <g style="fill: #ffffff" transform="translate(164.376565 246.26044) scale(0.205 -0.205)">
     <defs>
      <path id="STIXGeneral-Regular-1d5be" d="M 2317 1069 
L 2739 845 
Q 2496 358 2214 147 
Q 1933 -64 1472 -64 
Q 890 -64 518 336 
Q 147 736 147 1446 
Q 147 2189 608 2618 
Q 973 2963 1523 2963 
Q 2029 2963 2329 2633 
Q 2630 2304 2630 1773 
L 2630 1421 
L 653 1421 
Q 653 934 902 662 
Q 1152 390 1523 390 
Q 2029 390 2317 1069 
z
M 736 1875 
L 2112 1875 
Q 2093 2509 1472 2509 
Q 1216 2509 1005 2349 
Q 794 2189 736 1875 
z
" transform="scale(0.015625)"/>
      <path id="STIXGeneral-Regular-1d5ba" d="M 2502 0 
L 1958 0 
L 1926 282 
Q 1542 -64 973 -64 
Q 627 -64 425 115 
Q 224 294 224 646 
Q 224 1107 630 1408 
Q 1037 1709 1933 1882 
L 1933 2093 
Q 1933 2278 1782 2393 
Q 1632 2509 1389 2509 
Q 902 2509 698 1933 
L 602 1933 
L 288 2131 
Q 371 2566 678 2764 
Q 986 2963 1402 2963 
Q 1875 2963 2156 2729 
Q 2438 2496 2438 2086 
L 2438 486 
Q 2438 301 2502 0 
z
M 1933 845 
L 1933 1421 
Q 1382 1331 1050 1146 
Q 730 979 730 717 
Q 730 390 1101 390 
Q 1530 390 1933 845 
z
" transform="scale(0.015625)"/>
      <path id="STIXGeneral-Regular-1d5cc" d="M 2112 2054 
L 2016 2054 
Q 1837 2336 1657 2425 
Q 1478 2515 1229 2515 
Q 1024 2515 921 2412 
Q 819 2310 819 2189 
Q 819 2029 953 1917 
Q 1088 1805 1357 1696 
Q 1888 1472 2064 1286 
Q 2240 1101 2240 755 
Q 2240 333 1850 90 
Q 1606 -64 1210 -64 
Q 922 -64 726 19 
Q 531 102 320 288 
L 320 947 
L 416 947 
Q 666 390 1248 390 
Q 1453 390 1593 483 
Q 1734 576 1734 755 
Q 1734 883 1616 976 
Q 1498 1069 1184 1210 
Q 698 1427 506 1638 
Q 314 1850 314 2163 
Q 314 2496 570 2729 
Q 826 2963 1242 2963 
Q 1792 2963 2112 2624 
L 2112 2054 
z
" transform="scale(0.015625)"/>
      <path id="STIXGeneral-Regular-2c" d="M 531 -902 
L 467 -781 
Q 998 -422 998 -96 
Q 998 -13 909 -13 
Q 883 -13 822 -25 
Q 762 -38 723 -38 
Q 352 -38 352 288 
Q 352 454 457 553 
Q 563 653 736 653 
Q 954 653 1101 496 
Q 1248 339 1248 96 
Q 1248 -198 1053 -473 
Q 858 -749 531 -902 
z
" transform="scale(0.015625)"/>
     </defs>
     <use xlink:href="#STIXGeneral-Italic-1d627" transform="translate(0 0.571875)"/>
     <use xlink:href="#STIXGeneral-Regular-1d5c6" transform="translate(51.186944 38.515625) scale(0.7)"/>
     <use xlink:href="#STIXGeneral-Regular-1d5be" transform="translate(104.106938 38.515625) scale(0.7)"/>
     <use xlink:href="#STIXGeneral-Regular-1d5ba" transform="translate(135.186933 38.515625) scale(0.7)"/>
     <use xlink:href="#STIXGeneral-Regular-1d5cc" transform="translate(166.546925 38.515625) scale(0.7)"/>
     <use xlink:href="#STIXGeneral-Regular-1d7e2" transform="translate(33.599991 -22.076562) scale(0.7)"/>
     <use xlink:href="#STIXGeneral-Regular-2c" transform="translate(68.59998 -22.076562) scale(0.7)"/>
     <use xlink:href="#STIXGeneral-Regular-1d7e3" transform="translate(96.683968 -22.076562) scale(0.7)"/>
    </g>
   </g>
   <g id="text_6">
    <!-- $f_{1,1}^{\mathrm{meas}}$ -->
    <g style="fill: #ffffff" transform="translate(322.037955 246.26044) scale(0.205 -0.205)">
     <use xlink:href="#STIXGeneral-Italic-1d627" transform="translate(0 0.571875)"/>
     <use xlink:href="#STIXGeneral-Regular-1d5c6" transform="translate(51.186944 38.515625) scale(0.7)"/>
     <use xlink:href="#STIXGeneral-Regular-1d5be" transform="translate(104.106938 38.515625) scale(0.7)"/>
     <use xlink:href="#STIXGeneral-Regular-1d5ba" transform="translate(135.186933 38.515625) scale(0.7)"/>
     <use xlink:href="#STIXGeneral-Regular-1d5cc" transform="translate(166.546925 38.515625) scale(0.7)"/>
     <use xlink:href="#STIXGeneral-Regular-1d7e3" transform="translate(33.599991 -22.076562) scale(0.7)"/>
     <use xlink:href="#STIXGeneral-Regular-2c" transform="translate(68.59998 -22.076562) scale(0.7)"/>
     <use xlink:href="#STIXGeneral-Regular-1d7e3" transform="translate(96.683968 -22.076562) scale(0.7)"/>
    </g>
   </g>
   <g id="text_7">
    <!-- $m_{1}$ -->
    <g style="fill: #ffffff" transform="translate(251.25226 310.077124) scale(0.215 -0.215)">
     <defs>
      <path id="STIXGeneral-Italic-1d62e" d="M 1619 2938 
L 1530 2573 
Q 1939 2963 2515 2963 
Q 3078 2963 3251 2547 
Q 3725 2963 4262 2963 
Q 4576 2963 4768 2796 
Q 4960 2630 4960 2310 
Q 4960 2176 4922 2016 
L 4422 0 
L 3930 0 
L 4397 1875 
Q 4435 2029 4435 2144 
Q 4435 2509 4045 2509 
Q 3872 2509 3584 2345 
Q 3296 2182 3149 1933 
L 2669 0 
L 2176 0 
L 2630 1856 
Q 2675 2061 2675 2144 
Q 2675 2509 2298 2509 
Q 2125 2509 1833 2349 
Q 1542 2189 1389 1933 
L 909 0 
L 416 0 
L 1114 2816 
L 1568 2970 
L 1619 2938 
z
" transform="scale(0.015625)"/>
     </defs>
     <use xlink:href="#STIXGeneral-Italic-1d62e" transform="translate(0 0.59375)"/>
     <use xlink:href="#STIXGeneral-Regular-1d7e3" transform="translate(75.599991 -12.995312) scale(0.7)"/>
    </g>
   </g>
   <g id="text_8">
    <!-- Tiny Full-SLAM factor graph -->
    <g style="fill: #12343b" transform="translate(175.270854 17.601562) scale(0.14 -0.14)">
     <defs>
      <path id="Lato-Bold-54" d="M 3747 3920 
L 2352 3920 
L 2352 0 
L 1491 0 
L 1491 3920 
L 96 3920 
L 96 4627 
L 3747 4627 
L 3747 3920 
z
" transform="scale(0.015625)"/>
      <path id="Lato-Bold-69" d="M 1210 3283 
L 1210 0 
L 416 0 
L 416 3283 
L 1210 3283 
z
M 1318 4240 
Q 1318 4138 1276 4048 
Q 1235 3958 1166 3891 
Q 1098 3824 1005 3784 
Q 912 3744 806 3744 
Q 704 3744 613 3784 
Q 522 3824 454 3891 
Q 387 3958 347 4048 
Q 307 4138 307 4240 
Q 307 4346 347 4438 
Q 387 4531 454 4598 
Q 522 4666 613 4706 
Q 704 4746 806 4746 
Q 912 4746 1005 4706 
Q 1098 4666 1166 4598 
Q 1235 4531 1276 4438 
Q 1318 4346 1318 4240 
z
" transform="scale(0.015625)"/>
      <path id="Lato-Bold-6e" d="M 1130 2880 
Q 1229 2979 1339 3064 
Q 1450 3149 1573 3208 
Q 1696 3267 1837 3300 
Q 1978 3334 2144 3334 
Q 2413 3334 2621 3243 
Q 2829 3152 2968 2987 
Q 3107 2822 3179 2593 
Q 3251 2365 3251 2090 
L 3251 0 
L 2461 0 
L 2461 2090 
Q 2461 2390 2323 2555 
Q 2186 2720 1904 2720 
Q 1699 2720 1520 2627 
Q 1341 2534 1181 2374 
L 1181 0 
L 390 0 
L 390 3283 
L 874 3283 
Q 1027 3283 1075 3139 
L 1130 2880 
z
" transform="scale(0.015625)"/>
      <path id="Lato-Bold-79" d="M 3373 3283 
L 1584 -902 
Q 1549 -986 1493 -1029 
Q 1437 -1072 1322 -1072 
L 733 -1072 
L 1347 246 
L 19 3283 
L 714 3283 
Q 806 3283 859 3238 
Q 912 3194 938 3136 
L 1635 1434 
Q 1670 1347 1694 1260 
Q 1718 1174 1741 1085 
Q 1770 1174 1798 1262 
Q 1827 1350 1862 1437 
L 2522 3136 
Q 2547 3200 2606 3241 
Q 2666 3283 2739 3283 
L 3373 3283 
z
" transform="scale(0.015625)"/>
      <path id="Lato-Bold-20" transform="scale(0.015625)"/>
      <path id="Lato-Bold-46" d="M 1379 3942 
L 1379 2573 
L 3114 2573 
L 3114 1885 
L 1379 1885 
L 1379 0 
L 515 0 
L 515 4627 
L 3434 4627 
L 3434 3942 
L 1379 3942 
z
" transform="scale(0.015625)"/>
      <path id="Lato-Bold-75" d="M 3219 3283 
L 3219 0 
L 2736 0 
Q 2579 0 2538 144 
L 2483 406 
Q 2282 202 2038 75 
Q 1795 -51 1466 -51 
Q 1197 -51 990 40 
Q 784 131 643 297 
Q 502 464 430 693 
Q 358 922 358 1197 
L 358 3283 
L 1149 3283 
L 1149 1197 
Q 1149 896 1288 731 
Q 1427 566 1706 566 
Q 1910 566 2089 657 
Q 2269 749 2429 909 
L 2429 3283 
L 3219 3283 
z
" transform="scale(0.015625)"/>
      <path id="Lato-Bold-6c" d="M 1190 4755 
L 1190 0 
L 400 0 
L 400 4755 
L 1190 4755 
z
" transform="scale(0.015625)"/>
      <path id="Lato-Bold-2d" d="M 365 2262 
L 2022 2262 
L 2022 1603 
L 365 1603 
L 365 2262 
z
" transform="scale(0.015625)"/>
      <path id="Lato-Bold-53" d="M 2979 3786 
Q 2941 3718 2897 3688 
Q 2854 3658 2790 3658 
Q 2723 3658 2644 3707 
Q 2566 3757 2457 3817 
Q 2349 3878 2203 3928 
Q 2058 3978 1859 3978 
Q 1680 3978 1545 3934 
Q 1411 3891 1320 3814 
Q 1229 3738 1184 3630 
Q 1139 3523 1139 3395 
Q 1139 3232 1230 3123 
Q 1322 3014 1472 2937 
Q 1622 2861 1814 2800 
Q 2006 2739 2208 2670 
Q 2410 2602 2602 2510 
Q 2794 2419 2944 2280 
Q 3094 2141 3185 1939 
Q 3277 1738 3277 1450 
Q 3277 1136 3169 862 
Q 3062 589 2856 385 
Q 2650 182 2352 65 
Q 2054 -51 1670 -51 
Q 1450 -51 1235 -8 
Q 1021 35 824 115 
Q 627 195 454 307 
Q 282 419 147 557 
L 400 970 
Q 432 1014 483 1044 
Q 534 1075 592 1075 
Q 672 1075 765 1009 
Q 858 944 986 864 
Q 1114 784 1285 718 
Q 1456 653 1696 653 
Q 2064 653 2265 827 
Q 2467 1002 2467 1328 
Q 2467 1510 2376 1625 
Q 2285 1741 2134 1819 
Q 1984 1898 1792 1952 
Q 1600 2006 1401 2070 
Q 1203 2134 1011 2224 
Q 819 2314 668 2458 
Q 518 2602 427 2818 
Q 336 3034 336 3350 
Q 336 3603 437 3843 
Q 538 4083 730 4268 
Q 922 4454 1203 4566 
Q 1485 4678 1850 4678 
Q 2259 4678 2604 4550 
Q 2950 4422 3194 4192 
L 2979 3786 
z
" transform="scale(0.015625)"/>
      <path id="Lato-Bold-4c" d="M 3226 710 
L 3226 0 
L 515 0 
L 515 4627 
L 1376 4627 
L 1376 710 
L 3226 710 
z
" transform="scale(0.015625)"/>
      <path id="Lato-Bold-41" d="M 2960 1747 
L 2397 3286 
Q 2355 3389 2310 3529 
Q 2266 3670 2221 3834 
Q 2179 3670 2134 3528 
Q 2090 3386 2048 3280 
L 1488 1747 
L 2960 1747 
z
M 4480 0 
L 3814 0 
Q 3702 0 3632 56 
Q 3562 112 3526 195 
L 3181 1139 
L 1264 1139 
L 918 195 
Q 893 122 819 61 
Q 746 0 637 0 
L -35 0 
L 1786 4627 
L 2662 4627 
L 4480 0 
z
" transform="scale(0.015625)"/>
      <path id="Lato-Bold-4d" d="M 5533 4627 
L 5533 0 
L 4774 0 
L 4774 2989 
Q 4774 3168 4794 3376 
L 3395 749 
Q 3296 560 3091 560 
L 2970 560 
Q 2765 560 2666 749 
L 1251 3386 
Q 1261 3280 1267 3177 
Q 1274 3075 1274 2989 
L 1274 0 
L 515 0 
L 515 4627 
L 1165 4627 
Q 1222 4627 1264 4624 
Q 1306 4621 1339 4608 
Q 1373 4595 1400 4566 
Q 1427 4538 1453 4490 
L 2838 1920 
Q 2893 1818 2939 1709 
Q 2986 1600 3030 1485 
Q 3075 1603 3123 1713 
Q 3171 1824 3226 1926 
L 4592 4490 
Q 4618 4538 4646 4566 
Q 4675 4595 4708 4608 
Q 4742 4621 4784 4624 
Q 4826 4627 4883 4627 
L 5533 4627 
z
" transform="scale(0.015625)"/>
      <path id="Lato-Bold-66" d="M 621 0 
L 621 2688 
L 336 2733 
Q 243 2752 187 2798 
Q 131 2845 131 2931 
L 131 3254 
L 621 3254 
L 621 3498 
Q 621 3779 705 4003 
Q 790 4227 948 4384 
Q 1107 4541 1334 4624 
Q 1562 4707 1846 4707 
Q 2074 4707 2269 4646 
L 2253 4250 
Q 2250 4205 2227 4177 
Q 2205 4150 2168 4136 
Q 2131 4122 2083 4117 
Q 2035 4112 1981 4112 
Q 1840 4112 1729 4081 
Q 1619 4051 1542 3976 
Q 1466 3901 1426 3777 
Q 1386 3654 1386 3472 
L 1386 3254 
L 2240 3254 
L 2240 2691 
L 1411 2691 
L 1411 0 
L 621 0 
z
" transform="scale(0.015625)"/>
      <path id="Lato-Bold-61" d="M 2125 1402 
Q 1782 1386 1548 1342 
Q 1315 1299 1174 1232 
Q 1034 1165 973 1075 
Q 912 986 912 880 
Q 912 672 1035 582 
Q 1158 493 1357 493 
Q 1600 493 1777 581 
Q 1955 669 2125 848 
L 2125 1402 
z
M 314 2826 
Q 880 3344 1677 3344 
Q 1965 3344 2192 3249 
Q 2419 3155 2576 2987 
Q 2733 2819 2814 2585 
Q 2896 2352 2896 2074 
L 2896 0 
L 2538 0 
Q 2426 0 2365 33 
Q 2304 67 2269 170 
L 2198 406 
Q 2074 294 1955 209 
Q 1837 125 1709 67 
Q 1581 10 1435 -20 
Q 1290 -51 1114 -51 
Q 906 -51 730 5 
Q 554 61 426 173 
Q 298 285 227 451 
Q 157 618 157 838 
Q 157 963 198 1086 
Q 240 1210 334 1322 
Q 429 1434 579 1533 
Q 730 1632 949 1705 
Q 1168 1779 1459 1825 
Q 1750 1872 2125 1882 
L 2125 2074 
Q 2125 2403 1984 2561 
Q 1843 2720 1578 2720 
Q 1386 2720 1259 2675 
Q 1133 2630 1037 2574 
Q 941 2518 862 2473 
Q 784 2429 688 2429 
Q 605 2429 547 2472 
Q 490 2515 454 2573 
L 314 2826 
z
" transform="scale(0.015625)"/>
      <path id="Lato-Bold-63" d="M 2742 2589 
Q 2707 2544 2673 2518 
Q 2640 2493 2576 2493 
Q 2515 2493 2457 2529 
Q 2400 2566 2320 2612 
Q 2240 2659 2129 2696 
Q 2019 2733 1856 2733 
Q 1648 2733 1491 2657 
Q 1334 2582 1230 2441 
Q 1126 2301 1075 2101 
Q 1024 1901 1024 1648 
Q 1024 1386 1080 1181 
Q 1136 976 1241 837 
Q 1347 698 1497 626 
Q 1648 554 1837 554 
Q 2026 554 2142 600 
Q 2259 646 2339 702 
Q 2419 758 2478 804 
Q 2538 851 2611 851 
Q 2707 851 2755 778 
L 2982 490 
Q 2851 336 2697 232 
Q 2544 128 2379 65 
Q 2214 3 2040 -22 
Q 1866 -48 1693 -48 
Q 1389 -48 1120 65 
Q 851 179 649 396 
Q 448 614 331 929 
Q 214 1245 214 1648 
Q 214 2010 318 2318 
Q 422 2627 624 2852 
Q 826 3078 1123 3206 
Q 1421 3334 1808 3334 
Q 2176 3334 2453 3216 
Q 2730 3098 2950 2877 
L 2742 2589 
z
" transform="scale(0.015625)"/>
      <path id="Lato-Bold-74" d="M 1485 -51 
Q 1056 -51 827 190 
Q 598 432 598 858 
L 598 2691 
L 262 2691 
Q 198 2691 153 2732 
Q 109 2774 109 2858 
L 109 3171 
L 637 3258 
L 803 4154 
Q 819 4218 864 4253 
Q 909 4288 979 4288 
L 1389 4288 
L 1389 3254 
L 2266 3254 
L 2266 2691 
L 1389 2691 
L 1389 912 
Q 1389 758 1464 672 
Q 1539 586 1670 586 
Q 1744 586 1793 603 
Q 1843 621 1880 640 
Q 1917 659 1945 676 
Q 1974 694 2003 694 
Q 2038 694 2060 676 
Q 2083 659 2109 624 
L 2346 240 
Q 2173 96 1949 22 
Q 1725 -51 1485 -51 
z
" transform="scale(0.015625)"/>
      <path id="Lato-Bold-6f" d="M 1843 3334 
Q 2208 3334 2507 3216 
Q 2806 3098 3019 2880 
Q 3232 2662 3347 2348 
Q 3462 2035 3462 1648 
Q 3462 1258 3347 944 
Q 3232 630 3019 409 
Q 2806 189 2507 70 
Q 2208 -48 1843 -48 
Q 1475 -48 1174 70 
Q 874 189 661 409 
Q 448 630 331 944 
Q 214 1258 214 1648 
Q 214 2035 331 2348 
Q 448 2662 661 2880 
Q 874 3098 1174 3216 
Q 1475 3334 1843 3334 
z
M 1843 560 
Q 2253 560 2449 835 
Q 2646 1110 2646 1642 
Q 2646 2173 2449 2451 
Q 2253 2730 1843 2730 
Q 1427 2730 1227 2450 
Q 1027 2170 1027 1642 
Q 1027 1114 1227 837 
Q 1427 560 1843 560 
z
" transform="scale(0.015625)"/>
      <path id="Lato-Bold-72" d="M 1136 2714 
Q 1290 3008 1501 3176 
Q 1712 3344 2000 3344 
Q 2227 3344 2365 3245 
L 2314 2653 
Q 2298 2595 2267 2571 
Q 2237 2547 2186 2547 
Q 2138 2547 2043 2563 
Q 1949 2579 1859 2579 
Q 1728 2579 1625 2540 
Q 1523 2502 1441 2430 
Q 1360 2358 1297 2256 
Q 1235 2154 1181 2022 
L 1181 0 
L 390 0 
L 390 3283 
L 854 3283 
Q 976 3283 1024 3240 
Q 1072 3197 1088 3085 
L 1136 2714 
z
" transform="scale(0.015625)"/>
      <path id="Lato-Bold-67" d="M 1590 1722 
Q 1738 1722 1846 1762 
Q 1955 1802 2027 1872 
Q 2099 1942 2136 2041 
Q 2173 2141 2173 2259 
Q 2173 2502 2027 2644 
Q 1882 2787 1590 2787 
Q 1299 2787 1153 2644 
Q 1008 2502 1008 2259 
Q 1008 2144 1045 2045 
Q 1082 1946 1154 1874 
Q 1226 1802 1336 1762 
Q 1446 1722 1590 1722 
z
M 2483 -147 
Q 2483 -51 2425 9 
Q 2368 70 2269 104 
Q 2170 138 2037 154 
Q 1904 170 1755 178 
Q 1606 186 1448 192 
Q 1290 198 1139 218 
Q 1008 144 926 45 
Q 845 -54 845 -186 
Q 845 -272 888 -347 
Q 931 -422 1025 -476 
Q 1120 -531 1270 -561 
Q 1421 -592 1638 -592 
Q 1859 -592 2019 -558 
Q 2179 -525 2283 -465 
Q 2387 -406 2435 -324 
Q 2483 -243 2483 -147 
z
M 3270 3171 
L 3270 2877 
Q 3270 2736 3101 2704 
L 2806 2650 
Q 2874 2480 2874 2278 
Q 2874 2035 2776 1838 
Q 2678 1642 2505 1504 
Q 2333 1366 2097 1291 
Q 1862 1216 1590 1216 
Q 1494 1216 1404 1225 
Q 1315 1235 1229 1251 
Q 1075 1158 1075 1043 
Q 1075 944 1166 897 
Q 1258 851 1408 832 
Q 1558 813 1750 808 
Q 1942 803 2144 787 
Q 2346 771 2538 731 
Q 2730 691 2880 604 
Q 3030 518 3121 369 
Q 3213 221 3213 -13 
Q 3213 -230 3105 -435 
Q 2998 -640 2795 -800 
Q 2592 -960 2296 -1057 
Q 2000 -1155 1622 -1155 
Q 1251 -1155 976 -1083 
Q 701 -1011 518 -891 
Q 336 -771 246 -614 
Q 157 -458 157 -288 
Q 157 -58 296 97 
Q 435 253 678 346 
Q 547 413 470 525 
Q 394 637 394 819 
Q 394 893 421 971 
Q 448 1050 501 1126 
Q 554 1203 634 1272 
Q 714 1341 822 1395 
Q 573 1530 430 1754 
Q 288 1978 288 2278 
Q 288 2522 385 2718 
Q 483 2915 657 3054 
Q 832 3194 1070 3267 
Q 1309 3341 1590 3341 
Q 1802 3341 1987 3297 
Q 2173 3254 2326 3171 
L 3270 3171 
z
" transform="scale(0.015625)"/>
      <path id="Lato-Bold-70" d="M 1181 851 
Q 1315 688 1473 621 
Q 1632 554 1818 554 
Q 1997 554 2141 621 
Q 2285 688 2385 825 
Q 2486 963 2540 1172 
Q 2595 1382 2595 1667 
Q 2595 1955 2548 2155 
Q 2502 2355 2416 2480 
Q 2330 2605 2206 2662 
Q 2083 2720 1926 2720 
Q 1680 2720 1507 2616 
Q 1334 2512 1181 2323 
L 1181 851 
z
M 1139 2835 
Q 1341 3062 1597 3203 
Q 1853 3344 2198 3344 
Q 2467 3344 2689 3232 
Q 2912 3120 3073 2907 
Q 3235 2694 3323 2382 
Q 3411 2070 3411 1667 
Q 3411 1299 3312 985 
Q 3213 672 3029 441 
Q 2845 211 2584 81 
Q 2323 -48 2000 -48 
Q 1725 -48 1529 37 
Q 1334 122 1181 272 
L 1181 -1072 
L 390 -1072 
L 390 3283 
L 874 3283 
Q 1027 3283 1075 3139 
L 1139 2835 
z
" transform="scale(0.015625)"/>
      <path id="Lato-Bold-68" d="M 1181 2931 
Q 1373 3110 1603 3222 
Q 1834 3334 2144 3334 
Q 2413 3334 2621 3243 
Q 2829 3152 2968 2987 
Q 3107 2822 3179 2593 
Q 3251 2365 3251 2090 
L 3251 0 
L 2461 0 
L 2461 2090 
Q 2461 2390 2323 2555 
Q 2186 2720 1904 2720 
Q 1699 2720 1520 2627 
Q 1341 2534 1181 2374 
L 1181 0 
L 390 0 
L 390 4755 
L 1181 4755 
L 1181 2931 
z
" transform="scale(0.015625)"/>
     </defs>
     <use xlink:href="#Lato-Bold-54"/>
     <use xlink:href="#Lato-Bold-69" x="60.000015"/>
     <use xlink:href="#Lato-Bold-6e" x="85.400009"/>
     <use xlink:href="#Lato-Bold-79" x="141.800018"/>
     <use xlink:href="#Lato-Bold-20" x="194.550018"/>
     <use xlink:href="#Lato-Bold-46" x="218.850021"/>
     <use xlink:href="#Lato-Bold-75" x="275.450027"/>
     <use xlink:href="#Lato-Bold-6c" x="331.850037"/>
     <use xlink:href="#Lato-Bold-6c" x="356.700043"/>
     <use xlink:href="#Lato-Bold-2d" x="381.550049"/>
     <use xlink:href="#Lato-Bold-53" x="418.850052"/>
     <use xlink:href="#Lato-Bold-4c" x="473.700058"/>
     <use xlink:href="#Lato-Bold-41" x="525.65007"/>
     <use xlink:href="#Lato-Bold-4d" x="595.100082"/>
     <use xlink:href="#Lato-Bold-20" x="689.600098"/>
     <use xlink:href="#Lato-Bold-66" x="713.900101"/>
     <use xlink:href="#Lato-Bold-61" x="749.750107"/>
     <use xlink:href="#Lato-Bold-63" x="800.500107"/>
     <use xlink:href="#Lato-Bold-74" x="848.700119"/>
     <use xlink:href="#Lato-Bold-6f" x="885.900116"/>
     <use xlink:href="#Lato-Bold-72" x="943.350128"/>
     <use xlink:href="#Lato-Bold-20" x="980.650131"/>
     <use xlink:href="#Lato-Bold-67" x="1004.950134"/>
     <use xlink:href="#Lato-Bold-72" x="1057.750137"/>
     <use xlink:href="#Lato-Bold-61" x="1095.05014"/>
     <use xlink:href="#Lato-Bold-70" x="1145.80014"/>
     <use xlink:href="#Lato-Bold-68" x="1202.600143"/>
    </g>
   </g>
  </g>
 </g>
 <defs>
  <clipPath id="p043049e3ca">
   <rect x="7.2" y="14.522605" width="512.39952" height="332.527381"/>
  </clipPath>
 </defs>
</svg>
