<?xml version="1.0" encoding="utf-8" standalone="no"?>
<!DOCTYPE svg PUBLIC "-//W3C//DTD SVG 1.1//EN"
  "http://www.w3.org/Graphics/SVG/1.1/DTD/svg11.dtd">
<svg xmlns:xlink="http://www.w3.org/1999/xlink" width="400.968pt" height="86.472pt" viewBox="0 0 400.968 86.472" xmlns="http://www.w3.org/2000/svg" version="1.1">
 <metadata>
  <rdf:RDF xmlns:dc="http://purl.org/dc/elements/1.1/" xmlns:cc="http://creativecommons.org/ns#" xmlns:rdf="http://www.w3.org/1999/02/22-rdf-syntax-ns#">
   <cc:Work>
    <dc:type rdf:resource="http://purl.org/dc/dcmitype/StillImage"/>
    <dc:date>2026-03-04T00:05:14.735504</dc:date>
    <dc:format>image/svg+xml</dc:format>
    <dc:creator>
     <cc:Agent>
      <dc:title>Matplotlib v3.6.3, https://matplotlib.org/</dc:title>
     </cc:Agent>
    </dc:creator>
   </cc:Work>
  </rdf:RDF>
 </metadata>
 <defs>
  <style type="text/css">*{stroke-linejoin: round; stroke-linecap: butt}</style>
 </defs>
 <g id="figure_1">
  <g id="patch_1">
   <path d="M 0 86.472 
L 400.968 86.472 
L 400.968 0 
L 0 0 
z
" style="fill: #f6fbfa"/>
  </g>
  <g id="axes_1">
   <g id="line2d_1">
    <path d="M 33.408 43.236 
L 144.792 43.236 
" clip-path="url(#p325727f7e1)" style="fill: none; stroke: #3f8f88; stroke-width: 2.6; stroke-linecap: round"/>
   </g>
   <g id="line2d_2">
    <path d="M 144.792 43.236 
L 256.176 43.236 
" clip-path="url(#p325727f7e1)" style="fill: none; stroke: #3f8f88; stroke-width: 2.6; stroke-linecap: round"/>
   </g>
   <g id="line2d_3">
    <path d="M 256.176 43.236 
L 367.56 43.236 
" clip-path="url(#p325727f7e1)" style="fill: none; stroke: #3f8f88; stroke-width: 2.6; stroke-linecap: round"/>
   </g>
   <g id="patch_2">
    <path d="M 13.88304 72.85104 
L 58.43664 72.85104 
Q 63.02304 72.85104 63.02304 68.26464 
L 63.02304 23.71104 
Q 63.02304 19.12464 58.43664 19.12464 
L 13.88304 19.12464 
Q 9.29664 19.12464 9.29664 23.71104 
L 9.29664 68.26464 
Q 9.29664 72.85104 13.88304 72.85104 
z
" clip-path="url(#p325727f7e1)" style="fill: #0f2d33; opacity: 0.18"/>
   </g>
   <g id="patch_3">
    <path d="M 147.307968 66.718368 
C 152.868322 66.718368 158.201687 64.509216 162.133452 60.577452 
C 166.065216 56.645687 168.274368 51.312322 168.274368 45.751968 
C 168.274368 40.191614 166.065216 34.858249 162.133452 30.926484 
C 158.201687 26.99472 152.868322 24.785568 147.307968 24.785568 
C 141.747614 24.785568 136.414249 26.99472 132.482484 30.926484 
C 128.55072 34.858249 126.341568 40.191614 126.341568 45.751968 
C 126.341568 51.312322 128.55072 56.645687 132.482484 60.577452 
C 136.414249 64.509216 141.747614 66.718368 147.307968 66.718368 
z
" clip-path="url(#p325727f7e1)" style="fill: #0f2d33; opacity: 0.18"/>
   </g>
   <g id="patch_4">
    <path d="M 236.65104 72.85104 
L 281.20464 72.85104 
Q 285.79104 72.85104 285.79104 68.26464 
L 285.79104 23.71104 
Q 285.79104 19.12464 281.20464 19.12464 
L 236.65104 19.12464 
Q 232.06464 19.12464 232.06464 23.71104 
L 232.06464 68.26464 
Q 232.06464 72.85104 236.65104 72.85104 
z
" clip-path="url(#p325727f7e1)" style="fill: #0f2d33; opacity: 0.18"/>
   </g>
   <g id="patch_5">
    <path d="M 370.075968 66.718368 
C 375.636322 66.718368 380.969687 64.509216 384.901452 60.577452 
C 388.833216 56.645687 391.042368 51.312322 391.042368 45.751968 
C 391.042368 40.191614 388.833216 34.858249 384.901452 30.926484 
C 380.969687 26.99472 375.636322 24.785568 370.075968 24.785568 
C 364.515614 24.785568 359.182249 26.99472 355.250484 30.926484 
C 351.31872 34.858249 349.109568 40.191614 349.109568 45.751968 
C 349.109568 51.312322 351.31872 56.645687 355.250484 60.577452 
C 359.182249 64.509216 364.515614 66.718368 370.075968 66.718368 
z
" clip-path="url(#p325727f7e1)" style="fill: #0f2d33; opacity: 0.18"/>
   </g>
   <g id="patch_6">
    <path d="M 11.1312 70.0992 
L 55.6848 70.0992 
Q 60.2712 70.0992 60.2712 65.5128 
L 60.2712 20.9592 
Q 60.2712 16.3728 55.6848 16.3728 
L 11.1312 16.3728 
Q 6.5448 16.3728 6.5448 20.9592 
L 6.5448 65.5128 
Q 6.5448 70.0992 11.1312 70.0992 
z
" clip-path="url(#p325727f7e1)" style="fill: #1f5d5a; stroke: #12343b; stroke-width: 2; stroke-linejoin: miter"/>
   </g>
   <g id="patch_7">
    <path d="M 144.792 64.2024 
C 150.352354 64.2024 155.685719 61.993248 159.617484 58.061484 
C 163.549248 54.129719 165.7584 48.796354 165.7584 43.236 
C 165.7584 37.675646 163.549248 32.342281 159.617484 28.410516 
C 155.685719 24.478752 150.352354 22.2696 144.792 22.2696 
C 139.231646 22.2696 133.898281 24.478752 129.966516 28.410516 
C 126.034752 32.342281 123.8256 37.675646 123.8256 43.236 
C 123.8256 48.796354 126.034752 54.129719 129.966516 58.061484 
C 133.898281 61.993248 139.231646 64.2024 144.792 64.2024 
z
" clip-path="url(#p325727f7e1)" style="fill: #64c2b4; stroke: #2f7e79; stroke-width: 2; stroke-linejoin: miter"/>
   </g>
   <g id="patch_8">
    <path d="M 233.8992 70.0992 
L 278.4528 70.0992 
Q 283.0392 70.0992 283.0392 65.5128 
L 283.0392 20.9592 
Q 283.0392 16.3728 278.4528 16.3728 
L 233.8992 16.3728 
Q 229.3128 16.3728 229.3128 20.9592 
L 229.3128 65.5128 
Q 229.3128 70.0992 233.8992 70.0992 
z
" clip-path="url(#p325727f7e1)" style="fill: #1f5d5a; stroke: #12343b; stroke-width: 2; stroke-linejoin: miter"/>
   </g>
   <g id="patch_9">
    <path d="M 367.56 64.2024 
C 373.120354 64.2024 378.453719 61.993248 382.385484 58.061484 
C 386.317248 54.129719 388.5264 48.796354 388.5264 43.236 
C 388.5264 37.675646 386.317248 32.342281 382.385484 28.410516 
C 378.453719 24.478752 373.120354 22.2696 367.56 22.2696 
C 361.999646 22.2696 356.666281 24.478752 352.734516 28.410516 
C 348.802752 32.342281 346.5936 37.675646 346.5936 43.236 
C 346.5936 48.796354 348.802752 54.129719 352.734516 58.061484 
C 356.666281 61.993248 361.999646 64.2024 367.56 64.2024 
z
" clip-path="url(#p325727f7e1)" style="fill: #64c2b4; stroke: #2f7e79; stroke-width: 2; stroke-linejoin: miter"/>
   </g>
   <g id="patch_10">
    <path d="M 140.179392 55.396512 
C 144.627675 55.396512 148.894368 53.62919 152.039779 50.483779 
C 155.18519 47.338368 156.952512 43.071675 156.952512 38.623392 
C 156.952512 34.175109 155.18519 29.908416 152.039779 26.763005 
C 148.894368 23.617594 144.627675 21.850272 140.179392 21.850272 
C 135.731109 21.850272 131.464416 23.617594 128.319005 26.763005 
C 125.173594 29.908416 123.406272 34.175109 123.406272 38.623392 
C 123.406272 43.071675 125.173594 47.338368 128.319005 50.483779 
C 131.464416 53.62919 135.731109 55.396512 140.179392 55.396512 
z
" clip-path="url(#p325727f7e1)" style="fill: #ffffff; opacity: 0.08"/>
   </g>
   <g id="patch_11">
    <path d="M 362.947392 55.396512 
C 367.395675 55.396512 371.662368 53.62919 374.807779 50.483779 
C 377.95319 47.338368 379.720512 43.071675 379.720512 38.623392 
C 379.720512 34.175109 377.95319 29.908416 374.807779 26.763005 
C 371.662368 23.617594 367.395675 21.850272 362.947392 21.850272 
C 358.499109 21.850272 354.232416 23.617594 351.087005 26.763005 
C 347.941594 29.908416 346.174272 34.175109 346.174272 38.623392 
C 346.174272 43.071675 347.941594 47.338368 351.087005 50.483779 
C 354.232416 53.62919 358.499109 55.396512 362.947392 55.396512 
z
" clip-path="url(#p325727f7e1)" style="fill: #ffffff; opacity: 0.08"/>
   </g>
   <g id="text_1">
    <!-- $f_{1}$ -->
    <g style="fill: #ffffff" transform="translate(26.1305 49.083305) scale(0.205 -0.205)">
     <defs>
      <path id="STIXGeneral-Italic-1d627" d="M 3366 4051 
L 3123 3674 
L 3014 3667 
Q 2861 3808 2774 3862 
Q 2688 3917 2566 3917 
Q 2368 3917 2205 3757 
Q 2042 3597 1958 3258 
L 1869 2899 
L 2598 2899 
L 2490 2445 
L 1760 2445 
L 1152 0 
L 646 0 
L 1254 2445 
L 736 2445 
L 845 2899 
L 1363 2899 
L 1434 3162 
Q 1613 3808 1971 4115 
Q 2291 4371 2637 4371 
Q 3072 4371 3366 4051 
z
" transform="scale(0.015625)"/>
      <path id="STIXGeneral-Regular-1d7e3" d="M 1933 0 
L 1427 0 
L 1427 3648 
Q 1286 3584 1008 3440 
Q 730 3296 691 3277 
L 691 3744 
L 1843 4333 
L 1933 4301 
L 1933 0 
z
" transform="scale(0.015625)"/>
     </defs>
     <use xlink:href="#STIXGeneral-Italic-1d627" transform="translate(0 0.703125)"/>
     <use xlink:href="#STIXGeneral-Regular-1d7e3" transform="translate(33.599991 -12.885937) scale(0.7)"/>
    </g>
   </g>
   <g id="text_2">
    <!-- $x_{1}$ -->
    <g style="fill: #ffffff" transform="translate(135.547 49.368539) scale(0.215 -0.215)">
     <defs>
      <path id="STIXGeneral-Italic-1d639" d="M 3482 2899 
L 2202 1510 
L 2893 0 
L 2291 0 
L 1786 1120 
L 794 0 
L 192 0 
L 1600 1530 
L 986 2899 
L 1587 2899 
L 2022 1933 
L 2880 2899 
L 3482 2899 
z
" transform="scale(0.015625)"/>
     </defs>
     <use xlink:href="#STIXGeneral-Italic-1d639" transform="translate(0 0.703125)"/>
     <use xlink:href="#STIXGeneral-Regular-1d7e3" transform="translate(48.199997 -12.885937) scale(0.7)"/>
    </g>
   </g>
   <g id="text_3">
    <!-- $f_{12}$ -->
    <g style="fill: #ffffff" transform="translate(245.311 49.083305) scale(0.205 -0.205)">
     <defs>
      <path id="STIXGeneral-Regular-1d7e4" d="M 3002 454 
L 2816 0 
L 224 0 
L 224 134 
L 1344 1504 
L 1344 1498 
L 1702 1933 
Q 1952 2234 2054 2365 
Q 2157 2496 2253 2685 
Q 2349 2874 2349 3040 
Q 2349 3437 2134 3654 
Q 1920 3872 1549 3872 
Q 1254 3872 1008 3629 
Q 762 3386 698 2938 
L 237 3046 
Q 339 3616 716 3971 
Q 1094 4326 1594 4326 
Q 2150 4326 2502 3980 
Q 2854 3635 2854 3142 
Q 2854 2784 2720 2525 
Q 2586 2266 2157 1728 
L 1133 454 
L 3002 454 
z
" transform="scale(0.015625)"/>
     </defs>
     <use xlink:href="#STIXGeneral-Italic-1d627" transform="translate(0 0.703125)"/>
     <use xlink:href="#STIXGeneral-Regular-1d7e3" transform="translate(33.599991 -12.885937) scale(0.7)"/>
     <use xlink:href="#STIXGeneral-Regular-1d7e4" transform="translate(68.59998 -12.885937) scale(0.7)"/>
    </g>
   </g>
   <g id="text_4">
    <!-- $x_{2}$ -->
    <g style="fill: #ffffff" transform="translate(358.315 49.368539) scale(0.215 -0.215)">
     <use xlink:href="#STIXGeneral-Italic-1d639" transform="translate(0 0.703125)"/>
     <use xlink:href="#STIXGeneral-Regular-1d7e4" transform="translate(48.199997 -12.885937) scale(0.7)"/>
    </g>
   </g>
  </g>
 </g>
 <defs>
  <clipPath id="p325727f7e1">
   <rect x="7.2" y="7.2" width="386.568" height="72.072"/>
  </clipPath>
 </defs>
</svg>
